<svg xmlns="http://www.w3.org/2000/svg" xmlns:xlink="http://www.w3.org/1999/xlink" width="376" height="519" viewBox="0 0 376 519">
  <defs>
    <clipPath id="clip-path">
      <rect id="Rectangle_21" data-name="Rectangle 21" width="376" height="519" transform="translate(140 105)" fill="#fff" stroke="#707070" stroke-width="1"/>
    </clipPath>
  </defs>
  <g id="Mask_Group_1" data-name="Mask Group 1" transform="translate(-140 -105)" clip-path="url(#clip-path)">
    <g id="Group_16" data-name="Group 16" transform="translate(443.245 104.792) rotate(86)">
      <path id="Path_118" data-name="Path 118" d="M.732,165.948c.61,1.219,9.144,4.877,9.754,5.486s-.61,1.829,1.219,2.438,18.9,7.315,18.9,8.534a8.5,8.5,0,0,0,2.438,5.486c1.829,1.829,4.877,7.315,6.706,8.534s31.7,15.24,31.7,15.24l32.918,15.24,56.083,24.384,44.5,15.24s25.6,6.706,26.822,6.706,6.706-3.048,6.706-3.048,3.562,3.048,4.829,3.048,11.63.61,15.9-1.219,13.411-6.1,15.24-6.706,7.315-6.706,7.315-6.706,2.438-.609,1.219,3.048-1.829,3.048,1.219,3.658,6.1,0,7.315,0,10.363-3.658,10.973-3.658,7.315-3.048,7.925-2.438-1.219,4.267-.61,5.486,0,2.438,2.438,1.829,10.363-7.925,10.363-7.925,12.8-10.973,13.411-11.582,6.706-11.582,6.706-12.8,5.486-11.582,5.486-11.582,5.486-10.973,6.1-11.582,1.829-3.048,5.486-3.658,14.63-4.267,15.85-4.267,9.144,3.048,9.754,3.658,5.486,1.829,5.486,4.267-1.829,15.85-.61,17.069,3.658,1.219,5.486.61,3.658-3.658,3.658-1.829a17.174,17.174,0,0,0,2.438,6.706l6.1,6.1,7.925,6.1s6.706,3.048,7.315,3.658,6.705-.61,9.144-1.829,12.192-5.486,12.192-5.486l13.411-7.315,12.8-9.754s7.925-8.534,8.534-9.144a89.155,89.155,0,0,0,5.487-7.925c.61-1.219,15.24-6.1,17.678-7.315s15.24-12.8,15.85-14.021,4.877-9.144,6.1-9.144,10.363-4.267,12.8-4.267,11.582-1.219,11.582-1.219,12.8,2.438,14.63-2.438,5.487-28.651,1.219-30.48-4.877-9.144-4.877-9.144-6.1-10.973-7.315-12.8-3.658-7.315-3.658-8.534-1.219-5.486.61-5.486,15.85,4.877,17.678,4.877,7.925.61,10.363-.61,3.2-3.658,2.208-4.267-8.213,0-9.173,0-10.714-.61-13.762-1.829S551.2,99.5,551.2,98.282s3.048-4.877,6.706-4.877,13.411-1.829,14.021-2.438,6.1-1.219,4.877-1.829-14.021-1.829-15.24-.61-9.144-2.438-9.144-2.438-10.363-3.048-11.583-2.438-6.706-.61-9.754-2.438-11.582-4.267-12.8-4.267-6.706-4.877-10.363-3.658-11.582,1.219-12.8,1.829-10.363,3.658-10.973,4.267-9.754-3.048-10.973-3.048-12.192-3.658-14.021-3.048-10.363.61-13.411,2.438-12.192,6.706-12.192,6.706-12.192,8.534-12.8,8.534-11.582,10.363-12.192,10.363-8.534,10.973-9.144,11.582-4.877,6.1-4.267,7.315,6.1,21.946,6.1,21.946-2.438,6.1-6.706,8.534-11.582,4.877-15.24,4.877-4.877,0-4.267-3.658,1.829-12.8,1.829-14.021-1.219-18.288-1.219-19.507-4.267-14.021-4.267-15.24-5.486-11.582-6.1-12.8-7.315-9.754-7.925-10.363-8.534-7.315-9.144-7.925-12.192-6.1-13.411-6.706-12.192-2.438-13.411-2.438-8.417.61-11.523,0-12.251-.61-12.861-1.219-9.753-.61-10.973-.61-7.925-2.438-7.925-2.438-7.925-3.658-6.706-1.219,1.219,3.658-2.438,4.267-10.973,1.829-11.582,2.438-15.24-6.1-15.24-6.1-9.754-5.486-14.63-5.486-18.288-.61-18.288-.61-6.353.61-7.139,0a34.421,34.421,0,0,0-7.491-3.048c-2.438-.61-9.144-4.267-11.582-6.706s-14.63-9.754-14.63-9.754-14.63-7.925-17.678-9.144-15.85-5.486-15.85-5.486L112.9,10.5S96.439,6.233,95.83,5.623s-12.192-3.048-12.8-3.048S71.446,1.356,70.836,1.356,60.473-.473,59.254.137,49.013-.112,48.647.013,37.918-.473,35.479,1.356s-3.658,4.877-3.048,6.1,12.8,14.021,12.8,13.411,14.63,12.8,14.63,12.8,6.1,4.267,6.1,6.1A7.526,7.526,0,0,0,68.4,44.638c1.219,1.219,15.85,12.192,17.069,11.582s25.6,20.726,25.6,20.726l28.042,24.994,27.432,24.384s13.411,7.925,13.411,9.144-4.267,18.9-4.267,20.117-1.219,0-2.438-.61a69.588,69.588,0,0,0-12.192-4.877c-4.877-1.219-18.288-4.267-20.117-4.267s-20.117-2.438-21.336-2.438H74.494c-1.829,0-15.24,0-16.459.61s-20.726,2.438-21.946,2.438-19.507,1.219-20.726,1.829-12.8,5.486-13.411,6.1S-.487,162.29.123,164.119s0,1.829,0,1.829Z" transform="translate(0 0)" fill="none" stroke="#000" stroke-miterlimit="10" stroke-width="1"/>
      <path id="Path_119" data-name="Path 119" d="M0,.542c1.219,0,5.925-1.219,7.535,0S31.09,4.809,31.09,4.809,60.35,7.247,61.57,7.857s16.459,4.877,18.288,5.486S95.707,17,95.707,17s10.973,2.438,12.8,2.438,18.626.61,18.457,0,12.023-1.829,12.633-1.829,11.582-1.219,12.192-1.829,7.925-3.048,9.144-3.048,9.754,1.219,9.754,1.829,4.267,1.829,4.877,1.829,21.336,12.8,21.336,12.8,4.877,2.438,4.877,4.267-3.048,21.336-7.315,25.6-15.849,9.144-15.849,9.754-11.582,0-12.192-.61-9.754-3.048-9.754-3.048l-12.8-3.658-15.24-4.877-12.8-4.877-12.192-4.267L89.611,41.995l-16.989-7.46L59.741,29.193,47.549,23.707l-12.192-6.1-12.192-6.1S14.63,8.467,13.411,7.857,5.486,4.2,5.486,4.2,0,1.829,0,1.49Z" transform="translate(56.18 201.982)" fill="none" stroke="#000" stroke-miterlimit="10" stroke-width="1"/>
      <path id="Path_120" data-name="Path 120" d="M167.077,52.678s3.048,1.829,4.267,1.219-2.438-4.267-1.829-5.486-3.658-.61-4.267-2.438-3.048-4.267-1.219-7.925,3.658-10.363,4.877-10.363,4.877-.61,5.486-.61,1.829,1.219.61-.61-4.877-4.267-4.877-4.267-12.192-8.534-12.8-9.144-4.267-3.048-7.925-2.438-14.021,3.658-14.021,3.658l-14.021,1.219s-7.925,1.219-9.144,1.219-12.192.61-12.8,0c0,0-10.973-.474-11.278-1.152S71.98,11.835,71.98,11.835L56.74,7.568,43.329,3.91,32.356,3.3S22.6,2.081,21.993,2.081s-6.706,0-7.925-.61S8.581.862,6.753.253-.563.253.047.862s10.363,5.486,11.582,6.1,10.973,6.1,10.973,6.1a10.726,10.726,0,0,0,3.658-.61c1.219-.61,4.267,0,4.877.61s13.411,5.486,13.411,5.486L56.74,23.417,70.151,28.9s10.973,3.658,11.582,3.658S92.1,36.219,92.1,36.219l11.582,3.048,12.8,3.658,10.363,2.438L136.6,47.8S146.96,50.24,147.57,50.24s7.315,1.219,7.925,1.219,4.877.61,6.1.61,4.267-.61,4.877,0Z" transform="translate(68.935 205.929)" fill="none" stroke="#000" stroke-miterlimit="10" stroke-width="1"/>
      <path id="Path_121" data-name="Path 121" d="M134.819,48.158a9.7,9.7,0,0,0,5.486-.609c2.438-1.219,10.363-5.487,10.363-6.1s-9.144,3.048-10.363,1.219S125.066,38.4,123.846,38.4s-20.726-4.877-20.726-4.877L83,28.651,64.715,23.165l-20.756-6.85L25.7,9.144l-15.24-6.1S1.927.61,1.927,0C1.927,0-.512,0,.1.61s19.507,9.754,19.507,9.754l15.037,5.951,15.443,6.241S67.763,30.48,68.373,30.48,89.709,38.4,89.709,38.4l17.678,5.486s18.82,4.572,20.078,4.42S134.819,48.158,134.819,48.158Z" transform="translate(96.925 220.202)" fill="none" stroke="#000" stroke-miterlimit="10" stroke-width="1"/>
      <path id="Path_122" data-name="Path 122" d="M102.823,31.09s5.486,1.829,6.706,1.829,12.192,3.048,12.8,3.048,11.3,1.219,12.356.61,4.1-1.829,2.275-3.048-6.706-1.219-7.315-1.829-16.459-5.486-16.459-5.486L94.9,20.726S81.487,15.85,79.658,15.85s-17.069-2.438-17.069-2.438-18.288-3.048-18.9-3.048S33.938,8.534,32.109,8.534,21.137,6.1,19.918,5.486,3.458,0,3.458,0-1.418,1.219.41,1.829,15.041,10.363,18.7,12.192s14.021,6.1,15.24,6.706S54.8,22.3,54.8,22.3s10.835,1.472,11.445,1.472,9.754,0,10.973.61S87.583,27.432,88.8,28.042s12.192,3.048,12.8,3.048Z" transform="translate(40.53 183.626)" fill="none" stroke="#000" stroke-miterlimit="10" stroke-width="1"/>
      <path id="Path_123" data-name="Path 123" d="M1.084,1.917s-2.438-2.734,0-1.672S17.543,1.917,18.762,2.527,35.831,5.575,35.831,5.575s14.021,2.438,15.24,2.438S61.721,10.2,61.721,10.2l3.98.862s10.363,4.267,11.582,4.877,9.754,3.048,9.144,3.658-10.363-1.829-10.363-1.829-12.8-2.438-14.021-3.048S52.9,10.451,51.68,10.451s-12.052.1-13.036-.252S27.3,8.623,26.077,8.623,14.424,6.929,13.24,6.252,4.132,4.965,2.913,3.746Z" transform="translate(67.288 195.73)" fill="none" stroke="#000" stroke-miterlimit="10" stroke-width="1"/>
      <path id="Path_124" data-name="Path 124" d="M4.7,12.8c-1.219-.61-3.658-4.877-4.267-6.1S-.788,4.267,3.479,3.658,30.911.61,32.13.61,59.562,0,60.781,0s31.7,1.829,31.7,1.829,22.555,1.219,23.774,1.829S141.008,12.8,142.348,12.8s9.874,3.048,9.264,4.267-2.438,4.267-2.438,4.267,1.829,1.829,3.658,1.829,4.877,3.658,6.1,4.877,7.315,11.582,7.315,11.582,4.877,3.048,6.706,3.048-2.438,3.048-3.658,3.048-23.165,4.267-24.384,3.658S138.2,44.5,136.981,44.5s-6.706-.61-7.925-1.219-15.85-5.486-15.85-5.486l-15.85-4.267S86.994,30.48,86.384,29.87s-8.534-1.829-9.754-1.829S62,26.213,61.391,25.6s-15.24-2.438-15.24-2.438l-15.24-3.048L17.5,17.069,5.308,12.8Z" transform="translate(39.29 169.605)" fill="none" stroke="#000" stroke-miterlimit="10" stroke-width="1"/>
      <path id="Path_125" data-name="Path 125" d="M14.64,11.582A33.793,33.793,0,0,1,6.715,8.534C4.887,7.315.619,3.048.01,1.829s27.432-.61,27.432-.61L53.045,0S70.114.61,71.333,1.219s20.117,6.1,20.117,6.1,15.24,3.658,15.85,3.048,8.534,5.486,9.144,6.1,9.144,11.582,6.706,12.192-14.021,2.438-15.24,2.438-14.383,1.829-16.945,0S72.5,25,71.61,24.389,51.216,17.069,50,17.069,37.2,15.24,36.586,15.24,21.346,13.411,20.127,12.8A30.923,30.923,0,0,0,14.64,11.582Z" transform="translate(79.335 181.188)" fill="none" stroke="#000" stroke-miterlimit="10" stroke-width="1"/>
      <path id="Path_126" data-name="Path 126" d="M84.432,28.788c0-1.219-6.868-5.991-7.092-6.348s2.215-16.207,1-16.207S58.773-1.082,45.695.137,14.328,1.966,12.5,1.356-2.131,1.966.308,3.185s10.363,6.1,12.8,6.1,23.257,2.262,25.65,2.96,16.413,5.575,18.851,6.794,15.85,4.877,17.069,5.486,6.706,3.658,7.315,3.658A13.829,13.829,0,0,1,84.432,28.788Z" transform="translate(89.401 183.489)" fill="none" stroke="#000" stroke-miterlimit="10" stroke-width="1"/>
      <path id="Path_127" data-name="Path 127" d="M9.309,22.4c.542-.61,21.268-3.048,21.268-3.048s1.219-1.219.61-2.438S20.824,4.11,19,3.5,1.927-1.376,1.927.452-.512,13.864.1,15.083,9.309,22.4,9.309,22.4Z" transform="translate(168.249 189.879)" fill="none" stroke="#000" stroke-miterlimit="10" stroke-width="1"/>
      <path id="Path_128" data-name="Path 128" d="M0,1.3S4.877.69,5.486.08,16.459,2.519,17.069,3.128s-.752,5.191-3.119,3.815S6.229,3.462,4.334,3.6,0,1.3,0,1.3Z" transform="translate(170.785 182.936)" fill="none" stroke="#000" stroke-miterlimit="10" stroke-width="1"/>
      <path id="Path_129" data-name="Path 129" d="M25.17,29.261c-.61,0-7.315-3.048-7.925-3.048S4.65,21.336,3.327,20.726,1.4,17.678.786,16.459-1.652,6.706,3.834,4.877,29.437,0,33.095,0H60.65S75.761,1.763,76.678,1.491s11.89.338,13.719.338,21.946,2.438,21.946,2.438l16.063,1.248s13.807,1.8,15.027,1.8,15.85,4.267,18.288,6.706,10.973,7.315,10.973,8.534,4.557,9.456,2.583,8.995-8.679-2.9-10.508-2.9-17.678-4.267-18.288-4.267-8.717-3.782-18.075-2.805-12.927-.852-12.927-.852l-20.2-1.219H75.767l-23.165.61s-17.069,1.829-17.678,1.829S24.56,24.384,24.56,24.994s3.405,7.054,2.007,6.575S25.17,29.261,25.17,29.261Z" transform="translate(12.722 148.879)" fill="none" stroke="#000" stroke-miterlimit="10" stroke-width="1"/>
      <path id="Path_130" data-name="Path 130" d="M8.734,12.8c-.61-.61-1.829-8.534-.61-10.973S.383-.61.6,1.829-.843,9.039.592,9.7,8.734,12.8,8.734,12.8Z" transform="translate(2.336 154.975)" fill="none" stroke="#000" stroke-miterlimit="10" stroke-width="1"/>
      <path id="Path_131" data-name="Path 131" d="M15.245,94.387S21.977,82.275,23.9,81.055s3.749-3.658,5.578-12.192S36.18,46.918,37.4,45.7s9.144-5.486,12.192-5.486,5.486,0,4.877-3.658-1.829-14.021-.609-15.85S58.735,9.123,59.345,8.513s-4.267-3.048-5.486-3.048-5.487-2.438-6.1-3.048S42.886-1.85,39.838,1.2,25.207,14,25.207,14s-8.953,12.486-9.963,13.863S7.529,44.479,7.529,44.479,2.188,56.947,1.506,58.943-.471,70.513.176,70.907a80.545,80.545,0,0,1,7.353,8.929c.61,1.219,5.183,11.582,4.725,12.8s-.847,2.438.567,2.438A4.677,4.677,0,0,0,15.245,94.387Z" transform="translate(177.886 88.55)" fill="none" stroke="#000" stroke-miterlimit="10" stroke-width="1"/>
      <path id="Path_132" data-name="Path 132" d="M.687,55.626s6.706-3.048,6.706-4.267,1.219-14.63,4.877-21.336S22.633,11.735,23.852,10.516s5.486-7.315,6.1-9.144-.936-1.829-2.906,0S19.585,9.3,19.585,9.3L12.879,20.269,7.393,31.852,3.126,42.215s-2.438,7.645-2.438,9S-.387,53.828.15,54.727Z" transform="translate(179.241 100.568)" fill="none" stroke="#000" stroke-miterlimit="10" stroke-width="1"/>
      <path id="Path_133" data-name="Path 133" d="M1.909,65.227h0S-.075,65.834,0,66.14s.151,1.765.151,1.765c.537-.24,5.414,5.247,6.023,6.466s3.658,9.754,4.877,10.973,3.048,0,5.486-3.658,5.141-8.25,7.143-9.307,5.659-22.392,7.488-25.44,6.706-10.363,10.363-10.973,5.486-1.829,6.1-4.267,2.438-17.678,3.658-19.507-5.486-7.315-6.1-9.754S40.923-.61,39.095.61s-4.877,7.925-7.315,10.363-7.925,14.021-9.754,15.85-4.82,10.52-6.982,13.185-4.6,16.076-5.21,17.9a32,32,0,0,1-4.267,6.706c-.61.61-3.048,0-3.658.61" transform="translate(179.239 91.577)" fill="none" stroke="#000" stroke-miterlimit="10" stroke-width="1"/>
      <path id="Path_134" data-name="Path 134" d="M.022,32.849s2.715-7.12,3.934-8.339,8.534-12.8,13.411-12.8,25.708-5.9,25.656-6S49.676,2.565,50.9.736s2.1,0,4.1,2.743,8.7,11.1,8.7,11.8S59.58,30.921,59.809,32.593s0,4.17,4.686,4.445,11.393-.335,13.222,2.1,6.1,3.658,8.534,2.438,8.534,4.877,8.534,4.877,12.8,7.948,11.887,9.156-7.01,9.742-8.23,10.352-11.582,6.706-13.411,7.315-6.706,0-10.973-2.438S57.6,60.477,55.163,60.477s-14.9-6.1-15.986-5.486-3.522,3.658-4.741,3.048-13.411-3.658-13.411-3.658S11.949,50.828,10.7,48.642,2.128,36.093,2.128,36.093-.254,34.949.022,34.607.022,32.849.022,32.849Z" transform="translate(194.261 157.287)" fill="none" stroke="#000" stroke-miterlimit="10" stroke-width="1"/>
      <path id="Path_135" data-name="Path 135" d="M0,13.479s9.754-1.829,9.754-2.438S18.9,5.554,20.117,4.335,25.6-.542,26.822.068s10.973,6.1,9.754,7.925S20.832,21.217,18.34,21.31,9.754,19.575,7.925,18.356,1.219,15.918.61,14.7Z" transform="translate(259.786 207.942)" fill="none" stroke="#000" stroke-miterlimit="10" stroke-width="1"/>
      <path id="Path_136" data-name="Path 136" d="M32.383,20.773c-.61,0-7.925-4.877-9.144-5.486S10.2,5.017,8.488,4.361,1.006-1.564.235.46.684,4.923,2.513,6.752,6.78,14.067,8,14.677s6.706,5.486,8.534,5.486S25.461,22.6,27.4,22.6s2.66.61,3.822,0A2.187,2.187,0,0,0,32.383,20.773Z" transform="translate(198.143 189.676)" fill="none" stroke="#000" stroke-miterlimit="10" stroke-width="1"/>
      <path id="Path_137" data-name="Path 137" d="M55.878,56.342c.485-.835,4.753-1.445,8.41-2.664S71.6,48.8,75.261,46.363s6.1-2.438,3.658-4.877-4.877-1.219-7.315-3.658-16.459-4.267-17.678-4.267-5.486-2.438-3.658-7.925,3.048-10.363.61-15.85S46,.643,44.171.033,30.552,7.349,25.779,7.349,10.643,9.787,10.643,10.4s-7.315,4.267-8.534,6.1-3.845,3.991-.4,7.787S19.565,39.183,20.9,39.725,34.418,48.8,36.856,49.411s13.411,4.267,14.63,5.486c0,0,1.219,1.829,2.438,1.829A4.54,4.54,0,0,0,55.878,56.342Z" transform="translate(201.594 162.257)" fill="none" stroke="#000" stroke-miterlimit="10" stroke-width="1"/>
      <path id="Path_138" data-name="Path 138" d="M1.377,58.795A46.259,46.259,0,0,1,5.595,50.87c.659-.61,7.974-10.363,8.584-10.973s5.775-2.935,6.545-2.687,9.3-2.19,11.743-2.8,9.846.61,17.115-8.534S61.145,9.438,57.474,5.77,39.172-.946,36.124.273,24.542,2.1,22.713,8.807s-4.607,13.768-5.352,18.161-3.183,8.661-3.792,9.88S5.035,47.212,5.035,47.212.158,55.137.158,56.356-.369,60.232.5,59.818,1.377,58.795,1.377,58.795Z" transform="translate(191.963 130.318)" fill="none" stroke="#000" stroke-miterlimit="10" stroke-width="1"/>
      <path id="Path_139" data-name="Path 139" d="M.67,32.918s4.468-4.693,7.111-5.09,6.91-2.835,9.348-3.445S27.493,18.9,28.712,17.069,32.37,7.925,32.37,7.925A4.085,4.085,0,0,0,28.1,4.877H24.445s-10.363,0-12.192,2.438-6.1,10.363-5.486,12.8-1.979,4.014-2.513,4.75-4.8,3.175-4.192.127S1.89,13.411,4.328,9.144,12.253,0,14.691,0A131.833,131.833,0,0,1,29.383,2.057c1.158.381,8.473,4.039,7.254,7.7S29.321,20.726,28.1,21.946s-7.29,5.486-10.96,6.4S7.376,31.7,4.938,32.309s-5,2.148-4.937,1.683A2.607,2.607,0,0,1,.67,32.918Z" transform="translate(211.567 132.42)" fill="none" stroke="#000" stroke-miterlimit="10" stroke-width="1"/>
      <path id="Path_140" data-name="Path 140" d="M64.746,52.967c.61.61,3.649,2.438,5.177,0s-5.787-7.315-8.225-8.534S38.533,27.974,37.923,27.974s-20.117-14.63-20.117-14.63L1.957.542s-2.8-1.219-1.7,0,13.286,12.8,13.286,12.8S39.142,35.9,39.752,37.118s19.507,13.411,21.336,14.63A7.262,7.262,0,0,0,64.746,52.967Z" transform="translate(110.916 73.356)" fill="none" stroke="#000" stroke-miterlimit="10" stroke-width="1"/>
      <path id="Path_141" data-name="Path 141" d="M0,0A51.186,51.186,0,0,1,7.315,2.438c1.219.61,33.528,10.363,35.357,10.973s28.651,14.63,29.261,15.24,20.726,15.24,23.774,18.9,7.315,10.363,6.1,13.411-6.029,11.646-6.977,14.357-3.683,1.556-6.278,0-15.4-10.09-15.4-10.09l-7.925-6.1L56.083,50.6,42.672,39.014,31.09,28.651,18.9,16.459S7.315,7.925,7.315,7.315,0,0,0,0Z" transform="translate(88.489 55.001)" fill="none" stroke="#000" stroke-miterlimit="10" stroke-width="1"/>
      <path id="Path_142" data-name="Path 142" d="M80.92,55.245s3.759.678,3.759-4.809S70.987,32.285,66.86,30.388,31.034,10.2,29.815,8.374,8.479,2.888,7.259,2.278-2.029-1.179.481.549s17.751,10.873,20.8,12.7S49.931,29.1,56.027,34.587s18.9,15.24,20.117,17.678S80.819,55.177,80.92,55.245Z" transform="translate(100.127 63.086)" fill="none" stroke="#000" stroke-miterlimit="10" stroke-width="1"/>
      <path id="Path_143" data-name="Path 143" d="M142.607,94.006c-.158.9.158-.9-.624-1.508s-2.267-6.706-3.486-7.925-14.63-14.021-15.85-15.24S105.579,58.971,104.36,58.361s-14.021-7.925-15.85-8.534S65.955,41.9,65.955,41.9,45.839,35.2,44.619,34.587a50.629,50.629,0,0,1-8.534-7.925c-1.219-1.829-12.192-8.534-12.8-8.534S6.215,5.936,5,5.326A18.4,18.4,0,0,1,.119.449C-1.1-1.38,7.434,2.888,9.263,4.107s12.192,5.486,14.63,6.1,12.8,6.706,13.411,6.706,15.85,6.1,17.069,6.706,15.24,5.486,16.459,6.1,20.726,9.754,20.726,9.754,15.24,9.144,15.85,9.144,18.288,9.754,18.9,10.363S138.5,69.334,144.927,76.7s4.543,7.877,2.105,11.535-3.658,4.267-3.658,4.267Z" transform="translate(49.356 19.804)" fill="none" stroke="#000" stroke-miterlimit="10" stroke-width="1"/>
      <path id="Path_144" data-name="Path 144" d="M10.986,19.964C11.266,20.726,24.677,6.706,25.9,6.1S33.821,0,24.677,0A176.673,176.673,0,0,0,5.78,1.219s-7.315,0-5.486,1.829S8.828,20.117,9.437,20.726,10.986,19.964,10.986,19.964Z" transform="translate(190.608 80.604)" fill="none" stroke="#000" stroke-miterlimit="10" stroke-width="1"/>
      <path id="Path_145" data-name="Path 145" d="M.457,1.344S-1.372-.485,2.286.124l3.658.61S35.2,6.22,35.814,6.22s30.48,5.486,32.918,6.706,15.24,4.877,18.9,7.315,22.555,10.973,22.555,12.192-1.829,1.219-3.658,2.438-7.1.61-9.036,0-19.558.8-19.891.7-6.43,1.734-5.82,3.563,6.256,9.144,4.652,7.925S65.684,35.481,63.856,34.872,43.491,23.6,43.491,23.6,24.841,12.926,24.232,12.926,9.6,6.22,9.6,6.22,4.115,3.782,2.9,3.172A11.373,11.373,0,0,1,.457,1.344Z" transform="translate(116.683 44.513)" fill="none" stroke="#000" stroke-miterlimit="10" stroke-width="1"/>
      <path id="Path_146" data-name="Path 146" d="M23.774,10.9c-2.438-1.219-12.8-3.658-13.411-4.267S0,2.37,0,1.76s10.363-3.194,23.774-.683S53.416,5.577,58.1,6.717s25.413,5.407,27.851,6.016,21.336,3.658,23.165,4.877,13.411,7.315,14.63,7.315,21.336,10.363,21.946,11.582-1.219,6.706-4.877,4.877-16.459-9.754-18.288-10.363-20.911-9.144-24.171-9.144S76.809,17,74.371,17s-20.117-3.658-21.946-3.658-18.9-3.048-20.726-3.048-4.877-1.219-4.877,0-.61,3.658-1.219,2.438A4.552,4.552,0,0,0,23.774,10.9Z" transform="translate(87.879 33.124)" fill="none" stroke="#000" stroke-miterlimit="10" stroke-width="1"/>
      <path id="Path_147" data-name="Path 147" d="M133.463,34.845s-24.384-9.754-26.213-10.973-16.459-5.486-17.678-6.706-18.9-7.925-20.726-8.534S48.729,4.365,46.9,3.755,28,1.317,27.393,1.317s-15.24-.61-15.85-.61S10.7-.083,9.6.007A18.445,18.445,0,0,0,3.009,3.145C1.789,4.365-1.258,4.365.57,4.974s14.9,8.085,14.9,8.085,19.235,9.593,20.454,9.593,10.363,3.706,12.192,3.072S59.7,22.653,62.14,23.262,90.181,26.92,91.4,27.529s21.336,4.267,23.165,4.877,16.459,3.658,16.459,3.658Z" transform="translate(39.76 6.745)" fill="none" stroke="#000" stroke-miterlimit="10" stroke-width="1"/>
      <path id="Path_148" data-name="Path 148" d="M2.767,6.155c.61,0,1.829-3.658,6.1-4.267S5.2-1.16,3.376.668-.891,2.5.328,3.716Z" transform="translate(34.516 1.907)" fill="none" stroke="#000" stroke-miterlimit="10" stroke-width="1"/>
      <path id="Path_149" data-name="Path 149" d="M2.493,2.564C2.493,1.955-1.4,1.143.545.33S30.509.33,33.57,1.447,59.8,7.441,59.8,7.441l25.678,8.695,17.6,5.936,11.582,5.486s9.906,7.417,8.306,7.366S112.221,31.216,111,30.606s-18.9-7.925-19.507-7.925-19.507-7.925-19.507-7.925L56.137,9.27,42.117,6.832S25.441,2.369,24.33,3.076,7.37,2.564,7.37,2.564Z" transform="translate(48.811 3.668)" fill="none" stroke="#000" stroke-miterlimit="10" stroke-width="1"/>
      <path id="Path_150" data-name="Path 150" d="M28.907,19.638c1.167-1.134,5.434-2.963,7.872-3.573s10.973-1.219,9.754-3.048S31.293,5.7,31.293,5.7,21.041,1.264,14.889.435A80.573,80.573,0,0,0,.813.216S-1.016.4.813,1.832s13.411,5.7,15.24,6.918,9.754,4.877,10.973,6.706-.358,4.1.735,4.182S28.907,19.638,28.907,19.638Z" transform="translate(208.377 53.566)" fill="none" stroke="#000" stroke-miterlimit="10" stroke-width="1"/>
      <path id="Path_151" data-name="Path 151" d="M22.092,12.219c0-.61-1.829-3.048-3.658-3.658S8.681,3.685,8.681,3.685-.143.837,0,.432s3.8-1.014,8.68.814S20.218,4.267,21.764,6.11s4.762,6.731,2.545,6.42Z" transform="translate(220.016 55.583)" fill="none" stroke="#000" stroke-miterlimit="10" stroke-width="1"/>
      <path id="Path_152" data-name="Path 152" d="M15.224,90.562c-.137.61,5.35,6.1,5.959,7.315s3.048,6.813,3.658,3.711,7.438-16.513,8.6-18.342,9.8-10.4,11.573-12.211S63.856,62.52,65.075,63.13s13.88-2.438,16.694,3.658,8.3,19.507,5.861,31.09S78.1,124.056,78.6,124.988s-3.158,4.588.5,4.588,23.449.576,32.451-4.588,23.022-19.8,24.851-24.672,6.031-29.122,5.454-37.421-6.673-29.025-8.5-32.073-11.582-15.85-13.411-17.069-13.411-6.1-18.288-5.486-6.706,0-6.706,3.048,2.438,10.363-1.829,12.8a43.391,43.391,0,0,1-12.8,4.267c-1.219,0-16.459-.61-18.288-1.829s-9.144-3.048-12.192-6.1S41.3,7.657,40.691,7.047s-1.829-5.486-1.829-5.486S37.033-.878,32.766.341,15.224,5.784,15.224,5.784a44.856,44.856,0,0,1,4.74,3.092c2.438,1.829,7.315,6.1,7.315,10.363s-2.2,6.1-5.368,6.706S8.382,29.6,8.382,29.6s-4.745,4.572-4.811,5.334-2.5,9.3-3.114,11.125-.61,11.081,0,12.551.61,2.689,2.438,3.3S16.571,62.2,17.658,64.8s7.183,5.647,2.306,14.182-5.213,9.493-4.74,9.928S15.224,90.562,15.224,90.562Z" transform="translate(233.116 65.632)" fill="none" stroke="#000" stroke-miterlimit="10" stroke-width="1"/>
      <path id="Path_153" data-name="Path 153" d="M0,30.964c.564.093,4.831-3.564,7.269-4.174s7.108-.361,9.955-5.362S24.338,8.5,26.167,7.283s9.754-4.267,12.192-4.877S45.674-1.252,47.5.577s0,4.267-1.829,10.363-5.99,5.052-9.092,8.926S28.606,27.4,26.167,28.009,10.95,33.391,7.281,32.529s-4.006,2.081-5.666,0S0,30.964,0,30.964Z" transform="translate(241.544 238.523)" fill="none" stroke="#000" stroke-miterlimit="10" stroke-width="1"/>
      <path id="Path_154" data-name="Path 154" d="M1.2,23.57c.839-.766,9.568-3.058,12.214-4.045S26.426,9.394,28.255,8.174s.61-1.829,1.829-4.877S23.378-.97,20.33.859,9.357,17.928,6.309,19.147s-7.315.61-6.1,2.438l1.219,1.829Z" transform="translate(252.258 244.946)" fill="none" stroke="#000" stroke-miterlimit="10" stroke-width="1"/>
      <path id="Path_155" data-name="Path 155" d="M0,58.055S7.726,36.784,8.435,34.313s2.138-7.518,3.862-7.737S33.528,16.6,33.528,16.6,57.471,4.883,58,3.732,65.227.752,67.056.143s5.486.61,1.829,6.1-9.624,18.108-10.3,18.807A55.1,55.1,0,0,1,49.378,35.5c-6.706,6.1-19.4,17.022-19.4,17.022s-7.424.657-11.082,2.485S9.144,59.883,7.925,59.883s-6.191.61-6.753,0A10.059,10.059,0,0,1,0,58.055Z" transform="translate(284.17 204.21)" fill="none" stroke="#000" stroke-miterlimit="10" stroke-width="1"/>
      <path id="Path_156" data-name="Path 156" d="M.07,40.7c-.609-.61,3.048-5.486,6.1-7.925S14.93,20.1,16.339,17.595s9.334-7.989,12.382-9.818S39.084-1.977,40.3.462s4.267,9.252,0,13.161S26.892,26.674,26.892,26.674,17.748,35.819,14.7,36.428,1.992,41.6,1.64,42.06-.065,42.493,0,41.594Z" transform="translate(299.341 216.692)" fill="none" stroke="#000" stroke-miterlimit="10" stroke-width="1"/>
      <path id="Path_157" data-name="Path 157" d="M28.317,64.961c.574-.628,13.985-3.067,13.985-3.067s-1.219.61-2.438,4.267-2.438,7.315,0,6.706,14.63-12.192,14.63-12.192,7.925-20.117,8.534-22.555,1.219-19.507-1.219-25.6S53.274-1.217,45.654.164,26.452,5.811,25.233,7.03,16.089,16.784,14.869,18,7.515,28.366,7.23,30.5,3.287,45.435,3.287,45.435-.37,56.408.239,57.017s-1.829,3.048,1.829,4.267,10.973.61,10.973.61,2.952.7,3.609,1.876,1.681,3.2,3.3,3.1S28.317,64.961,28.317,64.961Z" transform="translate(255.28 130.267)" fill="none" stroke="#000" stroke-miterlimit="10" stroke-width="1"/>
      <path id="Path_158" data-name="Path 158" d="M12.272,57.546s.61,1.219,3.048,1.829S26.9,59.6,33.3,55.525,49.458,38.649,49.458,27.066,46.007,6.3,43.77,4.492,35.437-.975,31.779.244,20.857,4.492,20.857,4.492,11.768,12.46,10.5,14.582,3.738,24.018,3.128,25.847-.529,36.82.08,39.258s3.048,10.363,6.1,14.021S12.272,57.546,12.272,57.546Z" transform="translate(267.631 132.176)" fill="none" stroke="#000" stroke-miterlimit="10" stroke-width="1"/>
      <path id="Path_159" data-name="Path 159" d="M5.594,39.014s2.438,3.048,3.658,3.658,5.486.61,7.315.61,6.1,1.219,12.192-3.658S37.9,30.48,37.9,24.994s0-10.363-1.829-12.8a86.88,86.88,0,0,0-6.706-7.315C28.149,3.658,17.176,0,15.347,0a7.417,7.417,0,0,0-6.1,3.048C7.422,5.486-.1,15.985,0,21.708S1.936,35.357,3.155,35.966,5.594,39.014,5.594,39.014Z" transform="translate(269.433 145.221)" fill="none" stroke="#000" stroke-miterlimit="10" stroke-width="1"/>
      <path id="Path_160" data-name="Path 160" d="M0,37.322a.466.466,0,0,1,.256.1c.658.466,1.725,2.334,2.792,2.334,1.219,0,5.928,1.219,11.5-1.219s12.276-6.706,13.5-12.8,0-14.63-1.829-16.459S20.237,1.743,13.166.939,3.753-.695,2.791.939,2.573,3.331,4.639,2.953s8.772,1.45,11.82,3.889,6.706,4.267,6.706,9.144,1.219,6.1-1.219,10.363-5,6.937-7.679,8.041A37.9,37.9,0,0,1,4.639,36.6c-2.2.11-4.639-.922-4.639-.1Z" transform="translate(276.855 147.524)" fill="none" stroke="#000" stroke-miterlimit="10" stroke-width="1"/>
      <path id="Path_161" data-name="Path 161" d="M.393,15.065a53.17,53.17,0,0,0,7.657,4.246c1.829.61,10.043,1.356,11.117.678s14.486-3.726,15.1-4.335,3.048-3.048,1.219-6.1-8.267-7.795-9.315-8.164-5.925-2.2-8.973-.98L11.1,2.852S1.254,8.262.384,10.129.393,15.065.393,15.065Z" transform="translate(223.086 73.485)" fill="none" stroke="#000" stroke-miterlimit="10" stroke-width="1"/>
      <path id="Path_162" data-name="Path 162" d="M1.412,7.372A23.334,23.334,0,0,0,8.117,10.42a39.249,39.249,0,0,0,11.948,0c3.292-.61,6.668-3.048,2.237-5.486S9.336,1.276,9.336,1.276A8.475,8.475,0,0,1,14.485.245C17.261.666,19.7-1.772,24.576,3.1s3.658,9.754-1.829,10.973-13.716,1.709-16.307.55S-1.027,10.917.192,9.144Z" transform="translate(226.676 75.671)" fill="none" stroke="#000" stroke-miterlimit="10" stroke-width="1"/>
      <path id="Path_163" data-name="Path 163" d="M53.531,25.6c0-1.219,0-10.363-.61-10.973S45,6.1,43.777,6.1s-3.048,0-1.829,1.829,1.634,5.93-.4,4.489S27.927,6.706,27.927,6.706s-6.1-1.219-7.315-2.438-3.877-1.219-2.853,0-3.243,2.438-4.462.61S1.715,0,1.105,0-.5,1.565.3,3.526,1.715,14.021,2.934,15.24,10.859,25.6,11.468,26.213s7.845,3.669,7.58,3.663,8.27,2.433,9.489,2.433,10.973.61,12.8.61,7.925-1.829,9.144-3.048A30.484,30.484,0,0,0,53.531,25.6Z" transform="translate(273.312 59.878)" fill="none" stroke="#000" stroke-miterlimit="10" stroke-width="1"/>
      <path id="Path_164" data-name="Path 164" d="M4.331,12.764C3.111,12.155-1.506,4.117.5,2.954S7.988-1.474,17.437.768,34.682,4.833,35.355,5.446s6.217,4.88,5.579,7.318-2.466,4.267-6.124,5.486-9.754.61-9.754.61-9.144-.61-10.363-1.219S6.769,15.2,5.55,13.983L4.331,12.764" transform="translate(283.497 72.717)" fill="none" stroke="#000" stroke-miterlimit="10" stroke-width="1"/>
      <path id="Path_165" data-name="Path 165" d="M30.724,14.021s3.048,0,3.048-2.438S31.943,6.1,25.237,4.267,13.655,0,10.607,0,1.159.148.092.683,7.559,1.219,10,1.829s8.534,1.219,13.411,4.877A33.7,33.7,0,0,1,30.724,14.021Z" transform="translate(286.975 75.118)" fill="none" stroke="#000" stroke-miterlimit="10" stroke-width="1"/>
      <path id="Path_166" data-name="Path 166" d="M1.219,15.9c.61,0,4.267-5.486,6.1-5.486S12.8,8.581,10.973,6.753,6.064-.563,4.251.047.61.047.61,2.485,0,13.458,0,14.068s0,4.267.61,3.048Z" transform="translate(329.281 92.749)" fill="none" stroke="#000" stroke-miterlimit="10" stroke-width="1"/>
      <path id="Path_167" data-name="Path 167" d="M0,25.386c.679-.824,7.385-7.53,9.823-8.139s27.56-1.181,32.678-3.639S61.029-1.651,61.639.178s-4.877,9.754-12.192,15.85S36.036,26.391,31.769,27.61s-16.606,5.283-20.8,3.861-8.978-1.83-9.329-3.15A10.273,10.273,0,0,0,0,25.386Z" transform="translate(299.341 181.619)" fill="none" stroke="#000" stroke-miterlimit="10" stroke-width="1"/>
      <path id="Path_168" data-name="Path 168" d="M0,4.007C.755,3.939,16,2.11,20.262,1.5s13.539-3.048,9.513,0-9.043,2.763-13.24,4.734S9.771,7.7,6.787,7.954,0,4.007,0,4.007Z" transform="translate(312.066 197.975)" fill="none" stroke="#000" stroke-miterlimit="10" stroke-width="1"/>
      <path id="Path_169" data-name="Path 169" d="M1.632,51.614c-.168-.653,10.148-7.265,14.134-7.921a82.432,82.432,0,0,1,11.91-.657c2.438,0,10.363,2.438,10.973,3.048a6.4,6.4,0,0,0,1.909,1.076s5.406-14.487,6.626-16.926,4.267-7.315,1.829-6.1-4.267,4.267-6.706,4.267H39.259s-6.706-.61-7.315-1.829-5.486-7.315-5.486-7.925,6.1-8.534,6.706-9.144S37.43,8.9,41.087,7.68s6.1-3.658,6.706-4.877,3.048-4.877-3.658-1.219S31.943,7.07,30.724,7.07,22.19,5.851,20.97,8.9,15,24.427,14.328,25.807,7.189,37.245,7.189,37.245L.45,47.632s-1.013-.335,0,1.8l1.013,2.137" transform="translate(352.201 150.343)" fill="none" stroke="#000" stroke-miterlimit="10" stroke-width="1"/>
      <path id="Path_170" data-name="Path 170" d="M.221,11.564c-.61-.61,1.219-3.658.61-4.267S-.746,5.2.957,4.419,14.742.02,16.626,0,32.06,1.857,33.21,2.748s0,7.965,0,7.965S20.4,5.487,20.066,5.782,7.536,10.344,6.317,10.344A52.8,52.8,0,0,0,.221,11.564Z" transform="translate(357.101 195.227)" fill="none" stroke="#000" stroke-miterlimit="10" stroke-width="1"/>
      <path id="Path_171" data-name="Path 171" d="M1.205,7.173c.147-.467,6.852-2.905,8.681-2.905s4.877-1.829,4.267-3.048L13.544,0S8.058,1.219,8.058,1.829,6.229,3.048,5.01,3.048,1.058,4.354,1.205,4.92c0,0-1.682-.043-1.072.566A6.442,6.442,0,0,1,1.205,7.173Z" transform="translate(359.018 197.037)" fill="none" stroke="#000" stroke-miterlimit="10" stroke-width="1"/>
      <path id="Path_172" data-name="Path 172" d="M0,23.165c.831-.61,5.1-4.877,7.536-4.877s6.706-1.219,6.706-3.048S13.633,0,13.633,0s-.61,0-3.048,4.267S7.536,9.754,6.317,11.582.831,17.069.831,18.288A38.559,38.559,0,0,1,0,23.165Z" transform="translate(357.101 173.873)" fill="none" stroke="#000" stroke-miterlimit="10" stroke-width="1"/>
      <path id="Path_173" data-name="Path 173" d="M0,14.148c.61,0,3.658,4.267,4.267,4.877s2.712.9,5.319,1.059,5.654-1.669,8.092-2.278S18.9,9.271,18.9,8.052s.61-9.144,0-7.925-4.877,3.658-6.706,3.658S6.1,5,5.486,5.613,0,10.184,0,11.252Z" transform="translate(380.487 156.067)" fill="none" stroke="#000" stroke-miterlimit="10" stroke-width="1"/>
      <path id="Path_174" data-name="Path 174" d="M0,4.014,2.438,6.452A4.961,4.961,0,0,0,6.775,8.281a13.74,13.74,0,0,0,7.6-2.134c2.082-1.524.253-3.353,1.472-5.182s-1.049-.61-3.267,0-7.1,1.829-7.705,1.829H3.658S1.219,1.576.61,2.795L0,4.014" transform="translate(381.706 165.592)" fill="none" stroke="#000" stroke-miterlimit="10" stroke-width="1"/>
      <path id="Path_175" data-name="Path 175" d="M0,5.945S3.477,7.062,5.4,6.2s4.967-.863,6.8-2.082,3.731-4.5,1.561-4.079S8.625,1.527,7.361,1.6A12.976,12.976,0,0,0,3.048,2.9C1.829,3.507,0,4.543,0,5.244Z" transform="translate(384.144 159.393)" fill="none" stroke="#000" stroke-miterlimit="10" stroke-width="1"/>
      <path id="Path_176" data-name="Path 176" d="M1.288,126.119s2.438-12.192,4.267-14.63S28.11,90.153,28.72,89.543,50.665,73.084,52.494,72.475s10.973-3.658,11.582-6.1,10.973-27.432,12.8-30.48S90.9,14.563,92.118,13.343s9.144-11.582,8.534-12.8-1.956,0-5.245,0S77.488,2.98,76.268,3.59,62.248,10.3,61.638,11.515,51.308,31.309,50.986,32.69s-7.027,15.4-8.856,15.4S25.79,63.06,25.79,63.06,12.26,80.4,11.651,81.009,4.633,95.123,4.789,96.3s-3.5,16.454-3.5,16.454S-.452,125.51.113,126.119s1.175,1.219,1.175.61Z" transform="translate(391.391 97.74)" fill="none" stroke="#000" stroke-miterlimit="10" stroke-width="1"/>
      <path id="Path_177" data-name="Path 177" d="M2.812,98.827c1.28-.123,12.5-11.612,14.326-13.44S36.89,74.414,38.9,73.195,54.323,61,56.761,56.736,72,26.865,73.221,23.208,80.536,5.529,80.536,5.529s.609-6.1-.61-5.486S72,3.7,70.782,3.7,59.2,7.358,58.59,8.577,53.713,17.721,53.1,18.94s-5.486,13.411-6.1,14.63-4.267,8.534-5.486,9.754-7.315,6.1-7.925,6.706-8.534,7.925-8.534,7.925L17.138,67.1s-5.486,6.706-6.1,7.315-4.877,7.315-4.877,7.315S2.507,88.906,2.812,89.28s-3.353,7.079-2.743,8.3S2.507,98.856,2.812,98.827Z" transform="translate(396.877 100.678)" fill="none" stroke="#000" stroke-miterlimit="10" stroke-width="1"/>
      <path id="Path_178" data-name="Path 178" d="M0,63.4c.61,0,10.363-3.658,11.583-4.267a3.626,3.626,0,0,0,2.354-2.882c.085-1.385.519-3.7,1.521-3.458s5.269-5.852,8.927-18.654,8.534-30.48,8.534-30.48S33.528,0,32.309,0s-3.048,1.219-4.267,3.658-7.925,21.336-9.754,23.774S10.973,38.4,9.754,39.014.61,44.5.61,45.72,0,63.4,0,63.4Z" transform="translate(426.816 109.865)" fill="none" stroke="#000" stroke-miterlimit="10" stroke-width="1"/>
      <path id="Path_179" data-name="Path 179" d="M0,25.284V23.355c0-1.119,2.438-1.729,3.048-4.167S4.877,9.434,5.486,8.825L14.021.29C15.85-1.539,15.24,5.777,15.85,8.215a8.119,8.119,0,0,1-4.267,8.534,29.411,29.411,0,0,0-7.315,4.877c-1.219,1.219-2.713,3.658-3.49,3.658Z" transform="translate(408.528 161.39)" fill="none" stroke="#000" stroke-miterlimit="10" stroke-width="1"/>
      <path id="Path_180" data-name="Path 180" d="M0,17.7c.61,0,4.877-4.267,5.487-4.877s-.61-.61,1.219-3.658a47.826,47.826,0,0,0,3.436-8.075s-.831.8,0-.44S7.925.02,7.315,1.848,6.627,5.394,5.142,6.669.619,10.992,1.529,11.6,0,13.546,0,14.708Z" transform="translate(400.604 175.072)" fill="none" stroke="#000" stroke-miterlimit="10" stroke-width="1"/>
      <path id="Path_181" data-name="Path 181" d="M2.1,78.763c0-.61,7.315-8.534,9.144-10.363s8.534-9.754,9.144-9.754,8.534-7.925,9.754-8.534,7.925-12.8,7.925-12.8L48.429,15.364s1.829-3.048,1.829-4.267-1.219-1.219-1.219-1.829,2.438-2.438.61-3.658-5.486-4.267-6.706-4.267S34.409-.485,33.189.124,26.343,2.7,24.584,3.85,16.121,9.878,15.511,11.1s-4.267,2.438-4.877,2.438-.609,0-1.829,1.219-5.486,4.877-6.1,9.144S1.256,35.159,1.678,36.539s1.562,2.415,1.3,4.946S.881,45.235.881,46.454s-.61,14.63-.61,14.63-.61,16.02,0,16.544A11.462,11.462,0,0,0,2.1,78.763Z" transform="translate(402.771 93.891)" fill="none" stroke="#000" stroke-miterlimit="10" stroke-width="1"/>
      <path id="Path_182" data-name="Path 182" d="M59.176,21.4s.744,2.371,2.573,1.152,2.438,1.219,3.048,1.219S94.057,15.24,94.057,15.24l-1.219-1.219c-.61-.61.61-1.887,1.219-3.077s-.609-3.628-3.048-3.628A74.685,74.685,0,0,1,79.427,6.1c-2.438-.61-10.363-3.048-11.583-3.658A51.629,51.629,0,0,0,57.482,0c-1.829,0-9.6,1.792-10.9,2.725s-9.22,5.2-9.22,5.2L25.782,15.85l-9.838,7.925s-6.09,7.031-6.965,7.783S2.1,40.18,2.1,40.18-.568,42.26.11,43.686,4.456,61.359,5.366,61.159,8.1,60.35,7.494,59.131,6.275,48.768,6.885,45.72s2.438-9.144,3.048-9.754,6.1-5.486,6.706-6.1,3.048-1.219,4.267-3.048a27.585,27.585,0,0,1,5.67-5.419c.426-.068,7.131-3.725,8.96-4.335s6.705-1.219,8.534-.61S52.6,18.288,52.6,18.288a17.065,17.065,0,0,0,3.728,2.174A24.783,24.783,0,0,1,59.176,21.4Z" transform="translate(396.767 76.337)" fill="none" stroke="#000" stroke-miterlimit="10" stroke-width="1"/>
      <path id="Path_183" data-name="Path 183" d="M9.75,15.116c-.68-.485-3.728-2.924-5.557-2.924S.078,12.326,0,8.3,2.364,0,4.193,0s15.85,3.658,20.726,4.267S42.6,6.706,39.549,7.925,29.8,9.754,27.357,10.973s-12.192,5.486-14.021,5.486A6.917,6.917,0,0,1,9.75,15.116Z" transform="translate(443.35 78.775)" fill="none" stroke="#000" stroke-miterlimit="10" stroke-width="1"/>
      <path id="Path_184" data-name="Path 184" d="M0,62.789c.61-.61,7.084-4.238,7.5-6.386S7.925,37.8,9.144,35.966,18.587,26.5,20.267,25.442s13.261-12.031,8.384-2.277-5.486,15.85-7.315,15.24-1.829-4.267-2.438-4.877-2.438.61-3.048,1.829-1.248.357-.929,4.141.319,9.27,1.539,8.051,12.8-7.315,12.192-8.534,7.89-16.893,8.821-19.115S44.5,5.486,45.11,3.658,46.939,0,46.33,0a17.361,17.361,0,0,0-6.718,1.929C35.966,3.658,25.77,10.074,23.248,12.352S10.973,23.165,9.754,24.384,2.36,32.295,1.484,33.825.61,42.062.61,42.062L0,57.668Z" transform="translate(404.261 104.988)" fill="none" stroke="#000" stroke-miterlimit="10" stroke-width="1"/>
      <path id="Path_185" data-name="Path 185" d="M.143,35.362c1.288-1.058,11.042-8.983,11.651-9.593s6.246-4.085,6.246-4.085,11.516-9.125,12.694-9.835,10.931-4.368,12.15-4.368,3.441-.7,2.025-1.871a52.929,52.929,0,0,0-6.292-4.225C37.4.776,28.494-.443,27.459.166s-7.131,3.931-7.131,4.1-4.267,3.216-4.877,3.826-3.195,2.64-2.512,3.758,4.031-.71,5.1-1.929-1.07-1.728,0-2.083,5.337-4.013,5.946-3.4,4.877,1.219,3.048,3.048-12.8,9.144-12.8,9.144S9.265,20.565,8.7,17.681,5.68,13.577,5.385,14.8s-3.954,4.877-3.954,4.877-1.967,3.8-1.288,5.251S.143,35.362.143,35.362Z" transform="translate(406.488 95.068)" fill="none" stroke="#000" stroke-miterlimit="10" stroke-width="1"/>
      <path id="Path_186" data-name="Path 186" d="M.946,48.741s3.155-2.8,4.983-4.633S15.073,33.135,16.9,28.258,22.389,8.751,22.389,8.751,27.875-1.612,26.656.216,22.389,5.093,19.95,8.141,14.913,18.38,13.47,19.357s-6.321,10.73-6.321,10.73S.209,43.8.021,45.477A5.442,5.442,0,0,0,.946,48.741Z" transform="translate(458.072 113.915)" fill="none" stroke="#000" stroke-miterlimit="10" stroke-width="1"/>
    </g>
  </g>
</svg>
