<svg xmlns="http://www.w3.org/2000/svg" width="203" height="68" viewBox="0 0 203 68">
  <g id="Group_47" data-name="Group 47" transform="translate(-932 -661)">
    <g id="Rectangle_37" data-name="Rectangle 37" transform="translate(936 729) rotate(-90)" fill="none" stroke="#de007e" stroke-width="2">
      <rect width="64" height="199" rx="4" stroke="none"/>
      <rect x="1" y="1" width="62" height="197" rx="3" fill="none"/>
    </g>
    <rect id="Rectangle_38" data-name="Rectangle 38" width="64" height="199" rx="4" transform="translate(932 725) rotate(-90)" fill="#fff"/>
    <text id="Powered_By" data-name="Powered By" transform="translate(1007 677)" fill="#de007e" font-size="8" font-family="NeueMachina-Ultrabold, Neue Machina" font-weight="700"><tspan x="0" y="0">Powered By</tspan></text>
    <g id="Group_45" data-name="Group 45" transform="translate(11 31)">
      <g id="Group_41" data-name="Group 41" transform="translate(939 657)">
        <path id="Path_209" data-name="Path 209" d="M90.46,194a.543.543,0,1,0,.511.573A.543.543,0,0,0,90.46,194Z" transform="translate(-89.887 -182.994)"/>
        <path id="Path_210" data-name="Path 210" d="M151.69,185.143a1.683,1.683,0,0,0,1.582,1.773l.1,0a1.68,1.68,0,1,0-1.678-1.775Z" transform="translate(-144.854 -173.705)"/>
        <path id="Path_211" data-name="Path 211" d="M90.46,194a.543.543,0,1,0,.511.573A.543.543,0,0,0,90.46,194Z" transform="translate(-89.887 -182.994)"/>
        <path id="Path_212" data-name="Path 212" d="M144.413,101.47a.543.543,0,1,0-.729-.241A.543.543,0,0,0,144.413,101.47Z" transform="translate(-137.683 -99.779)"/>
        <path id="Path_213" data-name="Path 213" d="M156.37,123.838a.839.839,0,1,0-1.127-.372A.839.839,0,0,0,156.37,123.838Z" transform="translate(-147.937 -119.174)"/>
        <path id="Path_214" data-name="Path 214" d="M111.788,144.889a.691.691,0,1,0-.2-.957A.691.691,0,0,0,111.788,144.889Z" transform="translate(-109.089 -138.183)"/>
        <path id="Path_215" data-name="Path 215" d="M116.4,191.262a.839.839,0,1,0,.79.886A.839.839,0,0,0,116.4,191.262Z" transform="translate(-112.678 -180.555)"/>
        <path id="Path_216" data-name="Path 216" d="M112.072,241.675a.691.691,0,1,0,.928.306A.691.691,0,0,0,112.072,241.675Z" transform="translate(-109.281 -225.33)"/>
        <path id="Path_217" data-name="Path 217" d="M141.025,161.011a.987.987,0,1,0-.284-1.367A.987.987,0,0,0,141.025,161.011Z" transform="translate(-134.975 -152.038)"/>
        <path id="Path_218" data-name="Path 218" d="M235.119,123.613a.839.839,0,1,0-.241-1.162A.839.839,0,0,0,235.119,123.613Z" transform="translate(-218.724 -119.017)"/>
        <path id="Path_219" data-name="Path 219" d="M251.764,101.2a.543.543,0,1,0-.157-.752A.543.543,0,0,0,251.764,101.2Z" transform="translate(-233.647 -99.567)"/>
        <path id="Path_220" data-name="Path 220" d="M225.081,183.406a1.68,1.68,0,0,0-.191,3.354l.1,0a1.68,1.68,0,0,0,.094-3.357Z" transform="translate(-208.554 -173.567)"/>
        <path id="Path_221" data-name="Path 221" d="M169.708,154.945a1.672,1.672,0,0,0,1.5.924,1.68,1.68,0,0,0,1.5-2.436,1.672,1.672,0,0,0-1.5-.924,1.68,1.68,0,0,0-1.5,2.436Z" transform="translate(-160.722 -146.089)"/>
        <path id="Path_222" data-name="Path 222" d="M282.186,144.554a.691.691,0,1,0-.928-.306A.692.692,0,0,0,282.186,144.554Z" transform="translate(-260.033 -137.849)"/>
        <path id="Path_223" data-name="Path 223" d="M247.347,159.068a.987.987,0,1,0,1.326.437A.987.987,0,0,0,247.347,159.068Z" transform="translate(-229.454 -151.828)"/>
        <path id="Path_224" data-name="Path 224" d="M196.874,95.823a.691.691,0,1,0-.651-.729A.691.691,0,0,0,196.874,95.823Z" transform="translate(-184.465 -94.442)"/>
        <path id="Path_225" data-name="Path 225" d="M194.556,130.388a.988.988,0,1,0-.93-1.042A.988.988,0,0,0,194.556,130.388Z" transform="translate(-182.154 -124.658)"/>
        <path id="Path_226" data-name="Path 226" d="M142.146,222.4a.987.987,0,1,0-1.326-.438A.988.988,0,0,0,142.146,222.4Z" transform="translate(-135.094 -206.585)"/>
        <path id="Path_227" data-name="Path 227" d="M205.612,153.188a1.679,1.679,0,1,0,1.406-.759A1.682,1.682,0,0,0,205.612,153.188Z" transform="translate(-192.572 -146.017)"/>
        <path id="Path_228" data-name="Path 228" d="M208.643,215.373a1.68,1.68,0,1,0-.744,2.256A1.672,1.672,0,0,0,208.643,215.373Z" transform="translate(-192.683 -201.18)"/>
        <path id="Path_229" data-name="Path 229" d="M248.468,220.454a.987.987,0,1,0,.284,1.367A.988.988,0,0,0,248.468,220.454Z" transform="translate(-229.574 -206.378)"/>
        <path id="Path_230" data-name="Path 230" d="M276.361,191.795a.839.839,0,1,0-.886.79A.839.839,0,0,0,276.361,191.795Z" transform="translate(-254.251 -180.241)"/>
        <path id="Path_231" data-name="Path 231" d="M306.245,193.526a.543.543,0,1,0,.511.573A.544.544,0,0,0,306.245,193.526Z" transform="translate(-281.812 -182.57)"/>
        <path id="Path_232" data-name="Path 232" d="M282.471,241.34a.691.691,0,1,0,.2.957A.691.691,0,0,0,282.471,241.34Z" transform="translate(-260.226 -224.997)"/>
        <path id="Path_233" data-name="Path 233" d="M144.878,287.411a.543.543,0,1,0,.156.752A.543.543,0,0,0,144.878,287.411Z" transform="translate(-138.05 -265.995)"/>
        <path id="Path_234" data-name="Path 234" d="M252.231,287.143a.543.543,0,1,0,.73.24A.543.543,0,0,0,252.231,287.143Z" transform="translate(-234.015 -265.785)"/>
        <path id="Path_235" data-name="Path 235" d="M172.742,217.13a1.68,1.68,0,1,0-1.406.759A1.669,1.669,0,0,0,172.742,217.13Z" transform="translate(-160.836 -201.251)"/>
        <path id="Path_236" data-name="Path 236" d="M156.758,260.232a.839.839,0,1,0,.242,1.162A.839.839,0,0,0,156.758,260.232Z" transform="translate(-148.208 -241.778)"/>
        <path id="Path_237" data-name="Path 237" d="M196.742,290.4a.691.691,0,1,0,.651.729A.691.691,0,0,0,196.742,290.4Z" transform="translate(-184.278 -268.737)"/>
        <path id="Path_238" data-name="Path 238" d="M194.3,251.074a.987.987,0,1,0,.93,1.042A.987.987,0,0,0,194.3,251.074Z" transform="translate(-181.823 -233.754)"/>
        <path id="Path_239" data-name="Path 239" d="M235.5,260.008a.839.839,0,1,0,1.127.372A.839.839,0,0,0,235.5,260.008Z" transform="translate(-218.993 -241.621)"/>
      </g>
      <g id="Group_44" data-name="Group 44" transform="translate(969.952 661)">
        <path id="Path_240" data-name="Path 240" d="M5114.925,3445.917c.123-.071.227-.17.342-.252,2.32-1.65,2.334-5.452,1.23-7.429a5.016,5.016,0,0,0-4.729-2.542c-3.478-.03-6.956,0-10.434-.027-.539,0-.666.148-.663.673q.031,6.992,0,13.983c0,.462.063.707.607.644a5.915,5.915,0,0,1,1.347.007c.6.068.75-.152.746-.739-.027-3.738-.015-7.476-.019-11.214,0-.358-.076-.677.514-.669,2.554.035,5.111.01,7.666.021a3.317,3.317,0,0,1,1.39.2c1.338.6,1.874,1.818,1.558,3.552a2.407,2.407,0,0,1-2.581,2.206c-1.633.046-3.267.022-4.9.024-1.772,0-1.755,0-1.721,1.795.008.467.151.6.613.593,1.514-.026,3.029.005,4.542-.016a1.084,1.084,0,0,1,.918.4c1.034,1.162,2.093,2.3,3.137,3.451.144.158.261.379.487.382,1.173.014,2.346.006,3.52.006.03-.065.062-.129.093-.194q-1.894-1.844-3.787-3.689C5114.107,3446.4,5114.107,3446.4,5114.925,3445.917Z" transform="translate(-5062.097 -3435.458)"/>
        <path id="Path_241" data-name="Path 241" d="M5252.622,3440.224c-1.13-2.964-3.632-4.516-7.064-4.529-2.7-.01-5.4.017-8.092-.013-.5-.005-.59.15-.586.594.018,2.342.008,4.684.008,7.027,0,2.318.016,4.637-.012,6.956-.007.542.112.741.695.733,2.532-.03,5.063-.01,7.6-.015a9.467,9.467,0,0,0,2.8-.329C5252.487,3449.259,5254.145,3444.215,5252.622,3440.224Zm-2.184,3.833a4.7,4.7,0,0,1-4.7,4.23c-1.869.019-3.738-.005-5.607.018-.461.006-.61-.126-.6-.6.032-1.466.011-2.933.011-4.4,0-1.444.013-2.887-.008-4.329-.007-.437.064-.618.574-.607,1.8.037,3.6,0,5.393.016A4.778,4.778,0,0,1,5250.438,3444.058Z" transform="translate(-5178.958 -3435.472)"/><path id="Path_242" data-name="Path 242" d="M5642.844,3441.165a6.763,6.763,0,0,0-6.367-5.389c-1.582-.12-3.166-.046-4.749-.052a6.738,6.738,0,0,0-1.542.176,6.919,6.919,0,0,0-5.641,6.414,7.639,7.639,0,0,0,5.247,8.387,14.386,14.386,0,0,0,4.01.294c.59,0,1.182.005,1.772,0a7.151,7.151,0,0,0,4.66-1.561A7.779,7.779,0,0,0,5642.844,3441.165Zm-2.422,2.267a4.729,4.729,0,0,1-4.652,4.877c-.685.029-1.37,0-2.056.005a8.461,8.461,0,0,1-4.021-.542,5.087,5.087,0,0,1-2.38-5.632,4.488,4.488,0,0,1,4.089-3.683,36.126,36.126,0,0,1,4.743,0A4.607,4.607,0,0,1,5640.422,3443.432Z" transform="translate(-5511.525 -3435.493)"/>
        <path id="Path_243" data-name="Path 243" d="M5513.5,3434.626c-.385-.372-1.174-.051-1.777-.123-.568-.068-.66.185-.658.684.018,3.192.012,6.385,0,9.577,0,.214.182.525-.1.637-.253.1-.392-.223-.539-.368q-5.038-4.965-10.035-9.965a1.563,1.563,0,0,0-1.709-.524c-.729.247-.844.886-.869,1.55-.009.236,0,.473,0,.709q0,5.6,0,11.208c0,.606-.213,1.427.093,1.765.374.41,1.21.071,1.841.142.5.056.633-.12.628-.622-.024-3.027-.011-6.053-.011-9.08v-1.38c2.6,2.583,5.087,5.045,7.565,7.515,1.063,1.061,2.1,2.149,3.169,3.205a1.5,1.5,0,0,0,1.737.423,1.38,1.38,0,0,0,.785-1.452c0-.189,0-.378,0-.567,0-3.854.009-7.709,0-11.563C5513.625,3435.792,5513.893,3435,5513.5,3434.626Z" transform="translate(-5402.781 -3434.409)"/>
        <path id="Path_244" data-name="Path 244" d="M4958.932,3435.346c-.9-1.5-1.993-1.534-2.881-.059q-2.966,4.922-5.917,9.854l-2.738,4.56c1.039,0,1.954-.012,2.868.008.264.006.3-.179.392-.329q1.389-2.344,2.771-4.692,1.833-3.106,3.673-6.208c.091-.152.183-.6.446-.167,1.062,1.741,2.092,3.5,3.194,5.36-1.425,0-2.743,0-4.061,0-.275,0-.572-.062-.75.258-.341.611-.7,1.213-1.046,1.818.246.2.493.118.718.118,1.963.007,3.927.013,5.891-.007a.821.821,0,0,1,.84.474c.577,1.029,1.214,2.024,1.8,3.047.106.185.2.315.41.317.987,0,1.976,0,3.073,0a3.406,3.406,0,0,1-.247-.3Q4963.149,3442.375,4958.932,3435.346Z" transform="translate(-4930.587 -3434.201)"/>
        <path id="Path_245" data-name="Path 245" d="M5353.8,3435.333q-1.37,2.306-2.752,4.6c-1.947,3.243-3.9,6.484-5.912,9.84a11.932,11.932,0,0,1,1.624.012,1.987,1.987,0,0,0,2.243-1.29c1.872-3.344,3.866-6.62,5.824-9.916.089-.148.186-.656.481-.173,1,1.627,1.969,3.274,2.951,4.913.174.289.133.424-.237.418a15.856,15.856,0,0,1-2.269-.02,2.372,2.372,0,0,0-2.911,1.7c-.213.539-.106.524.342.521,2.011-.014,4.021-.011,6.032,0,.284,0,.576-.076.782.3.494.909,1.117,1.75,1.57,2.677a1.35,1.35,0,0,0,1.544.871c.7-.072,1.415-.016,2.223-.016-2.979-4.939-5.856-9.707-8.729-14.479C5355.789,3433.933,5354.629,3433.944,5353.8,3435.333Z" transform="translate(-5271.849 -3434.271)"/>
        <path id="Path_246" data-name="Path 246" d="M4836.79,3438.4c1.964.022,3.929.015,5.894,0,.653-.006,1.523.292,1.9-.125.4-.444.066-1.31.126-1.988.037-.429-.106-.579-.552-.575-2.721.023-5.442-.01-8.164.036a7.085,7.085,0,0,0-6.956,7.106,7.466,7.466,0,0,0,6.347,8.065,35.571,35.571,0,0,0,4.3.087c1.165,0,2.087,0,3.01,0,.636,0,1.468.213,1.854-.1.45-.37.081-1.24.164-1.886.07-.548-.112-.714-.69-.707-2.6.031-5.206.023-7.809-.007a4.143,4.143,0,0,1-3.1-1.343,5.132,5.132,0,0,1-.989-5.673A4.491,4.491,0,0,1,4836.79,3438.4Z" transform="translate(-4829.031 -3435.498)"/>
      </g>
    </g>
  </g>
</svg>