<svg xmlns="http://www.w3.org/2000/svg" xmlns:xlink="http://www.w3.org/1999/xlink" width="319" height="69" viewBox="0 0 319 69">
  <defs>
    <clipPath id="clip-path">
      <rect id="Rectangle_181" data-name="Rectangle 181" width="46.224" height="46.224" fill="none"/>
    </clipPath>
  </defs>
  <g id="Group_239" data-name="Group 239" transform="translate(-1000 -905)">
    <g id="Group_221" data-name="Group 221" transform="translate(-167)">
      <g id="Rectangle_176" data-name="Rectangle 176" transform="translate(1170 974) rotate(-90)" fill="none" stroke="#ecbd00" stroke-width="4">
        <rect width="61" height="316" rx="4" stroke="none"/>
        <rect x="2" y="2" width="57" height="312" rx="2" fill="none"/>
      </g>
      <rect id="Rectangle_177" data-name="Rectangle 177" width="297" height="51" transform="translate(1167 905)" fill="#f8f7f4"/>
      <text id="Built_On" data-name="Built On" transform="translate(1423 918)" fill="#292929" font-size="13" font-family="MontserratAlternates-ExtraBold, Montserrat Alternates" font-weight="800"><tspan x="-28.58" y="0">Built On</tspan></text>
    </g>
    <g id="Group_234" data-name="Group 234" transform="translate(7071.737 -2602.483)">
      <text id="HederaHashgraph" transform="translate(-5968.474 3550.213)" font-size="21" font-family="Helvetica-Bold, Helvetica" font-weight="700"><tspan x="0" y="0">Hedera</tspan><tspan y="0" font-family="Helvetica" font-weight="400">Hashgraph</tspan></text>
      <g id="Group_231" data-name="Group 231" transform="translate(-6030 3518.871)">
        <g id="Group_230" data-name="Group 230" transform="translate(0 0)" clip-path="url(#clip-path)">
          <path id="Path_672" data-name="Path 672" d="M23.112.066A23.112,23.112,0,1,0,39.455,6.835,23.115,23.115,0,0,0,23.112.066" transform="translate(0 -0.066)"/>
          <path id="Path_673" data-name="Path 673" d="M33.307,33.925H30.372v-6.24H17.453v6.24H14.517V13.69h2.936v6.09h12.92V13.69h2.935ZM17.591,25.35H30.51V22.126H17.591Z" transform="translate(-0.8 -0.817)" fill="#fff"/>
        </g>
      </g>
    </g>
  </g>
</svg>
