<svg xmlns="http://www.w3.org/2000/svg" width="151" height="40" viewBox="0 0 151 40">
  <g id="Group_234" data-name="Group 234" transform="translate(-187 -737)">
    <g id="Rectangle_46" data-name="Rectangle 46" transform="translate(192 777) rotate(-90)" fill="none" stroke="#ecbd00" stroke-width="2">
      <rect width="35" height="146" rx="4" stroke="none"/>
      <rect x="1" y="1" width="33" height="144" rx="3" fill="none"/>
    </g>
    <rect id="Rectangle_47" data-name="Rectangle 47" width="32" height="137" rx="4" transform="translate(187 770) rotate(-90)" fill="#f8f7f4"/>
    <text id="Incubated_By" data-name="Incubated By" transform="translate(262 745)" fill="#2d1000" font-size="8" font-family="MontserratAlternates-Bold, Montserrat Alternates" font-weight="700"><tspan x="0" y="0">Incubated By</tspan></text>
    <g id="Group_48" data-name="Group 48" transform="translate(-465.086 62.584)">
      <g id="Group_39" data-name="Group 39" transform="translate(699.659 691.85)">
        <path id="Path_196" data-name="Path 196" d="M4001.263,4182.647a1.862,1.862,0,0,0-1.908-1.838c-.546-.012-1.091-.006-1.637,0-2.9.028-2.291-.294-4.406,1.819a4.01,4.01,0,0,0-1.277,2.907,1.035,1.035,0,0,1-1.064,1.13,1.023,1.023,0,0,1-1.035-1.1,3.9,3.9,0,0,0-1.337-2.993c-.4-.37-.771-.772-1.155-1.16a1.947,1.947,0,0,0-1.468-.6c-1.017.01-2.033,0-3.049,0a1.952,1.952,0,0,0-2.221,2.211q0,4.009,0,8.015c0,1.513,0,1.5,1.5,1.481.385-.005.466-.139.463-.493-.016-1.579-.007-3.159-.007-4.74,0-1.524.011-3.048,0-4.572a1.3,1.3,0,0,1,2.351-.946q2.24,2.271,4.5,4.521a1.794,1.794,0,0,0,2.956-.019q2.3-2.294,4.589-4.592a1.246,1.246,0,0,1,1.479-.361,1.311,1.311,0,0,1,.777,1.373c-.009,2.784,0,5.57,0,8.354,0,1.607,0,1.6,1.625,1.47.277-.021.348-.126.348-.379C4001.274,4188.97,4001.295,4185.808,4001.263,4182.647Z" transform="translate(-3914.23 -4180.756)"/>
        <path id="Path_197" data-name="Path 197" d="M3848.844,4183c0-1.475-.689-2.155-2.185-2.155H3833.9q-.2,0-.4,0c-.141,0-.267.017-.261.208s.146.188.277.191c.15,0,.3,0,.451,0q4.939,0,9.877,0c.189,0,.4-.065.6.08-3.7,3.73-7.374,7.436-11.135,11.229.772,0,1.448-.022,2.121.01a1.233,1.233,0,0,0,.994-.4c2.116-2.088,4.217-4.191,6.388-6.22a4.935,4.935,0,0,0,1.8-3.673.969.969,0,0,1,.688-.937,1.143,1.143,0,0,1,1.614,1.126c.009,2.9,0,5.793,0,8.691,0,1.421,0,1.4,1.4,1.413.433,0,.529-.132.526-.544C3848.837,4189.016,3848.845,4186.005,3848.844,4183Z" transform="translate(-3783.431 -4180.791)"/>
        <path id="Path_198" data-name="Path 198" d="M3405.738,4180.836c-1.9,0-3.8,0-5.7,0-1.881,0-3.762,0-5.643,0a1.938,1.938,0,0,0-2.146,2.171q0,3.7,0,7.392a1.922,1.922,0,0,0,2.069,2.143q5.728.029,11.456,0a1.909,1.909,0,0,0,2.082-2.124q0-3.724,0-7.448A1.916,1.916,0,0,0,3405.738,4180.836Zm.175,9.8a1.334,1.334,0,0,1-1.531,1.513c-1.448,0-2.9,0-4.344,0s-2.9,0-4.345,0a1.327,1.327,0,0,1-1.5-1.494q-.012-3.976,0-7.955a1.319,1.319,0,0,1,1.506-1.483q4.344-.007,8.688,0a1.33,1.33,0,0,1,1.523,1.521Q3405.92,4186.688,3405.913,4190.638Z" transform="translate(-3392.248 -4180.785)"/>
        <path id="Path_199" data-name="Path 199" d="M3700.42,4188.408c-.371.008-.437.148-.427.469.02.583.017,1.167,0,1.75a1.217,1.217,0,0,1-1.23,1.279q-4.6.03-9.2,0a1.178,1.178,0,0,1-1.234-1.262q-.016-4.178,0-8.355a1.168,1.168,0,0,1,1.153-1.217c.207-.017.414-.018.621-.018l10.106-.03c.489,0,.979-.014,1.468-.021.141,0,.266-.022.264-.208s-.123-.214-.265-.217-.3,0-.452,0H3694.9c-2.126,0-4.253-.012-6.38,0a1.991,1.991,0,0,0-2.178,2.008q-.023,3.9,0,7.792a1.866,1.866,0,0,0,1.939,1.917c3.915.009,7.83,0,11.745,0a1.887,1.887,0,0,0,1.555-.773,2.409,2.409,0,0,0,.378-1.612C3701.95,4188.36,3701.955,4188.374,3700.42,4188.408Z" transform="translate(-3653.108 -4180.55)"/>
        <path id="Path_200" data-name="Path 200" d="M3553.291,4188.261c-.3.015-.388.109-.38.4q.025.9,0,1.806a1.237,1.237,0,0,1-1.279,1.295q-4.571.022-9.144,0a1.189,1.189,0,0,1-1.265-1.241q-.03-4.2,0-8.409a1.173,1.173,0,0,1,1.191-1.186c.281-.021.563-.019.846-.02q5.531-.025,11.062-.057c.18,0,.529.165.512-.215-.016-.351-.35-.2-.54-.2-1.035-.017-2.07-.007-3.1-.007-3.236,0-6.473-.008-9.709,0a1.993,1.993,0,0,0-2.226,2.231q0,3.7,0,7.395a1.89,1.89,0,0,0,2.093,2.093q2.85.006,5.7,0c1.939,0,3.876-.008,5.814,0a1.946,1.946,0,0,0,1.545-.678,2.4,2.4,0,0,0,.452-1.754C3554.851,4188.175,3554.86,4188.184,3553.291,4188.261Z" transform="translate(-3522.651 -4180.399)"/>
      </g>
      <path id="Path_201" data-name="Path 201" d="M3607.695,3865.192c-.99-3.372-1.884-6.771-2.81-10.161a7.651,7.651,0,0,0-.72-1.87,2.536,2.536,0,0,0-2.274-1.441q-6.73,0-13.461,0a2.423,2.423,0,0,0-1.991.989,4.546,4.546,0,0,0-.757,1.526q-1.7,5.613-3.4,11.225a1.673,1.673,0,0,0-.035.846,2.815,2.815,0,0,0,2.806,2.278q4.966.007,9.931,0,4.931,0,9.864,0a3.9,3.9,0,0,0,.754-.064A2.746,2.746,0,0,0,3607.695,3865.192Zm-22.421,1.721c-.111-.033-.113-.2-.147-.315a1.4,1.4,0,0,1,.018-.812q1.678-5.961,3.353-11.924a2.8,2.8,0,0,1,.4-.9,1.33,1.33,0,0,1,1.1-.626q4.915-.005,9.831,0a.779.779,0,0,1,.115.009c-1.146,1.183-2.28,2.4-3.458,3.565q-5.455,5.413-10.938,10.8C3585.464,3866.789,3585.394,3866.949,3585.274,3866.913Zm18.157,1.083a3.967,3.967,0,0,1-.494.021h-6.764q-3.5,0-6.993,0c-.169,0-.372.054-.457-.165s.1-.318.221-.435q4.728-4.6,9.462-9.2a5.808,5.808,0,0,0,1.7-3.725,7.741,7.741,0,0,1,.121-1.31c.086-.3.193-.662.507-.72s.533.252.716.5a2.688,2.688,0,0,1,.417.961c1.015,3.98,2.011,7.964,3.054,11.937A1.8,1.8,0,0,1,3603.431,3868Z" transform="translate(-2915.227 -3162.401)"/>
    </g>
  </g>
</svg>
