<svg xmlns="http://www.w3.org/2000/svg" width="285" height="77" viewBox="0 0 285 77">
  <g id="Group_56" data-name="Group 56" transform="translate(-998 -905)">
    <g id="Rectangle_36" data-name="Rectangle 36" transform="translate(1003 982) rotate(-90)" fill="none" stroke="#de007e" stroke-width="2">
      <rect width="68" height="280" rx="4" stroke="none"/>
      <rect x="1" y="1" width="66" height="278" rx="3" fill="none"/>
    </g>
    <rect id="Rectangle_35" data-name="Rectangle 35" width="59" height="261" rx="4" transform="translate(998 966) rotate(-90)" fill="#fff"/>
    <text id="Incubated_By" data-name="Incubated By" transform="translate(1194 920)" fill="#de007e" font-size="16" font-family="MontserratAlternates-ExtraBold, Montserrat Alternates" font-weight="800"><tspan x="-59.088" y="0">Incubated By</tspan></text>
    <g id="Group_42" data-name="Group 42" transform="translate(1023.203 934.161)">
      <g id="Group_39" data-name="Group 39" transform="translate(62.733 4.858)">
        <path id="Path_196" data-name="Path 196" d="M4020.173,4184.344a3.57,3.57,0,0,0-3.663-3.527c-1.047-.024-2.1-.014-3.144,0-5.56.054-4.4-.564-8.459,3.493a7.7,7.7,0,0,0-2.452,5.581,1.985,1.985,0,0,1-2.042,2.169,1.963,1.963,0,0,1-1.988-2.116,7.484,7.484,0,0,0-2.567-5.747c-.769-.708-1.48-1.481-2.216-2.227a3.74,3.74,0,0,0-2.82-1.158c-1.952.019-3.9,0-5.853,0-2.859,0-4.262,1.4-4.264,4.244q-.005,7.7,0,15.388c0,2.9,0,2.878,2.887,2.842.739-.01.9-.266.889-.944-.031-3.032-.014-6.066-.014-9.1,0-2.926.021-5.852-.009-8.778a2.533,2.533,0,0,1,1.528-2.716c1.23-.5,2.137.041,2.985.9q4.3,4.361,8.64,8.678c1.975,1.979,3.672,1.967,5.674-.034q4.406-4.4,8.81-8.817a2.4,2.4,0,0,1,2.84-.693,2.523,2.523,0,0,1,1.491,2.638c-.017,5.345-.008,10.692-.007,16.039,0,3.084,0,3.069,3.119,2.821.532-.042.668-.242.667-.727C4020.195,4196.481,4020.235,4190.413,4020.173,4184.344Z" transform="translate(-3853.091 -4180.714)"/>
        <path id="Path_197" data-name="Path 197" d="M3863.188,4184.979c0-2.831-1.323-4.138-4.194-4.139h-24.487q-.379,0-.759.006c-.269,0-.511.033-.5.4s.278.36.531.366c.29.006.579,0,.867,0q9.481,0,18.962.008c.363,0,.766-.126,1.142.154l-21.377,21.557c1.482,0,2.78-.043,4.073.017a2.357,2.357,0,0,0,1.907-.762c4.063-4.008,8.1-8.046,12.263-11.94a9.467,9.467,0,0,0,3.458-7.051,1.862,1.862,0,0,1,1.32-1.8,2.194,2.194,0,0,1,3.1,2.161c.018,5.562.008,11.122.009,16.686,0,2.729,0,2.692,2.7,2.711.832.006,1.015-.253,1.011-1.043C3863.175,4196.536,3863.191,4190.756,3863.188,4184.979Z" transform="translate(-3737.612 -4180.745)"/>
        <path id="Path_198" data-name="Path 198" d="M3418.146,4180.838c-3.647-.008-7.294,0-10.942,0-3.611,0-7.222-.006-10.833,0-2.682,0-4.116,1.459-4.119,4.168q-.005,7.1,0,14.19c0,2.577,1.416,4.1,3.972,4.115q11,.053,21.991,0c2.59-.01,3.993-1.5,4-4.077q.007-7.148,0-14.3C3422.208,4182.287,3420.778,4180.842,3418.146,4180.838Zm.335,18.819c0,1.973-.949,2.9-2.939,2.9-2.78.009-5.56,0-8.34,0s-5.56.007-8.34,0a2.545,2.545,0,0,1-2.876-2.866q-.023-7.634,0-15.271c.006-1.917.962-2.846,2.892-2.849q8.339-.013,16.68,0c1.99,0,2.919.93,2.923,2.921Q3418.494,4192.073,3418.48,4199.657Z" transform="translate(-3392.248 -4180.741)"/>
        <path id="Path_199" data-name="Path 199" d="M3713.381,4195.619c-.713.016-.839.285-.819.9.037,1.119.032,2.24,0,3.359a2.338,2.338,0,0,1-2.362,2.455q-8.834.056-17.668,0a2.26,2.26,0,0,1-2.369-2.423q-.031-8.02,0-16.04a2.24,2.24,0,0,1,2.213-2.335c.4-.032.794-.036,1.191-.036q9.7-.03,19.4-.056c.939,0,1.879-.027,2.817-.042.27,0,.511-.043.506-.4s-.236-.411-.509-.417c-.29-.01-.579-.009-.867-.01q-6.072,0-12.142,0c-4.083,0-8.167-.022-12.249.007-2.506.017-4.167,1.542-4.182,3.855q-.045,7.476,0,14.957a3.581,3.581,0,0,0,3.723,3.679c7.516.018,15.032,0,22.548.01a3.626,3.626,0,0,0,2.986-1.486,4.623,4.623,0,0,0,.727-3.093C3716.318,4195.526,3716.328,4195.553,3713.381,4195.619Z" transform="translate(-3622.554 -4180.533)"/>
        <path id="Path_200" data-name="Path 200" d="M3566.2,4195.491c-.576.028-.745.21-.729.763q.048,1.733,0,3.467a2.372,2.372,0,0,1-2.455,2.484q-8.777.045-17.554,0a2.282,2.282,0,0,1-2.429-2.382q-.056-8.071,0-16.144a2.252,2.252,0,0,1,2.286-2.276c.54-.039,1.083-.036,1.625-.038q10.616-.047,21.235-.108c.344,0,1.015.316.982-.413-.029-.671-.671-.38-1.035-.385-1.986-.032-3.973-.015-5.959-.015-6.213,0-12.426-.015-18.639.006-2.823.01-4.273,1.5-4.273,4.284q0,7.1,0,14.2c0,2.583,1.424,4.013,4.017,4.018,3.648.009,7.3,0,10.944,0,3.722,0,7.442-.015,11.162.009a3.732,3.732,0,0,0,2.967-1.3,4.607,4.607,0,0,0,.867-3.366C3569.194,4195.327,3569.21,4195.344,3566.2,4195.491Z" transform="translate(-3507.377 -4180.399)"/>
      </g>
      <path id="Path_201" data-name="Path 201" d="M3631.135,3877.583c-1.9-6.472-3.617-13-5.4-19.506a14.621,14.621,0,0,0-1.38-3.59,4.869,4.869,0,0,0-4.366-2.767q-12.921.006-25.842,0a4.653,4.653,0,0,0-3.823,1.9,8.74,8.74,0,0,0-1.454,2.93q-3.268,10.774-6.526,21.549a3.2,3.2,0,0,0-.067,1.623,5.4,5.4,0,0,0,5.387,4.374q9.533.012,19.065,0,9.468,0,18.937,0a7.581,7.581,0,0,0,1.448-.123A5.272,5.272,0,0,0,3631.135,3877.583Zm-43.042,3.3c-.212-.064-.216-.388-.282-.605a2.682,2.682,0,0,1,.034-1.558q3.22-11.443,6.437-22.891a5.369,5.369,0,0,1,.763-1.728,2.555,2.555,0,0,1,2.116-1.2q9.437-.009,18.873,0a1.584,1.584,0,0,1,.221.016c-2.2,2.272-4.377,4.6-6.639,6.845q-10.472,10.392-21,20.731C3588.458,3880.65,3588.323,3880.956,3588.093,3880.887Zm34.858,2.078a7.684,7.684,0,0,1-.949.04q-6.491,0-12.984,0-6.713,0-13.426,0c-.325,0-.713.1-.877-.318s.194-.609.424-.833q9.076-8.833,18.165-17.653a11.167,11.167,0,0,0,3.261-7.151,14.7,14.7,0,0,1,.232-2.514c.164-.579.372-1.271.974-1.382s1.024.484,1.376.958a5.165,5.165,0,0,1,.8,1.847c1.949,7.64,3.861,15.289,5.863,22.916A3.453,3.453,0,0,1,3622.951,3882.965Z" transform="translate(-3582.208 -3851.72)"/>
    </g>
  </g>
</svg>
