<svg xmlns="http://www.w3.org/2000/svg" width="299.768" height="64.486" viewBox="0 0 299.768 64.486">
  <g id="Group_213" data-name="Group 213" transform="translate(-481.081 -2768.933)">
    <g id="Group_212" data-name="Group 212" transform="translate(565.129 2799.106)">
      <path id="Path_598" data-name="Path 598" d="M807.615,2862.174l-7.689,0a2.668,2.668,0,0,0-1.659.468,2.426,2.426,0,0,0-.8,1l-.861,1.982-.862-1.982a2.445,2.445,0,0,0-.818-1.012,2.686,2.686,0,0,0-1.647-.459l-.051,0-7.638,0c-2.854,0-4.127,1.284-4.127,4.164v20.822h5.375v-17.444a2.154,2.154,0,0,1,2.283-2.359h2.648a2.155,2.155,0,0,1,2.283,2.359v17.444h5.106v-17.444a2.4,2.4,0,0,1,.592-1.71,2.224,2.224,0,0,1,1.69-.649h2.648a2.155,2.155,0,0,1,2.282,2.359v17.444h5.375v-20.823C811.742,2863.459,810.469,2862.174,807.615,2862.174Z" transform="translate(-781.459 -2862.15)"/>
      <g id="Group_208" data-name="Group 208" transform="translate(33.414 0)">
        <path id="Path_599" data-name="Path 599" d="M889.51,2862.121a1.161,1.161,0,0,0-.329,0,1.164,1.164,0,0,0-.987,1.317l.009.133v22.143l-.011.069a1.181,1.181,0,0,0,.452,1.115,1.17,1.17,0,0,0,.874.231l.125-.008H903.86v-5.184h-8.773a1.472,1.472,0,0,1-1.074-.417,1.6,1.6,0,0,1-.438-1.174V2868.87a1.472,1.472,0,0,1,1.515-1.592h8.77v-5.144l-14.284,0Z" transform="translate(-888.179 -2862.109)"/>
        <rect id="Rectangle_169" data-name="Rectangle 169" width="7.141" height="4.492" transform="translate(8.463 10.115)"/>
      </g>
      <g id="Group_209" data-name="Group 209" transform="translate(52.226 0.022)">
        <rect id="Rectangle_170" data-name="Rectangle 170" width="5.375" height="16.774" transform="translate(6.678 8.214)"/>
        <rect id="Rectangle_171" data-name="Rectangle 171" width="18.692" height="5.144"/>
      </g>
      <path id="Path_600" data-name="Path 600" d="M1016.848,2862.17l-.091,0-5.8,0-.046,0a.221.221,0,0,0-.231.158l-.01.033-7.827,24.8h5.714l4.637-17.118h1.575l3.508,11.933h-4.745l-1.324,5.185h13.369l-8.4-24.782A.312.312,0,0,0,1016.848,2862.17Z" transform="translate(-933.526 -2862.15)"/>
      <path id="Path_601" data-name="Path 601" d="M1085.449,2868.437v3.219a6.373,6.373,0,0,0,.3,1.994,3.875,3.875,0,0,0,.874,1.479,4.115,4.115,0,0,0,1.55.988,7.139,7.139,0,0,0,2.479.386h6.182a2.13,2.13,0,0,1,1.708.62l.069.069.053.082a2.627,2.627,0,0,1,.421,1.579v.774a2.434,2.434,0,0,1-.6,1.738,2.262,2.262,0,0,1-1.717.657h-10.862v5.172h11.82c4.3,0,6.306-1.965,6.306-6.185l0-2.821a5.632,5.632,0,0,0-1.281-3.971c-.823-.87-2.281-1.311-4.334-1.311H1092.6a2.1,2.1,0,0,1-2.2-2.318v-.805a2.433,2.433,0,0,1,.6-1.738,2.26,2.26,0,0,1,1.717-.657H1103v-5.133h-11.245C1087.453,2862.252,1085.449,2864.217,1085.449,2868.437Z" transform="translate(-990.27 -2862.207)"/>
      <g id="Group_210" data-name="Group 210" transform="translate(115.826 0.044)">
        <rect id="Rectangle_172" data-name="Rectangle 172" width="5.366" height="16.743" transform="translate(6.664 8.2)"/>
        <rect id="Rectangle_173" data-name="Rectangle 173" width="18.659" height="5.133"/>
      </g>
      <path id="Path_602" data-name="Path 602" d="M1220.638,2862.238l-.09,0-5.837,0a.22.22,0,0,0-.229.158l-.01.035-7.814,24.756h5.7l4.637-17.089h1.575l3.5,11.917h-4.741l-1.321,5.171h13.342l-8.393-24.737A.3.3,0,0,0,1220.638,2862.238Z" transform="translate(-1073.528 -2862.196)"/>
      <path id="Path_603" data-name="Path 603" d="M1306.517,2875.136l-1.875-.728,1.761-.97a2.78,2.78,0,0,0,1.078-1.066,5.367,5.367,0,0,0,.392-2.349l0-.056v-1.57c0-4.22-2-6.185-6.305-6.185l-11.092-.014a1.16,1.16,0,0,0-1.312,1.313l.009.132v22.1l-.01.07a1.176,1.176,0,0,0,.45,1.113,1.164,1.164,0,0,0,.871.231l.125-.008h11.419c4.3,0,6.306-1.965,6.306-6.185v-2.224a4.99,4.99,0,0,0-.548-2.5A2.464,2.464,0,0,0,1306.517,2875.136Zm-5.448,7.153h-5.024a1.469,1.469,0,0,1-1.071-.417,1.593,1.593,0,0,1-.439-1.173v-12.031a1.471,1.471,0,0,1,1.514-1.59h4.56a2.187,2.187,0,0,1,2.318,2.4v.8a2.73,2.73,0,0,1-.377,1.451l-.078.114a2.059,2.059,0,0,1-1.8.753H1297.6v4.176h3.569a2.012,2.012,0,0,1,1.771.767l.067.1a2.754,2.754,0,0,1,.377,1.482v.775A2.188,2.188,0,0,1,1301.069,2882.289Z" transform="translate(-1130.191 -2862.161)"/>
      <path id="Path_604" data-name="Path 604" d="M1366.263,2881.573a1.594,1.594,0,0,1-.439-1.174v-18.181h-5.362v23.539l-.011.071a1.177,1.177,0,0,0,1.321,1.342l.125-.009h14.2v-5.172h-8.759A1.468,1.468,0,0,1,1366.263,2881.573Z" transform="translate(-1179.16 -2862.184)"/>
      <g id="Group_211" data-name="Group 211" transform="translate(200.064 0.024)">
        <path id="Path_605" data-name="Path 605" d="M1421.764,2862.2a1.166,1.166,0,0,0-.326,0,1.16,1.16,0,0,0-.986,1.313l.009.132v22.1l-.01.07a1.177,1.177,0,0,0,1.321,1.344l.125-.009h14.2v-5.172h-8.759a1.47,1.47,0,0,1-1.071-.417,1.6,1.6,0,0,1-.438-1.173v-11.457a1.47,1.47,0,0,1,1.514-1.59h8.754v-5.133H1421.83Z" transform="translate(-1420.437 -2862.186)"/>
        <rect id="Rectangle_174" data-name="Rectangle 174" width="7.125" height="4.482" transform="translate(8.454 10.098)"/>
      </g>
    </g>
    <path id="Path_606" data-name="Path 606" d="M481.081,2833.419c8.7-1.24,33.539-5.954,54.31-27.1a93.535,93.535,0,0,0,22.343-37.386l-4.743,15.436,1.357-2.351.431.249-2.442,4.229-1.666,5.421,2.173-2.688.387.313-2.952,3.652-1.978,6.439,2.984-1.418.214.449-3.4,1.614-2.654,8.638,3.687-1.212.156.472-4.022,1.322-2.488,8.1,3.781-.665.086.49-4.031.709-2.091,6.8,4.538-.576.062.494-4.789.608-.083.011-1.435,4.655-.475-.147,1.367-4.435-7.179.964-1.81,4.417-.461-.189,1.7-4.152-7.812,1.049-2.016,3.969-.443-.226,1.86-3.663-8.509,1.143-2.56,3.3-.394-.305,2.25-2.9-8.684,1.166-3.021,2.556-.322-.38,2.426-2.053-7.561,1.016-4.447,1.819-.189-.461,2.678-1.1Z"/>
  </g>
</svg>
