<svg xmlns="http://www.w3.org/2000/svg" width="103.005" height="69.871" viewBox="0 0 103.005 69.871">
  <g id="Group_46" data-name="Group 46" transform="translate(-17.997)">
    <g id="Group_34" data-name="Group 34" transform="translate(-766.823 -504.928)">
      <path id="Path_187" data-name="Path 187" d="M1171.008,803.423l1.184,5.253-5.04,5.04-5.161-1.275,3.7-3.7.891.162.81-.81-.2-.85Z" transform="translate(-313.421 -238.917)" fill="#f3e600"/>
      <path id="Path_188" data-name="Path 188" d="M975.135,542.608l2.877-4.551h7.128l2.748,4.551h-5.238l-.515-.744h-1.145l-.458.744Z" transform="translate(-145.189)" fill="#f3e600"/>
      <path id="Path_189" data-name="Path 189" d="M824.166,812.9l-5.253,1.184-5.04-5.04,1.275-5.161,3.7,3.7-.162.891.81.81.85-.2Z" transform="translate(0 -239.328)" fill="#f3e600"/>
      <path id="Path_190" data-name="Path 190" d="M915,661.965H911.94v2.918h-5.927v-2.918H889.178l-2.4,2.4-.068,1.568h1.255v5.182h-1.255v2.4l1.473,1.473h12.708v-2.073h3v2.073h3.163v-2.036h3.182v2.036h5.309l1.545-1.545v-9.4Zm-21.37,9.2a2.691,2.691,0,1,1,2.691-2.691A2.691,2.691,0,0,1,893.634,671.169Zm18.452-1.567h-11.2v-1.477h11.2Z" transform="translate(-65.573 -111.558)" fill="#f3e600"/>
    </g>
    <path id="Path_195" data-name="Path 195" d="M-2792.313-7l5.675,5.675h91.656L-2689.308-7Z" transform="translate(2810.311 7)" fill="#f3e600"/>
  </g>
</svg>