<svg xmlns="http://www.w3.org/2000/svg" xmlns:xlink="http://www.w3.org/1999/xlink" width="142" height="39" viewBox="0 0 142 39">
  <defs>
    <clipPath id="clip-path">
      <rect id="Rectangle_175" data-name="Rectangle 175" width="106.713" height="12.862" fill="none"/>
    </clipPath>
  </defs>
  <g id="Group_226" data-name="Group 226" transform="translate(-0.006)">
    <g id="Rectangle_176" data-name="Rectangle 176" transform="translate(1.006 39) rotate(-90)" fill="none" stroke="#ecbd00" stroke-width="2">
      <rect width="35" height="141" rx="4" stroke="none"/>
      <rect x="1" y="1" width="33" height="139" rx="3" fill="none"/>
    </g>
    <rect id="Rectangle_177" data-name="Rectangle 177" width="130" height="29" transform="translate(0.006)" fill="#f8f7f4"/>
    <text id="Built_On" data-name="Built On" transform="translate(104.006 6)" fill="#292929" font-size="6" font-family="MontserratAlternates-ExtraBold, Montserrat Alternates" font-weight="800"><tspan x="-13.191" y="0">Built On</tspan></text>
    <g id="Group_217" data-name="Group 217" transform="translate(18.014 15.452)">
      <g id="Group_216" data-name="Group 216" transform="translate(0 0)" clip-path="url(#clip-path)">
        <path id="Path_655" data-name="Path 655" d="M63.5,8.062l-1.606,3.181q-.081.161-.164.322c-.387.757-.525.821-1.378.713-.236-.03-.3-.2-.387-.359-.616-1.187-1.227-2.376-1.844-3.562-.059-.113-.08-.257-.225-.322-.107.132-.056.284-.057.423,0,1.563-.013,3.127,0,4.69,0,.381-.113.511-.5.507-1.15-.009-1.15.006-1.15-1.137q0-3.969,0-7.938c0-.558,0-.569.556-.562,1.207.016.894-.175,1.428.881.8,1.575,1.564,3.164,2.349,4.745.062.124.079.331.251.324s.18-.211.242-.337c.838-1.718,1.681-3.434,2.5-5.161a.685.685,0,0,1,.735-.462c1.182.039,1.018-.148,1.021,1.028.008,2.686,0,5.372,0,8.058,0,.551,0,.551-.562.553-1.112,0-1.112,0-1.112-1.087V8.081l-.1-.019" transform="translate(-27.723 -1.978)" fill="#070707"/>
        <path id="Path_656" data-name="Path 656" d="M191.816,8.9q0,2.084,0,4.168c0,.544-.009.554-.57.552-.957,0-.876.086-.877-.85q0-2.144,0-4.288c0-.107,0-.214-.006-.321-.007-.09.005-.206-.113-.227-.1-.018-.126.082-.166.148-.027.046-.049.1-.073.143-.59,1.169-1.186,2.335-1.768,3.508a.771.771,0,0,1-.785.536.844.844,0,0,1-.882-.507c-.58-1.189-1.208-2.353-1.825-3.524-.06-.113-.058-.355-.253-.29-.153.051-.081.261-.082.4,0,1.563,0,3.126,0,4.689,0,.581,0,.585-.579.582-1.052-.006-.92.111-.922-.917-.005-2.672.006-5.344-.01-8.016,0-.4.117-.5.52-.539a1.173,1.173,0,0,1,1.34.814c.74,1.629,1.564,3.221,2.361,4.824.073.147.094.391.293.392s.225-.241.295-.39c.792-1.71,1.64-3.392,2.46-5.088a.818.818,0,0,1,.893-.545c.753.036.755.009.755.776V8.9" transform="translate(-90.238 -2.04)" fill="#070707"/>
        <path id="Path_657" data-name="Path 657" d="M119.331,12.75q0-1.443,0-2.886c0-.586,0-.586.607-.587.134,0,.269.008.4,0,.252-.018.42.063.441.338.023.3.156.285.363.143a2.935,2.935,0,0,1,1.729-.563,1.824,1.824,0,0,1,1.511.7c.167.221.3.2.494.054A3.231,3.231,0,0,1,126.99,9.2a1.9,1.9,0,0,1,1.867,1.576,4.272,4.272,0,0,1,.09.915c0,1.336-.011,2.672.006,4.008.005.369-.09.522-.492.518-1.058-.013-1.058,0-1.059-1.067,0-1.1.005-2.191,0-3.286-.007-1.037-.646-1.441-1.6-1.021-.073.032-.141.078-.215.108a1.033,1.033,0,0,0-.694,1.148c.057,1.213.008,2.431.023,3.647,0,.339-.092.479-.454.469-1.3-.036-1.08.174-1.094-1.067-.013-1.1,0-2.191,0-3.286-.005-1.009-.569-1.4-1.53-1.058-.038.013-.075.027-.112.043-.827.345-.848.375-.848,1.264,0,1.189-.011,2.379.007,3.567.006.384-.09.555-.515.54-1.2-.041-1.013.152-1.027-1.016-.01-.815,0-1.63,0-2.445" transform="translate(-58.874 -4.534)" fill="#070707"/>
        <path id="Path_658" data-name="Path 658" d="M160.167,8.316c0,1.5-.011,2.992.007,4.488,0,.379-.11.548-.5.5a2.9,2.9,0,0,0-.522,0c-.251.017-.417-.062-.449-.333s-.168-.271-.382-.149a3.32,3.32,0,0,1-2.184.519,1.992,1.992,0,0,1-1.846-1.948,27.094,27.094,0,0,1,0-3.043A2.2,2.2,0,0,1,156.436,6.3a4.8,4.8,0,0,1,1.823.234c.309.1.372,0,.369-.285-.01-.841.007-1.683-.008-2.524-.005-.315.115-.422.425-.414,1.337.032,1.105-.184,1.119,1.078.014,1.309,0,2.618,0,3.926m-1.542,1.391c0-.133.011-.268,0-.4-.04-.392.183-.885-.108-1.154a2.291,2.291,0,0,0-1.4-.4c-.04,0-.081,0-.121,0a1.036,1.036,0,0,0-1.182,1.108c-.019.667-.018,1.334,0,2a.976.976,0,0,0,1.3,1.032,4.474,4.474,0,0,0,1.268-.489.447.447,0,0,0,.252-.455c-.01-.413,0-.827,0-1.241" transform="translate(-76.102 -1.634)" fill="#070707"/>
        <path id="Path_659" data-name="Path 659" d="M91.573,8.314c0-1.509.01-3.018-.007-4.527,0-.369.119-.484.485-.481,1.066.007,1.066-.007,1.067,1.055,0,1.255.009,2.511-.006,3.766,0,.33.11.424.438.443A1.488,1.488,0,0,0,95.2,7.585a2.366,2.366,0,0,1,.108-.215c.592-1.162.591-1.161,1.9-1.039.184.017.338.042.219.283-.336.682-.622,1.39-1.026,2.039-.144.233-.51.348-.516.568,0,.187.371.3.513.515a2.484,2.484,0,0,1,.289.57c.285.849.573,1.7.854,2.546.13.395.095.438-.319.448-1.222.032-1.22.031-1.608-1.133a11.753,11.753,0,0,0-.505-1.477,1.639,1.639,0,0,0-1.857-.639c-.18.084-.136.245-.137.383-.005.815-.012,1.629,0,2.444.005.3-.089.435-.412.427-1.365-.033-1.118.186-1.133-1.1s0-2.591,0-3.886" transform="translate(-45.176 -1.631)" fill="#070707"/>
        <path id="Path_660" data-name="Path 660" d="M174.175,13.407c0,.92-.006,1.654,0,2.388,0,.287-.105.42-.4.4a5.547,5.547,0,0,0-.6,0c-.232.009-.436-.014-.474-.3s-.2-.244-.395-.144a3.794,3.794,0,0,1-2.362.461,1.908,1.908,0,0,1-1.688-1.537,1.943,1.943,0,0,1,.964-2.222,2.841,2.841,0,0,1,1.419-.384c.522-.006,1.045-.015,1.566,0,.324.011.42-.125.409-.429a.947.947,0,0,0-.935-1.045,2.864,2.864,0,0,0-2.008.382c-.28.187-.406.1-.564-.148-.546-.865-.547-.923.421-1.308a4.794,4.794,0,0,1,3.035-.2,2.024,2.024,0,0,1,1.568,1.906c.08.786.035,1.574.047,2.175m-2.664-.143v-.017c-.346.021-.695.018-1.036.069a.678.678,0,0,0-.611.553.72.72,0,0,0,.278.814,1.258,1.258,0,0,0,.922.17,3.972,3.972,0,0,0,1.208-.406.728.728,0,0,0,.351-.942c-.085-.359-.376-.212-.591-.237a4.549,4.549,0,0,0-.519,0" transform="translate(-82.987 -4.523)" fill="#070707"/>
        <path id="Path_661" data-name="Path 661" d="M144.283,13.253c-.577,0-1.153.008-1.729,0-.279-.006-.379.1-.369.38a1.206,1.206,0,0,0,.953,1.187,2.292,2.292,0,0,0,1.88-.339c.243-.165.4-.159.566.078a1.776,1.776,0,0,0,.159.181c.553.616.561.7-.2,1.088a3.9,3.9,0,0,1-3.672.035,2.144,2.144,0,0,1-1.222-1.94c-.03-.734-.041-1.471,0-2.2a2.749,2.749,0,0,1,3.292-2.49,2.575,2.575,0,0,1,2.482,2.806c0,.281-.01.562,0,.842s-.1.385-.379.379c-.589-.011-1.179,0-1.769,0Zm-.755-1.132c.348,0,.7,0,1.044,0,.215,0,.315-.079.312-.308a1.263,1.263,0,0,0-1.345-1.2A1.29,1.29,0,0,0,142.2,11.83c0,.207.086.292.285.29.348,0,.7,0,1.044,0" transform="translate(-69.382 -4.538)" fill="#070707"/>
        <path id="Path_662" data-name="Path 662" d="M105.239,12.754c0-.241.011-.481,0-.721a2.611,2.611,0,0,1,2.56-2.82,3.89,3.89,0,0,1,1.513.123,2.427,2.427,0,0,1,1.883,2.4c.017.614.008,1.229,0,1.844a2.446,2.446,0,0,1-1.948,2.551,3.721,3.721,0,0,1-2.557-.162,2.278,2.278,0,0,1-1.444-2.092c-.02-.373,0-.748,0-1.122h-.006m1.549,0h0c0,.266-.008.533,0,.8a1.22,1.22,0,0,0,1.329,1.286,1.3,1.3,0,0,0,1.517-1.193,12.834,12.834,0,0,0,0-1.8,1.436,1.436,0,0,0-2.844.066c-.016.279,0,.56,0,.84" transform="translate(-51.919 -4.533)" fill="#070707"/>
        <path id="Path_663" data-name="Path 663" d="M84.605,7.725c0-1.309.009-2.619-.006-3.928,0-.352.089-.5.473-.494,1.078.009,1.078-.007,1.078,1.085q0,3.367,0,6.734c0,.655.055.729.69.85.19.036.284.106.294.3.062,1.107.2,1.132-1.013,1.1a1.342,1.342,0,0,1-1.479-1.36,13.3,13.3,0,0,1-.036-1.4c-.005-.962,0-1.924,0-2.886" transform="translate(-41.739 -1.63)" fill="#070707"/>
        <path id="Path_664" data-name="Path 664" d="M207.452,8.932c0,1.4-.009,2.806.007,4.209,0,.361-.1.5-.479.49-1.081-.027-.936.1-.94-.949-.006-2.057,0-4.115,0-6.173,0-.141.066-.334-.078-.409-.172-.091-.288.1-.4.2-.755.636-.622.663-1.268-.189-.134-.177-.13-.281.048-.427.5-.406.988-.82,1.462-1.253.454-.415.987-.245,1.493-.226.206.008.157.249.157.4q.005,2.164,0,4.329" transform="translate(-100.746 -2.049)" fill="#070707"/>
        <path id="Path_665" data-name="Path 665" d="M79.147,12.82c0,1-.011,2,.006,3,.006.345-.1.5-.46.463a3.4,3.4,0,0,0-.642,0c-.363.035-.455-.13-.453-.468q.017-3,0-6c0-.344.1-.5.458-.463a4.033,4.033,0,0,0,.682,0c.323-.024.417.125.413.427-.011,1.014,0,2.028,0,3.042" transform="translate(-38.285 -4.611)" fill="#070707"/>
        <path id="Path_666" data-name="Path 666" d="M17.853,4.106c0,.165-.1.214-.192.266-.731.422-1.465.837-2.192,1.264-.219.129-.336.061-.446-.141a5.576,5.576,0,0,0-.957-1.282,2.752,2.752,0,0,0-3.648-.522c-2.794,1.587-5.573,3.2-8.357,4.8-.486.28-.485.282-.773-.214C.893,7.6.506,6.912.1,6.237c-.146-.242-.148-.385.124-.54C3.094,4.057,5.944,2.378,8.831.767a6.031,6.031,0,0,1,7,.807A10,10,0,0,1,17.7,3.817c.063.1.113.21.156.289" transform="translate(0 0)" fill="#070707"/>
        <path id="Path_667" data-name="Path 667" d="M17.624,17.234A6.123,6.123,0,0,1,13.1,15.552a10.625,10.625,0,0,1-1.686-2.031c-.175-.275-.16-.436.146-.6.626-.332,1.247-.677,1.848-1.052.332-.208.482-.118.644.2a4.572,4.572,0,0,0,1.114,1.357,2.788,2.788,0,0,0,3.461.3c1.27-.716,2.53-1.451,3.793-2.181q2.242-1.295,4.479-2.6c.211-.123.363-.135.5.1.426.742.853,1.482,1.288,2.219.138.234.012.329-.172.434q-1.985,1.138-3.965,2.284c-1.333.768-2.67,1.53-4,2.3a6.172,6.172,0,0,1-2.919.948" transform="translate(-5.574 -4.372)" fill="#070707"/>
        <path id="Path_668" data-name="Path 668" d="M21.191,8.611a2.154,2.154,0,1,1,.007,4.307,2.154,2.154,0,0,1-.007-4.307" transform="translate(-9.395 -4.249)" fill="#070707"/>
        <path id="Path_669" data-name="Path 669" d="M5.983,20.374a1.145,1.145,0,0,1,1.148-1.139A1.154,1.154,0,1,1,7.1,21.543a1.134,1.134,0,0,1-1.117-1.169" transform="translate(-2.952 -9.49)" fill="#070707"/>
        <path id="Path_670" data-name="Path 670" d="M37.974,3.408a1.049,1.049,0,0,1-2.1-.025,1.05,1.05,0,1,1,2.1.025" transform="translate(-17.7 -1.135)" fill="#070707"/>
        <path id="Path_671" data-name="Path 671" d="M79.144,4.7a.829.829,0,0,1-.871.844.817.817,0,0,1-.852-.859.823.823,0,0,1,.887-.865.833.833,0,0,1,.836.88" transform="translate(-38.198 -1.885)" fill="#070707"/>
      </g>
    </g>
  </g>
</svg>
