<svg width="285" height="77" viewBox="0 0 285 77" fill="none" xmlns="http://www.w3.org/2000/svg">
<g clip-path="url(#clip0_306_39)">
<path d="M7.01965 9.05839L7.01965 72.4701C7.01965 74.3463 8.90535 75.8672 11.2315 75.8672L279.384 75.8672C281.71 75.8672 283.596 74.3463 283.596 72.4701V9.05839C283.596 7.18224 281.71 5.66132 279.384 5.66132L11.2315 5.66132C8.90535 5.66132 7.01965 7.18224 7.01965 9.05839Z" stroke="#ECBD00" stroke-width="2"/>
<path d="M0 4.52953L0 67.9413C0 70.4428 2.51426 72.4707 5.61576 72.4707L273.768 72.4707C276.87 72.4707 279.384 70.4428 279.384 67.9413V4.52953C279.384 2.028 276.87 0.000114441 273.768 0.000114441L5.61576 0.000114441C2.51426 0.000114441 0 2.028 0 4.52953Z" fill="#F8F7F4"/>
<path d="M97.6757 37.6017L93.83 45.2411L93.4297 46.0075C92.5077 47.8322 92.2165 47.9781 90.1299 47.7227C89.5719 47.6497 89.4142 47.2483 89.208 46.859C87.7279 44.0125 86.2722 41.1538 84.7921 38.3438C84.6587 38.0761 84.598 37.7234 84.2584 37.5774C84.0036 37.8937 84.1128 38.2586 84.1128 38.5871C84.1128 42.3459 84.1128 46.0926 84.1128 49.8515C84.1128 50.7638 83.8459 51.068 82.8996 51.068C80.1458 51.068 80.1458 51.068 80.1458 48.3431V29.2568C80.1458 27.9187 80.1458 27.8822 81.4803 27.9065C84.3675 27.9065 83.6154 27.4808 84.9013 30.0232C86.8059 33.8064 88.6499 37.6139 90.5182 41.4092C90.6759 41.7134 90.7123 42.2121 91.1247 42.1878C91.5372 42.1635 91.5493 41.689 91.707 41.3849C93.733 37.2611 95.7104 33.1373 97.7121 28.9892C97.8302 28.6269 98.0703 28.3172 98.3913 28.113C98.7122 27.9088 99.094 27.8229 99.4711 27.87C102.31 27.9673 101.897 27.5172 101.897 30.3029C101.897 36.7502 101.897 43.1974 101.897 49.6447C101.922 50.9828 101.922 50.9828 100.563 50.9828C97.9062 50.9828 97.9062 50.9828 97.9062 48.3796V37.6625L97.6757 37.6017Z" fill="#070707"/>
<path d="M255.238 39.4481V49.4596C255.238 50.7612 255.238 50.7855 253.867 50.7855C251.575 50.7855 251.769 50.9923 251.769 48.7419V38.4506C251.769 38.183 251.769 37.9275 251.769 37.6721C251.769 37.4166 251.769 37.1855 251.49 37.1247C251.211 37.0639 251.198 37.3315 251.101 37.4896C251.034 37.5992 250.973 37.7129 250.919 37.8302C249.512 40.6402 248.081 43.4381 246.686 46.2481C246.561 46.6432 246.309 46.985 245.968 47.2188C245.627 47.4526 245.217 47.5649 244.805 47.5376C244.369 47.5916 243.928 47.5022 243.547 47.2828C243.167 47.0634 242.867 46.7259 242.694 46.3211C241.311 43.4746 239.807 40.6767 238.327 37.8667C238.181 37.5869 238.194 37.0152 237.72 37.1612C237.247 37.3071 237.526 37.7937 237.526 38.1222C237.526 41.881 237.526 45.6277 237.526 49.3866C237.526 50.7855 237.526 50.7855 236.143 50.7855C233.62 50.7855 233.935 51.0532 233.935 48.5837C233.935 42.1608 233.935 35.7501 233.935 29.3393C233.935 28.3783 234.214 28.1229 235.149 28.0377C235.829 27.9123 236.532 28.0427 237.123 28.4039C237.714 28.7652 238.151 29.3321 238.351 29.9962C240.122 33.9132 242.1 37.7329 244.005 41.5769C244.186 41.9297 244.235 42.5136 244.708 42.5136C245.181 42.5136 245.254 41.9419 245.412 41.5769C247.304 37.4774 249.342 33.4388 251.308 29.4123C251.444 28.9736 251.731 28.5974 252.117 28.3503C252.503 28.1031 252.964 28.001 253.418 28.062C255.226 28.1472 255.226 28.062 255.226 29.9232L255.238 39.4481Z" fill="#070707"/>
<path d="M156.768 42.711V35.7772C156.768 34.3661 156.768 34.3661 158.224 34.3661C158.551 34.3661 158.867 34.3661 159.194 34.3661C159.789 34.3661 160.189 34.5121 160.25 35.1812C160.31 35.8502 160.613 35.8624 161.111 35.5218C162.317 34.6438 163.769 34.1712 165.26 34.1715C165.956 34.1398 166.65 34.2757 167.283 34.5677C167.916 34.8598 168.47 35.2995 168.899 35.8502C169.3 36.3854 169.603 36.3246 170.112 35.984C171.53 34.7955 173.324 34.1528 175.171 34.1715C176.242 34.1729 177.278 34.5531 178.097 35.2451C178.916 35.9371 179.465 36.8966 179.648 37.9547C179.795 38.6791 179.864 39.4173 179.854 40.1565C179.854 43.3679 179.854 46.5672 179.854 49.7787C179.854 50.6667 179.635 50.9951 178.641 50.9951C176.105 50.9951 176.105 50.9951 176.105 48.4406C176.105 45.886 176.105 43.1733 176.105 40.5457C176.105 37.9182 174.565 37.0788 172.272 38.1128C172.09 38.198 171.932 38.3075 171.75 38.3804C171.189 38.56 170.713 38.9379 170.409 39.4437C170.106 39.9495 169.996 40.5487 170.1 41.1296C170.234 44.0492 170.1 46.9687 170.1 49.8882C170.1 50.7032 169.882 51.0438 169.008 51.0195C165.903 50.9222 166.424 51.4331 166.388 48.4527C166.388 45.8252 166.388 43.1855 166.388 40.5579C166.388 38.125 165.029 37.2126 162.749 38.0155L162.482 38.125C160.504 38.9522 160.456 39.0252 160.456 41.154C160.456 44.0127 160.456 46.8713 160.456 49.6692C160.456 50.5937 160.237 51.0073 159.243 50.9708C156.355 50.8735 156.816 51.3358 156.816 48.5379C156.756 46.6159 156.768 44.6695 156.768 42.711Z" fill="#070707"/>
<path d="M213.301 39.0441C213.301 42.6935 213.301 46.2334 213.301 49.8219C213.301 50.7343 213.034 51.1357 212.088 51.0384C211.685 50.9983 211.278 50.9983 210.875 51.0384C210.268 51.0384 209.868 50.8924 209.795 50.2355C209.722 49.5786 209.395 49.5908 208.885 49.8828C207.336 50.8832 205.488 51.3131 203.657 51.0992C202.471 51.0145 201.359 50.4885 200.54 49.6243C199.721 48.7601 199.253 47.6201 199.229 46.428C199.09 43.9971 199.09 41.5602 199.229 39.1292C199.331 37.8227 199.914 36.6009 200.865 35.7015C201.815 34.8022 203.066 34.2896 204.373 34.2634C205.85 34.1745 207.332 34.3643 208.74 34.823C209.468 35.0784 209.625 34.823 209.613 34.1417C209.613 32.1224 209.613 30.1031 209.613 28.0594C209.613 27.3052 209.88 27.0498 210.632 27.0619C213.835 27.1471 213.277 26.624 213.313 29.653C213.35 32.682 213.301 35.9056 213.301 39.0441ZM209.662 42.3772C209.68 42.0612 209.68 41.7444 209.662 41.4283C209.577 40.4795 210.099 39.2995 209.407 38.6548C208.423 37.9731 207.242 37.6354 206.047 37.6938H205.756C205.385 37.6293 205.004 37.6521 204.644 37.7604C204.283 37.8688 203.953 38.0597 203.679 38.3181C203.405 38.5765 203.194 38.8953 203.064 39.2493C202.934 39.6033 202.888 39.9828 202.929 40.3579C202.929 41.9636 202.929 43.5572 202.929 45.2237C202.889 45.6164 202.949 46.0127 203.104 46.3756C203.258 46.7386 203.502 47.0564 203.812 47.2994C204.122 47.5423 204.489 47.7025 204.878 47.765C205.266 47.8275 205.664 47.7902 206.035 47.6566C207.103 47.4122 208.126 47.0017 209.067 46.4402C209.272 46.3462 209.44 46.1893 209.55 45.9924C209.659 45.7955 209.702 45.5688 209.674 45.3454C209.589 44.3722 209.613 43.3747 209.613 42.3772H209.662Z" fill="#070707"/>
<path d="M123.103 39.0374C123.103 35.388 123.103 31.7386 123.103 28.1744C123.103 27.2864 123.382 26.9579 124.317 27.0188C126.876 27.0188 126.876 27.0188 126.876 29.549C126.876 32.5658 126.876 35.6313 126.876 38.5873C126.876 39.378 127.131 39.6092 127.92 39.6578C128.752 39.7954 129.606 39.6325 130.33 39.1982C131.054 38.7639 131.602 38.0863 131.874 37.2857C131.954 37.1105 132.043 36.94 132.141 36.7748C133.549 33.9769 133.549 33.9891 136.691 34.281C137.127 34.281 137.503 34.3784 137.212 34.9623C136.412 36.5923 135.72 38.2954 134.786 39.8281C134.434 40.3877 133.573 40.6675 133.573 41.1906C133.573 41.7136 134.458 41.9083 134.786 42.407C135.076 42.8283 135.308 43.2865 135.477 43.7695C136.157 45.8131 136.848 47.8446 137.528 49.8518C137.843 50.8006 137.746 50.8979 136.763 50.9223C133.84 51.0074 133.84 51.0074 132.918 48.2095C132.588 47.0011 132.183 45.8147 131.705 44.6575C131.227 43.9544 130.535 43.4251 129.733 43.1489C128.93 42.8726 128.06 42.8641 127.252 43.1247C126.828 43.3315 126.937 43.7086 126.925 44.0492C126.925 45.9956 126.925 47.9541 126.925 49.9126C126.925 50.6425 126.706 50.9587 125.93 50.9344C122.667 50.8614 123.261 51.3845 123.225 48.2825C123.188 45.1806 123.103 42.1516 123.103 39.0374Z" fill="#070707"/>
<path d="M230.369 44.3141C230.369 46.5159 230.369 48.2798 230.369 50.0437C230.369 50.737 230.114 51.0533 229.399 51.0047C228.915 50.9575 228.429 50.9413 227.943 50.956C227.385 50.956 226.9 50.956 226.815 50.2261C226.73 49.4963 226.329 49.6422 225.868 49.8855C224.149 50.8596 222.161 51.2481 220.203 50.9925C219.23 50.8958 218.312 50.4895 217.586 49.833C216.859 49.1764 216.36 48.3039 216.163 47.3431C215.891 46.3245 215.971 45.2436 216.39 44.2762C216.808 43.3088 217.541 42.5119 218.468 42.015C219.501 41.4161 220.672 41.0975 221.865 41.0905C223.078 41.0905 224.376 41.0905 225.626 41.0905C226.402 41.0905 226.633 40.7864 226.596 40.0565C226.627 39.7446 226.592 39.4297 226.494 39.1319C226.397 38.8341 226.239 38.5598 226.03 38.3265C225.821 38.0932 225.567 37.9059 225.282 37.7765C224.997 37.6472 224.689 37.5785 224.376 37.5749C222.702 37.2688 220.974 37.5937 219.524 38.4873C218.857 38.9374 218.553 38.7306 218.177 38.1345C216.867 36.0543 216.867 35.9205 219.184 34.996C221.493 34.0422 224.05 33.8755 226.463 34.5216C227.505 34.7622 228.438 35.3409 229.118 36.168C229.798 36.9951 230.187 38.0242 230.224 39.0955C230.43 40.9689 230.369 42.8665 230.369 44.3141ZM223.988 43.9614C223.163 43.9614 222.326 43.9613 221.562 44.1317C221.207 44.1609 220.872 44.3067 220.609 44.5465C220.346 44.7863 220.169 45.1066 220.106 45.4576C219.99 45.8106 219.993 46.1919 220.113 46.5433C220.234 46.8947 220.466 47.1969 220.773 47.4039C221.428 47.8236 222.22 47.9719 222.981 47.8175C223.988 47.6464 224.963 47.318 225.868 46.8444C226.271 46.6467 226.582 46.3017 226.738 45.8807C226.893 45.4596 226.882 44.9946 226.706 44.5817C226.499 43.7181 225.808 44.0708 225.298 44.01C224.859 43.9665 224.417 43.9503 223.976 43.9614H223.988Z" fill="#070707"/>
<path d="M191.355 43.9047C189.984 43.9047 188.601 43.9047 187.218 43.9047C186.551 43.9047 186.308 44.1601 186.333 44.8292C186.331 45.4935 186.557 46.1383 186.972 46.6562C187.387 47.1741 187.966 47.5339 188.613 47.6757C189.378 47.8703 190.176 47.8982 190.952 47.7576C191.728 47.617 192.466 47.3112 193.114 46.8607C193.697 46.4592 194.085 46.4836 194.473 47.0431C194.592 47.1977 194.722 47.344 194.861 47.4811C196.183 48.9651 196.196 49.1598 194.388 50.0965C193.041 50.8317 191.535 51.2239 190.001 51.2388C188.467 51.2536 186.954 50.8906 185.593 50.1816C184.716 49.7611 183.977 49.1004 183.459 48.2759C182.942 47.4513 182.668 46.4967 182.669 45.5226C182.596 43.7587 182.572 41.9827 182.669 40.2309C182.9 36.3018 186.308 33.7229 190.554 34.246C194.424 34.7325 196.487 37.0681 196.499 40.9852C196.499 41.6664 196.499 42.3354 196.499 43.0045C196.499 43.6735 196.256 43.929 195.589 43.9168C194.182 43.9168 192.775 43.9168 191.355 43.9168V43.9047ZM189.548 41.2284H192.047C192.568 41.2284 192.799 41.0338 192.799 40.4864C192.784 40.081 192.687 39.6827 192.515 39.3153C192.344 38.9479 192.1 38.6189 191.799 38.3477C191.498 38.0765 191.146 37.8688 190.763 37.7367C190.381 37.6047 189.976 37.5511 189.572 37.5791C188.762 37.5459 187.973 37.8336 187.373 38.38C186.774 38.9264 186.413 39.6875 186.369 40.4986C186.369 40.9973 186.575 41.2041 187.049 41.2041L189.548 41.2284Z" fill="#070707"/>
<path d="M139.675 42.7201C139.675 42.1362 139.675 41.5036 139.675 40.9805C139.456 36.5891 142.586 34.5698 145.813 34.217C147.033 34.0674 148.271 34.1667 149.453 34.509C150.744 34.8137 151.893 35.5513 152.709 36.5998C153.525 37.6484 153.96 38.945 153.941 40.275C153.941 41.7469 153.941 43.2188 153.941 44.7029C154.017 46.1093 153.587 47.4963 152.73 48.6123C151.873 49.7282 150.646 50.4992 149.271 50.7852C147.265 51.3687 145.12 51.231 143.205 50.396C142.197 49.9961 141.331 49.3051 140.715 48.4107C140.099 47.5162 139.763 46.4586 139.747 45.372C139.747 44.484 139.747 43.5838 139.747 42.6836L139.675 42.7201ZM143.387 42.7201C143.387 43.3526 143.387 43.9974 143.387 44.6421C143.362 45.0622 143.429 45.4826 143.581 45.8746C143.734 46.2666 143.969 46.6209 144.271 46.9132C144.573 47.2055 144.934 47.4289 145.33 47.5681C145.726 47.7073 146.147 47.759 146.565 47.7197C148.664 47.7927 150.071 46.7466 150.205 44.8611C150.302 43.4232 150.302 41.9805 150.205 40.5426C150.077 39.7174 149.654 38.9669 149.015 38.431C148.377 37.895 147.565 37.6102 146.733 37.6296C145.9 37.6489 145.103 37.9711 144.489 38.5361C143.876 39.1011 143.489 39.8705 143.399 40.7008C143.363 41.3576 143.387 42.0389 143.387 42.7079V42.7201Z" fill="#070707"/>
<path d="M114.648 37.5815C114.648 34.4431 114.648 31.2924 114.648 28.154C114.648 27.3024 114.866 26.9375 115.776 26.9375C118.36 26.9375 118.36 26.9375 118.36 29.5407V45.7197C118.36 47.2889 118.494 47.4592 120.01 47.7512C120.471 47.8363 120.689 48.0066 120.714 48.481C120.871 51.1451 121.199 51.1937 118.287 51.1207C117.834 51.1674 117.377 51.117 116.945 50.9729C116.513 50.8288 116.116 50.5943 115.781 50.2849C115.446 49.9755 115.181 49.5983 115.002 49.1783C114.823 48.7583 114.736 48.305 114.745 47.8485C114.624 46.7415 114.66 45.6102 114.648 44.491C114.636 42.2406 114.648 39.9293 114.648 37.5815Z" fill="#070707"/>
<path d="M267.515 39.5309C267.515 42.9005 267.515 46.2701 267.515 49.6275C267.515 50.5034 267.261 50.844 266.363 50.844C263.779 50.7832 264.118 51.0995 264.106 48.5692C264.106 43.6304 264.106 38.6915 264.106 33.7527C264.106 33.4121 264.264 32.9498 263.912 32.7674C263.56 32.5849 263.221 33.0107 262.954 33.2418C261.146 34.7624 261.474 34.8353 259.921 32.7795C259.606 32.3538 259.618 32.1105 260.042 31.7577C261.255 30.7845 262.469 29.787 263.536 28.753C264.604 27.719 265.902 28.157 267.115 28.2056C267.6 28.2056 267.491 28.8017 267.491 29.1666C267.527 32.5971 267.515 36.064 267.515 39.5309Z" fill="#070707"/>
<path d="M109.855 42.7117C109.855 45.1446 109.855 47.5167 109.855 49.9253C109.855 50.7525 109.601 51.1418 108.751 51.0323C108.239 50.9837 107.723 50.9837 107.211 51.0323C106.349 51.1175 106.119 50.7282 106.131 49.9132C106.131 45.1041 106.131 40.299 106.131 35.4981C106.131 34.6709 106.374 34.2816 107.223 34.3789C107.768 34.4276 108.316 34.4276 108.861 34.3789C109.637 34.3789 109.855 34.6709 109.843 35.4007C109.831 37.8458 109.855 40.2788 109.855 42.7117Z" fill="#070707"/>
<path d="M54.7552 32.8567C54.7552 33.2459 54.5126 33.3676 54.2942 33.4892C52.5473 34.4989 50.7882 35.4964 49.0413 36.5304C48.5196 36.8345 48.2406 36.6764 47.9737 36.1898C47.3675 35.0577 46.5991 34.0208 45.693 33.1121C43.0484 30.4724 40.1975 30.0101 36.9584 31.8957C30.2619 35.7032 23.6139 39.5715 16.9416 43.4277C15.7285 44.0968 15.7285 44.0968 15.0855 42.9168C14.1393 41.2381 13.2173 39.5837 12.2346 37.9658C11.8828 37.3819 11.8828 37.0413 12.5379 36.6763C19.4164 32.7228 26.2343 28.6964 33.1492 24.8402C35.7928 23.3583 38.8343 22.7478 41.8432 23.0949C44.852 23.442 47.6757 24.7292 49.9148 26.7743C51.6627 28.3372 53.1675 30.1536 54.3791 32.1633C54.5201 32.3855 54.6458 32.6172 54.7552 32.8567V32.8567Z" fill="#070707"/>
<path d="M40.8547 53.8733C38.8702 53.9724 36.8863 53.6655 35.0238 52.9712C33.1614 52.2768 31.4593 51.2097 30.0214 49.8347C28.4754 48.3901 27.118 46.7552 25.9816 44.9688C25.557 44.3119 25.5934 43.9227 26.3334 43.5334C27.8256 42.7305 29.3177 41.9033 30.7614 41.0031C31.5499 40.5044 31.9139 40.7234 32.3021 41.4776C32.9662 42.7317 33.8736 43.8401 34.971 44.7377C36.0659 45.7823 37.4827 46.4223 38.9884 46.5528C40.4941 46.6832 41.9993 46.2962 43.2567 45.4554C46.2896 43.7402 49.3224 41.9763 52.331 40.2246C55.9057 38.1485 59.4804 36.0521 63.0552 33.9355C63.5647 33.6435 63.9286 33.6192 64.2683 34.1666C65.2712 35.9508 66.2983 37.7268 67.3497 39.4947C67.6772 40.0665 67.3497 40.2854 66.9372 40.5409L57.4262 46.1001C54.2356 47.937 51.0329 49.7495 47.8545 51.635C45.7444 52.9559 43.3378 53.7254 40.8547 53.8733V53.8733Z" fill="#070707"/>
<path d="M40.2453 33.458C40.9224 33.458 41.5928 33.5917 42.2184 33.8515C42.8439 34.1114 43.4123 34.4922 43.891 34.9723C44.3698 35.4523 44.7496 36.0223 45.0087 36.6495C45.2678 37.2768 45.4011 37.9491 45.4011 38.628C45.4011 39.3069 45.2678 39.9792 45.0087 40.6064C44.7496 41.2337 44.3698 41.8036 43.891 42.2837C43.4123 42.7638 42.8439 43.1446 42.2184 43.4044C41.5928 43.6642 40.9224 43.798 40.2453 43.798C39.5682 43.798 38.8978 43.6642 38.2723 43.4044C37.6467 43.1446 37.0783 42.7638 36.5996 42.2837C36.1208 41.8036 35.741 41.2337 35.4819 40.6064C35.2228 39.9792 35.0895 39.3069 35.0895 38.628C35.0895 37.9491 35.2228 37.2768 35.4819 36.6495C35.741 36.0223 36.1208 35.4523 36.5996 34.9723C37.0783 34.4922 37.6467 34.1114 38.2723 33.8515C38.8978 33.5917 39.5682 33.458 40.2453 33.458V33.458Z" fill="#070707"/>
<path d="M19.284 49.1241C19.3304 48.425 19.64 47.7697 20.1502 47.291C20.6604 46.8122 21.333 46.5459 22.0318 46.5459C22.7305 46.5459 23.4031 46.8122 23.9133 47.291C24.4235 47.7697 24.7332 48.425 24.7795 49.1241C24.7796 49.493 24.7065 49.8583 24.5646 50.1986C24.4228 50.539 24.2149 50.8477 23.953 51.1069C23.6912 51.3661 23.3806 51.5705 23.0394 51.7083C22.6981 51.8461 22.3329 51.9146 21.965 51.9098C21.6061 51.9051 21.2516 51.8291 20.9222 51.6862C20.5927 51.5433 20.2947 51.3364 20.0454 51.0774C19.7961 50.8184 19.6005 50.5124 19.4698 50.1771C19.3391 49.8419 19.276 49.484 19.284 49.1241V49.1241Z" fill="#070707"/>
<path d="M60.529 28.4439C60.529 29.1117 60.2645 29.7522 59.7935 30.2244C59.3226 30.6967 58.6839 30.962 58.0178 30.962C57.3518 30.962 56.7131 30.6967 56.2422 30.2244C55.7712 29.7522 55.5067 29.1117 55.5067 28.4439C55.5067 27.776 55.7712 27.1355 56.2422 26.6633C56.7131 26.1911 57.3518 25.9258 58.0178 25.9258C58.6839 25.9258 59.3226 26.1911 59.7935 26.6633C60.2645 27.1355 60.529 27.776 60.529 28.4439V28.4439Z" fill="#070707"/>
<path d="M110.051 29.7383C110.056 30.0112 110.005 30.2823 109.901 30.5346C109.798 30.7869 109.643 31.015 109.447 31.2046C109.251 31.3941 109.018 31.5411 108.763 31.6363C108.508 31.7314 108.236 31.7727 107.964 31.7576C107.692 31.7698 107.421 31.7249 107.167 31.6258C106.914 31.5266 106.683 31.3754 106.492 31.1818C106.3 30.9883 106.15 30.7566 106.053 30.5017C105.955 30.2469 105.912 29.9744 105.926 29.7018C105.926 29.1533 106.143 28.6273 106.53 28.2395C106.917 27.8517 107.441 27.6338 107.988 27.6338C108.535 27.6338 109.06 27.8517 109.447 28.2395C109.833 28.6273 110.051 29.1533 110.051 29.7018V29.7383Z" fill="#070707"/>
<path d="M97.6757 37.6017L93.83 45.2411L93.4297 46.0075C92.5077 47.8322 92.2165 47.9781 90.1299 47.7227C89.5719 47.6497 89.4142 47.2483 89.208 46.859C87.7279 44.0125 86.2722 41.1538 84.7921 38.3438C84.6587 38.0761 84.598 37.7234 84.2584 37.5774C84.0036 37.8937 84.1128 38.2586 84.1128 38.5871C84.1128 42.3459 84.1128 46.0926 84.1128 49.8515C84.1128 50.7638 83.8459 51.068 82.8996 51.068C80.1458 51.068 80.1458 51.068 80.1458 48.3431V29.2568C80.1458 27.9187 80.1458 27.8822 81.4803 27.9065C84.3675 27.9065 83.6154 27.4808 84.9013 30.0232C86.8059 33.8064 88.6499 37.6139 90.5182 41.4092C90.6759 41.7134 90.7123 42.2121 91.1247 42.1878C91.5372 42.1635 91.5493 41.689 91.707 41.3849C93.733 37.2611 95.7104 33.1373 97.7121 28.9892C97.8302 28.6269 98.0703 28.3172 98.3913 28.113C98.7122 27.9088 99.094 27.8229 99.4711 27.87C102.31 27.9673 101.897 27.5172 101.897 30.3029C101.897 36.7502 101.897 43.1974 101.897 49.6447C101.922 50.9828 101.922 50.9828 100.563 50.9828C97.9062 50.9828 97.9062 50.9828 97.9062 48.3796V37.6625L97.6757 37.6017Z" fill="#070707"/>
<path d="M255.238 39.4481V49.4596C255.238 50.7612 255.238 50.7855 253.867 50.7855C251.575 50.7855 251.769 50.9923 251.769 48.7419V38.4506C251.769 38.183 251.769 37.9275 251.769 37.6721C251.769 37.4166 251.769 37.1855 251.49 37.1247C251.211 37.0639 251.198 37.3315 251.101 37.4896C251.034 37.5992 250.973 37.7129 250.919 37.8302C249.512 40.6402 248.081 43.4381 246.686 46.2481C246.561 46.6432 246.309 46.985 245.968 47.2188C245.627 47.4526 245.217 47.5649 244.805 47.5376C244.369 47.5916 243.928 47.5022 243.547 47.2828C243.167 47.0634 242.867 46.7259 242.694 46.3211C241.311 43.4746 239.807 40.6767 238.327 37.8667C238.181 37.5869 238.194 37.0152 237.72 37.1612C237.247 37.3071 237.526 37.7937 237.526 38.1222C237.526 41.881 237.526 45.6277 237.526 49.3866C237.526 50.7855 237.526 50.7855 236.143 50.7855C233.62 50.7855 233.935 51.0532 233.935 48.5837C233.935 42.1608 233.935 35.7501 233.935 29.3393C233.935 28.3783 234.214 28.1229 235.149 28.0377C235.829 27.9123 236.532 28.0427 237.123 28.4039C237.714 28.7652 238.151 29.3321 238.351 29.9962C240.122 33.9132 242.1 37.7329 244.005 41.5769C244.186 41.9297 244.235 42.5136 244.708 42.5136C245.181 42.5136 245.254 41.9419 245.412 41.5769C247.304 37.4774 249.342 33.4388 251.308 29.4123C251.444 28.9736 251.731 28.5974 252.117 28.3503C252.503 28.1031 252.964 28.001 253.418 28.062C255.226 28.1472 255.226 28.062 255.226 29.9232L255.238 39.4481Z" fill="#070707"/>
<path d="M156.768 42.711V35.7772C156.768 34.3661 156.768 34.3661 158.224 34.3661C158.551 34.3661 158.867 34.3661 159.194 34.3661C159.789 34.3661 160.189 34.5121 160.25 35.1812C160.31 35.8502 160.613 35.8624 161.111 35.5218C162.317 34.6438 163.769 34.1712 165.26 34.1715C165.956 34.1398 166.65 34.2757 167.283 34.5677C167.916 34.8598 168.47 35.2995 168.899 35.8502C169.3 36.3854 169.603 36.3246 170.112 35.984C171.53 34.7955 173.324 34.1528 175.171 34.1715C176.242 34.1729 177.278 34.5531 178.097 35.2451C178.916 35.9371 179.465 36.8966 179.648 37.9547C179.795 38.6791 179.864 39.4173 179.854 40.1565C179.854 43.3679 179.854 46.5672 179.854 49.7787C179.854 50.6667 179.635 50.9951 178.641 50.9951C176.105 50.9951 176.105 50.9951 176.105 48.4406C176.105 45.886 176.105 43.1733 176.105 40.5457C176.105 37.9182 174.565 37.0788 172.272 38.1128C172.09 38.198 171.932 38.3075 171.75 38.3804C171.189 38.56 170.713 38.9379 170.409 39.4437C170.106 39.9495 169.996 40.5487 170.1 41.1296C170.234 44.0492 170.1 46.9687 170.1 49.8882C170.1 50.7032 169.882 51.0438 169.008 51.0195C165.903 50.9222 166.424 51.4331 166.388 48.4527C166.388 45.8252 166.388 43.1855 166.388 40.5579C166.388 38.125 165.029 37.2126 162.749 38.0155L162.482 38.125C160.504 38.9522 160.456 39.0252 160.456 41.154C160.456 44.0127 160.456 46.8713 160.456 49.6692C160.456 50.5937 160.237 51.0073 159.243 50.9708C156.355 50.8735 156.816 51.3358 156.816 48.5379C156.756 46.6159 156.768 44.6695 156.768 42.711Z" fill="#070707"/>
<path d="M213.301 39.0441C213.301 42.6935 213.301 46.2334 213.301 49.8219C213.301 50.7343 213.034 51.1357 212.088 51.0384C211.685 50.9983 211.278 50.9983 210.875 51.0384C210.268 51.0384 209.868 50.8924 209.795 50.2355C209.722 49.5786 209.395 49.5908 208.885 49.8828C207.336 50.8832 205.488 51.3131 203.657 51.0992C202.471 51.0145 201.359 50.4885 200.54 49.6243C199.721 48.7601 199.253 47.6201 199.229 46.428C199.09 43.9971 199.09 41.5602 199.229 39.1292C199.331 37.8227 199.914 36.6009 200.865 35.7015C201.815 34.8022 203.066 34.2896 204.373 34.2634C205.85 34.1745 207.332 34.3643 208.74 34.823C209.468 35.0784 209.625 34.823 209.613 34.1417C209.613 32.1224 209.613 30.1031 209.613 28.0594C209.613 27.3052 209.88 27.0498 210.632 27.0619C213.835 27.1471 213.277 26.624 213.313 29.653C213.35 32.682 213.301 35.9056 213.301 39.0441ZM209.662 42.3772C209.68 42.0612 209.68 41.7444 209.662 41.4283C209.577 40.4795 210.099 39.2995 209.407 38.6548C208.423 37.9731 207.242 37.6354 206.047 37.6938H205.756C205.385 37.6293 205.004 37.6521 204.644 37.7604C204.283 37.8688 203.953 38.0597 203.679 38.3181C203.405 38.5765 203.194 38.8953 203.064 39.2493C202.934 39.6033 202.888 39.9828 202.929 40.3579C202.929 41.9636 202.929 43.5572 202.929 45.2237C202.889 45.6164 202.949 46.0127 203.104 46.3756C203.258 46.7386 203.502 47.0564 203.812 47.2994C204.122 47.5423 204.489 47.7025 204.878 47.765C205.266 47.8275 205.664 47.7902 206.035 47.6566C207.103 47.4122 208.126 47.0017 209.067 46.4402C209.272 46.3462 209.44 46.1893 209.55 45.9924C209.659 45.7955 209.702 45.5688 209.674 45.3454C209.589 44.3722 209.613 43.3747 209.613 42.3772H209.662Z" fill="#070707"/>
<path d="M123.103 39.0374C123.103 35.388 123.103 31.7386 123.103 28.1744C123.103 27.2864 123.382 26.9579 124.317 27.0188C126.876 27.0188 126.876 27.0188 126.876 29.549C126.876 32.5658 126.876 35.6313 126.876 38.5873C126.876 39.378 127.131 39.6092 127.92 39.6578C128.752 39.7954 129.606 39.6325 130.33 39.1982C131.054 38.7639 131.602 38.0863 131.874 37.2857C131.954 37.1105 132.043 36.94 132.141 36.7748C133.549 33.9769 133.549 33.9891 136.691 34.281C137.127 34.281 137.503 34.3784 137.212 34.9623C136.412 36.5923 135.72 38.2954 134.786 39.8281C134.434 40.3877 133.573 40.6675 133.573 41.1906C133.573 41.7136 134.458 41.9083 134.786 42.407C135.076 42.8283 135.308 43.2865 135.477 43.7695C136.157 45.8131 136.848 47.8446 137.528 49.8518C137.843 50.8006 137.746 50.8979 136.763 50.9223C133.84 51.0074 133.84 51.0074 132.918 48.2095C132.588 47.0011 132.183 45.8147 131.705 44.6575C131.227 43.9544 130.535 43.4251 129.733 43.1489C128.93 42.8726 128.06 42.8641 127.252 43.1247C126.828 43.3315 126.937 43.7086 126.925 44.0492C126.925 45.9956 126.925 47.9541 126.925 49.9126C126.925 50.6425 126.706 50.9587 125.93 50.9344C122.667 50.8614 123.261 51.3845 123.225 48.2825C123.188 45.1806 123.103 42.1516 123.103 39.0374Z" fill="#070707"/>
<path d="M230.369 44.3141C230.369 46.5159 230.369 48.2798 230.369 50.0437C230.369 50.737 230.114 51.0533 229.399 51.0047C228.915 50.9575 228.429 50.9413 227.943 50.956C227.385 50.956 226.9 50.956 226.815 50.2261C226.73 49.4963 226.329 49.6422 225.868 49.8855C224.149 50.8596 222.161 51.2481 220.203 50.9925C219.23 50.8958 218.312 50.4895 217.586 49.833C216.859 49.1764 216.36 48.3039 216.163 47.3431C215.891 46.3245 215.971 45.2436 216.39 44.2762C216.808 43.3088 217.541 42.5119 218.468 42.015C219.501 41.4161 220.672 41.0975 221.865 41.0905C223.078 41.0905 224.376 41.0905 225.626 41.0905C226.402 41.0905 226.633 40.7864 226.596 40.0565C226.627 39.7446 226.592 39.4297 226.494 39.1319C226.397 38.8341 226.239 38.5598 226.03 38.3265C225.821 38.0932 225.567 37.9059 225.282 37.7765C224.997 37.6472 224.689 37.5785 224.376 37.5749C222.702 37.2688 220.974 37.5937 219.524 38.4873C218.857 38.9374 218.553 38.7306 218.177 38.1345C216.867 36.0543 216.867 35.9205 219.184 34.996C221.493 34.0422 224.05 33.8755 226.463 34.5216C227.505 34.7622 228.438 35.3409 229.118 36.168C229.798 36.9951 230.187 38.0242 230.224 39.0955C230.43 40.9689 230.369 42.8665 230.369 44.3141ZM223.988 43.9614C223.163 43.9614 222.326 43.9613 221.562 44.1317C221.207 44.1609 220.872 44.3067 220.609 44.5465C220.346 44.7863 220.169 45.1066 220.106 45.4576C219.99 45.8106 219.993 46.1919 220.113 46.5433C220.234 46.8947 220.466 47.1969 220.773 47.4039C221.428 47.8236 222.22 47.9719 222.981 47.8175C223.988 47.6464 224.963 47.318 225.868 46.8444C226.271 46.6467 226.582 46.3017 226.738 45.8807C226.893 45.4596 226.882 44.9946 226.706 44.5817C226.499 43.7181 225.808 44.0708 225.298 44.01C224.859 43.9665 224.417 43.9503 223.976 43.9614H223.988Z" fill="#070707"/>
<path d="M191.355 43.9047C189.984 43.9047 188.601 43.9047 187.218 43.9047C186.551 43.9047 186.308 44.1601 186.333 44.8292C186.331 45.4935 186.557 46.1383 186.972 46.6562C187.387 47.1741 187.966 47.5339 188.613 47.6757C189.378 47.8703 190.176 47.8982 190.952 47.7576C191.728 47.617 192.466 47.3112 193.114 46.8607C193.697 46.4592 194.085 46.4836 194.473 47.0431C194.592 47.1977 194.722 47.344 194.861 47.4811C196.183 48.9651 196.196 49.1598 194.388 50.0965C193.041 50.8317 191.535 51.2239 190.001 51.2388C188.467 51.2536 186.954 50.8906 185.593 50.1816C184.716 49.7611 183.977 49.1004 183.459 48.2759C182.942 47.4513 182.668 46.4967 182.669 45.5226C182.596 43.7587 182.572 41.9827 182.669 40.2309C182.9 36.3018 186.308 33.7229 190.554 34.246C194.424 34.7325 196.487 37.0681 196.499 40.9852C196.499 41.6664 196.499 42.3354 196.499 43.0045C196.499 43.6735 196.256 43.929 195.589 43.9168C194.182 43.9168 192.775 43.9168 191.355 43.9168V43.9047ZM189.548 41.2284H192.047C192.568 41.2284 192.799 41.0338 192.799 40.4864C192.784 40.081 192.687 39.6827 192.515 39.3153C192.344 38.9479 192.1 38.6189 191.799 38.3477C191.498 38.0765 191.146 37.8688 190.763 37.7367C190.381 37.6047 189.976 37.5511 189.572 37.5791C188.762 37.5459 187.973 37.8336 187.373 38.38C186.774 38.9264 186.413 39.6875 186.369 40.4986C186.369 40.9973 186.575 41.2041 187.049 41.2041L189.548 41.2284Z" fill="#070707"/>
<path d="M139.675 42.7201C139.675 42.1362 139.675 41.5036 139.675 40.9805C139.456 36.5891 142.586 34.5698 145.813 34.217C147.033 34.0674 148.271 34.1667 149.453 34.509C150.744 34.8137 151.893 35.5513 152.709 36.5998C153.525 37.6484 153.96 38.945 153.941 40.275C153.941 41.7469 153.941 43.2188 153.941 44.7029C154.017 46.1093 153.587 47.4963 152.73 48.6123C151.873 49.7282 150.646 50.4992 149.271 50.7852C147.265 51.3687 145.12 51.231 143.205 50.396C142.197 49.9961 141.331 49.3051 140.715 48.4107C140.099 47.5162 139.763 46.4586 139.747 45.372C139.747 44.484 139.747 43.5838 139.747 42.6836L139.675 42.7201ZM143.387 42.7201C143.387 43.3526 143.387 43.9974 143.387 44.6421C143.362 45.0622 143.429 45.4826 143.581 45.8746C143.734 46.2666 143.969 46.6209 144.271 46.9132C144.573 47.2055 144.934 47.4289 145.33 47.5681C145.726 47.7073 146.147 47.759 146.565 47.7197C148.664 47.7927 150.071 46.7466 150.205 44.8611C150.302 43.4232 150.302 41.9805 150.205 40.5426C150.077 39.7174 149.654 38.9669 149.015 38.431C148.377 37.895 147.565 37.6102 146.733 37.6296C145.9 37.6489 145.103 37.9711 144.489 38.5361C143.876 39.1011 143.489 39.8705 143.399 40.7008C143.363 41.3576 143.387 42.0389 143.387 42.7079V42.7201Z" fill="#070707"/>
<path d="M114.648 37.5815C114.648 34.4431 114.648 31.2924 114.648 28.154C114.648 27.3024 114.866 26.9375 115.776 26.9375C118.36 26.9375 118.36 26.9375 118.36 29.5407V45.7197C118.36 47.2889 118.494 47.4592 120.01 47.7512C120.471 47.8363 120.689 48.0066 120.714 48.481C120.871 51.1451 121.199 51.1937 118.287 51.1207C117.834 51.1674 117.377 51.117 116.945 50.9729C116.513 50.8288 116.116 50.5943 115.781 50.2849C115.446 49.9755 115.181 49.5983 115.002 49.1783C114.823 48.7583 114.736 48.305 114.745 47.8485C114.624 46.7415 114.66 45.6102 114.648 44.491C114.636 42.2406 114.648 39.9293 114.648 37.5815Z" fill="#070707"/>
<path d="M267.515 39.5309C267.515 42.9005 267.515 46.2701 267.515 49.6275C267.515 50.5034 267.261 50.844 266.363 50.844C263.779 50.7832 264.118 51.0995 264.106 48.5692C264.106 43.6304 264.106 38.6915 264.106 33.7527C264.106 33.4121 264.264 32.9498 263.912 32.7674C263.56 32.5849 263.221 33.0107 262.954 33.2418C261.146 34.7624 261.474 34.8353 259.921 32.7795C259.606 32.3538 259.618 32.1105 260.042 31.7577C261.255 30.7845 262.469 29.787 263.536 28.753C264.604 27.719 265.902 28.157 267.115 28.2056C267.6 28.2056 267.491 28.8017 267.491 29.1666C267.527 32.5971 267.515 36.064 267.515 39.5309Z" fill="#070707"/>
<path d="M109.855 42.7117C109.855 45.1446 109.855 47.5167 109.855 49.9253C109.855 50.7525 109.601 51.1418 108.751 51.0323C108.239 50.9837 107.723 50.9837 107.211 51.0323C106.349 51.1175 106.119 50.7282 106.131 49.9132C106.131 45.1041 106.131 40.299 106.131 35.4981C106.131 34.6709 106.374 34.2816 107.223 34.3789C107.768 34.4276 108.316 34.4276 108.861 34.3789C109.637 34.3789 109.855 34.6709 109.843 35.4007C109.831 37.8458 109.855 40.2788 109.855 42.7117Z" fill="#070707"/>
<path d="M54.7552 32.8567C54.7552 33.2459 54.5126 33.3676 54.2942 33.4892C52.5473 34.4989 50.7882 35.4964 49.0413 36.5304C48.5196 36.8345 48.2406 36.6764 47.9737 36.1898C47.3675 35.0577 46.5991 34.0208 45.693 33.1121C43.0484 30.4724 40.1975 30.0101 36.9584 31.8957C30.2619 35.7032 23.6139 39.5715 16.9416 43.4277C15.7285 44.0968 15.7285 44.0968 15.0855 42.9168C14.1393 41.2381 13.2173 39.5837 12.2346 37.9658C11.8828 37.3819 11.8828 37.0413 12.5379 36.6763C19.4164 32.7228 26.2343 28.6964 33.1492 24.8402C35.7928 23.3583 38.8343 22.7478 41.8432 23.0949C44.852 23.442 47.6757 24.7292 49.9148 26.7743C51.6627 28.3372 53.1675 30.1536 54.3791 32.1633C54.5201 32.3855 54.6458 32.6172 54.7552 32.8567V32.8567Z" fill="#070707"/>
<path d="M40.8547 53.8733C38.8702 53.9724 36.8863 53.6655 35.0238 52.9712C33.1614 52.2768 31.4593 51.2097 30.0214 49.8347C28.4754 48.3901 27.118 46.7552 25.9816 44.9688C25.557 44.3119 25.5934 43.9227 26.3334 43.5334C27.8256 42.7305 29.3177 41.9033 30.7614 41.0031C31.5499 40.5044 31.9139 40.7234 32.3021 41.4776C32.9662 42.7317 33.8736 43.8401 34.971 44.7377C36.0659 45.7823 37.4827 46.4223 38.9884 46.5528C40.4941 46.6832 41.9993 46.2962 43.2567 45.4554C46.2896 43.7402 49.3224 41.9763 52.331 40.2246C55.9057 38.1485 59.4804 36.0521 63.0552 33.9355C63.5647 33.6435 63.9286 33.6192 64.2683 34.1666C65.2712 35.9508 66.2983 37.7268 67.3497 39.4947C67.6772 40.0665 67.3497 40.2854 66.9372 40.5409L57.4262 46.1001C54.2356 47.937 51.0329 49.7495 47.8545 51.635C45.7444 52.9559 43.3378 53.7254 40.8547 53.8733V53.8733Z" fill="#070707"/>
<path d="M40.2453 33.458C40.9224 33.458 41.5928 33.5917 42.2184 33.8515C42.8439 34.1114 43.4123 34.4922 43.891 34.9723C44.3698 35.4523 44.7496 36.0223 45.0087 36.6495C45.2678 37.2768 45.4011 37.9491 45.4011 38.628C45.4011 39.3069 45.2678 39.9792 45.0087 40.6064C44.7496 41.2337 44.3698 41.8036 43.891 42.2837C43.4123 42.7638 42.8439 43.1446 42.2184 43.4044C41.5928 43.6642 40.9224 43.798 40.2453 43.798C39.5682 43.798 38.8978 43.6642 38.2723 43.4044C37.6467 43.1446 37.0783 42.7638 36.5996 42.2837C36.1208 41.8036 35.741 41.2337 35.4819 40.6064C35.2228 39.9792 35.0895 39.3069 35.0895 38.628C35.0895 37.9491 35.2228 37.2768 35.4819 36.6495C35.741 36.0223 36.1208 35.4523 36.5996 34.9723C37.0783 34.4922 37.6467 34.1114 38.2723 33.8515C38.8978 33.5917 39.5682 33.458 40.2453 33.458V33.458Z" fill="#070707"/>
<path d="M19.284 49.1241C19.3304 48.425 19.64 47.7697 20.1502 47.291C20.6604 46.8122 21.333 46.5459 22.0318 46.5459C22.7305 46.5459 23.4031 46.8122 23.9133 47.291C24.4235 47.7697 24.7332 48.425 24.7795 49.1241C24.7796 49.493 24.7065 49.8583 24.5646 50.1986C24.4228 50.539 24.2149 50.8477 23.953 51.1069C23.6912 51.3661 23.3806 51.5705 23.0394 51.7083C22.6981 51.8461 22.3329 51.9146 21.965 51.9098C21.6061 51.9051 21.2516 51.8291 20.9222 51.6862C20.5927 51.5433 20.2947 51.3364 20.0454 51.0774C19.7961 50.8184 19.6005 50.5124 19.4698 50.1771C19.3391 49.8419 19.276 49.484 19.284 49.1241V49.1241Z" fill="#070707"/>
<path d="M60.529 28.4439C60.529 29.1117 60.2645 29.7522 59.7935 30.2244C59.3226 30.6967 58.6839 30.962 58.0178 30.962C57.3518 30.962 56.7131 30.6967 56.2422 30.2244C55.7712 29.7522 55.5067 29.1117 55.5067 28.4439C55.5067 27.776 55.7712 27.1355 56.2422 26.6633C56.7131 26.1911 57.3518 25.9258 58.0178 25.9258C58.6839 25.9258 59.3226 26.1911 59.7935 26.6633C60.2645 27.1355 60.529 27.776 60.529 28.4439V28.4439Z" fill="#070707"/>
<path d="M110.051 29.7383C110.056 30.0112 110.005 30.2823 109.901 30.5346C109.798 30.7869 109.643 31.015 109.447 31.2046C109.251 31.3941 109.018 31.5411 108.763 31.6363C108.508 31.7314 108.236 31.7727 107.964 31.7576C107.692 31.7698 107.421 31.7249 107.167 31.6258C106.914 31.5266 106.683 31.3754 106.492 31.1818C106.3 30.9883 106.15 30.7566 106.053 30.5017C105.955 30.2469 105.912 29.9744 105.926 29.7018C105.926 29.1533 106.143 28.6273 106.53 28.2395C106.917 27.8517 107.441 27.6338 107.988 27.6338C108.535 27.6338 109.06 27.8517 109.447 28.2395C109.833 28.6273 110.051 29.1533 110.051 29.7018V29.7383Z" fill="#070707"/>
</g>
<defs>
<clipPath id="clip0_306_39">
<rect width="285" height="77" fill="white"/>
</clipPath>
</defs>
</svg>
