<svg width="203" height="68" viewBox="0 0 203 68" fill="none" xmlns="http://www.w3.org/2000/svg">
<path d="M5 8L5 64C5 65.6569 6.34315 67 8 67L199 67C200.657 67 202 65.6569 202 64V8C202 6.34315 200.657 5 199 5L8 5C6.34315 5 5 6.34315 5 8Z" stroke="#ECBD00" stroke-width="2"/>
<path d="M0 4L0 60C0 62.2091 1.79086 64 4 64L195 64C197.209 64 199 62.2091 199 60V4C199 1.79086 197.209 0 195 0L4 0C1.79086 0 0 1.79086 0 4Z" fill="#F8F7F4"/>
<path d="M69.0251 33.3719L66.2859 38.7984L66.0008 39.3428C65.3441 40.639 65.1367 40.7426 63.6505 40.5612C63.253 40.5093 63.1406 40.2242 62.9937 39.9477C61.9395 37.9257 60.9026 35.8951 59.8484 33.899C59.7534 33.7089 59.7102 33.4583 59.4682 33.3546C59.2868 33.5793 59.3645 33.8385 59.3645 34.0718C59.3645 36.7419 59.3645 39.4033 59.3645 42.0734C59.3645 42.7214 59.1744 42.9375 58.5004 42.9375C56.5389 42.9375 56.5389 42.9375 56.5389 41.0019V27.4442C56.5389 26.4937 56.5389 26.4678 57.4894 26.4851C59.546 26.4851 59.0103 26.1826 59.9262 27.9886C61.2828 30.6759 62.5963 33.3806 63.927 36.0765C64.0393 36.2926 64.0652 36.6468 64.359 36.6296C64.6528 36.6123 64.6614 36.2753 64.7738 36.0592C66.2168 33.13 67.6253 30.2007 69.0511 27.2541C69.1352 26.9968 69.3062 26.7768 69.5348 26.6317C69.7634 26.4867 70.0353 26.4257 70.304 26.4591C72.326 26.5283 72.0322 26.2086 72.0322 28.1873C72.0322 32.767 72.0322 37.3468 72.0322 41.9265C72.0495 42.877 72.0495 42.877 71.0817 42.877C69.1893 42.877 69.1893 42.877 69.1893 41.0278V33.4151L69.0251 33.3719Z" fill="#070707"/>
<path d="M181.254 34.6832V41.7947C181.254 42.7193 181.254 42.7365 180.277 42.7365C178.644 42.7365 178.783 42.8834 178.783 41.2849V33.9746C178.783 33.7845 178.783 33.603 178.783 33.4216C178.783 33.2401 178.783 33.0759 178.584 33.0327C178.385 32.9895 178.376 33.1796 178.307 33.292C178.259 33.3698 178.216 33.4506 178.178 33.5339C177.175 35.53 176.156 37.5174 175.162 39.5135C175.074 39.7941 174.894 40.0369 174.651 40.203C174.408 40.3691 174.116 40.4488 173.823 40.4294C173.512 40.4678 173.198 40.4042 172.927 40.2484C172.655 40.0925 172.442 39.8528 172.319 39.5653C171.334 37.5433 170.263 35.5559 169.208 33.5598C169.105 33.3611 169.113 32.955 168.776 33.0587C168.439 33.1624 168.638 33.508 168.638 33.7413C168.638 36.4114 168.638 39.0728 168.638 41.7428C168.638 42.7365 168.638 42.7365 167.653 42.7365C165.856 42.7365 166.08 42.9266 166.08 41.1725C166.08 36.6101 166.08 32.0563 166.08 27.5025C166.08 26.8199 166.279 26.6384 166.944 26.578C167.429 26.4889 167.93 26.5815 168.351 26.8381C168.771 27.0947 169.083 27.4974 169.226 27.9691C170.487 30.7515 171.896 33.4648 173.252 36.1953C173.382 36.4459 173.417 36.8607 173.754 36.8607C174.091 36.8607 174.142 36.4546 174.255 36.1953C175.603 33.2833 177.054 30.4145 178.454 27.5544C178.551 27.2428 178.755 26.9755 179.031 26.8C179.306 26.6244 179.634 26.5519 179.958 26.5952C181.245 26.6557 181.245 26.5952 181.245 27.9173L181.254 34.6832Z" fill="#070707"/>
<path d="M111.115 37.0018V32.0764C111.115 31.0741 111.115 31.0741 112.152 31.0741C112.386 31.0741 112.61 31.0741 112.844 31.0741C113.267 31.0741 113.552 31.1778 113.595 31.653C113.638 32.1283 113.855 32.1369 114.209 31.895C115.068 31.2713 116.102 30.9356 117.164 30.9358C117.66 30.9133 118.154 31.0098 118.605 31.2173C119.056 31.4247 119.451 31.7371 119.756 32.1283C120.041 32.5085 120.257 32.4653 120.62 32.2233C121.63 31.3791 122.908 30.9225 124.224 30.9358C124.986 30.9368 125.724 31.2069 126.308 31.6985C126.891 32.19 127.282 32.8716 127.412 33.6232C127.517 34.1377 127.566 34.6621 127.559 35.1872C127.559 37.4684 127.559 39.741 127.559 42.0222C127.559 42.653 127.404 42.8863 126.695 42.8863C124.889 42.8863 124.889 42.8863 124.889 41.0717C124.889 39.2571 124.889 37.3301 124.889 35.4637C124.889 33.5972 123.792 33.001 122.158 33.7355C122.029 33.796 121.917 33.8737 121.787 33.9256C121.387 34.0531 121.048 34.3215 120.832 34.6808C120.616 35.0401 120.537 35.4658 120.612 35.8784C120.707 37.9523 120.612 40.0261 120.612 42.0999C120.612 42.6789 120.456 42.9208 119.834 42.9035C117.622 42.8344 117.994 43.1973 117.968 41.0803C117.968 39.2139 117.968 37.3388 117.968 35.4723C117.968 33.7441 117 33.0961 115.375 33.6664L115.185 33.7441C113.777 34.3317 113.742 34.3836 113.742 35.8957C113.742 37.9263 113.742 39.957 113.742 41.9444C113.742 42.6011 113.587 42.8949 112.878 42.869C110.822 42.7999 111.15 43.1282 111.15 41.1408C111.107 39.7755 111.115 38.393 111.115 37.0018Z" fill="#070707"/>
<path d="M151.383 34.3964C151.383 36.9887 151.383 39.5032 151.383 42.0523C151.383 42.7004 151.193 42.9855 150.519 42.9164C150.232 42.8879 149.942 42.8879 149.655 42.9164C149.223 42.9164 148.938 42.8127 148.886 42.3461C148.834 41.8795 148.601 41.8881 148.238 42.0955C147.134 42.8061 145.817 43.1115 144.513 42.9596C143.669 42.8994 142.877 42.5258 142.293 41.9119C141.71 41.298 141.377 40.4882 141.359 39.6415C141.26 37.9147 141.26 36.1837 141.359 34.4569C141.432 33.5288 141.848 32.6609 142.525 32.0221C143.202 31.3832 144.092 31.0191 145.023 31.0005C146.076 30.9374 147.131 31.0722 148.134 31.398C148.652 31.5795 148.765 31.398 148.756 30.9141C148.756 29.4797 148.756 28.0453 148.756 26.5936C148.756 26.0579 148.946 25.8764 149.482 25.8851C151.763 25.9455 151.366 25.574 151.392 27.7256C151.418 29.8772 151.383 32.167 151.383 34.3964ZM148.791 36.764C148.804 36.5395 148.804 36.3145 148.791 36.09C148.73 35.416 149.102 34.5779 148.609 34.1199C147.908 33.6357 147.067 33.3958 146.216 33.4373H146.008C145.744 33.3914 145.473 33.4076 145.216 33.4846C144.96 33.5616 144.724 33.6972 144.529 33.8807C144.334 34.0643 144.184 34.2907 144.091 34.5422C143.998 34.7937 143.966 35.0632 143.995 35.3296C143.995 36.4702 143.995 37.6022 143.995 38.786C143.967 39.0649 144.01 39.3464 144.12 39.6043C144.23 39.8621 144.403 40.0878 144.624 40.2604C144.845 40.433 145.106 40.5468 145.383 40.5912C145.66 40.6356 145.943 40.6091 146.207 40.5142C146.968 40.3406 147.697 40.049 148.367 39.6501C148.513 39.5833 148.633 39.4719 148.711 39.332C148.788 39.1922 148.819 39.0312 148.799 38.8724C148.739 38.1811 148.756 37.4726 148.756 36.764H148.791Z" fill="#070707"/>
<path d="M87.1368 34.3919C87.1368 31.7996 87.1368 29.2073 87.1368 26.6755C87.1368 26.0447 87.3356 25.8114 88.0009 25.8546C89.8242 25.8546 89.8242 25.8546 89.8242 27.6519C89.8242 29.7949 89.8242 31.9724 89.8242 34.0722C89.8242 34.6338 90.0056 34.798 90.5673 34.8326C91.1603 34.9303 91.7687 34.8146 92.2844 34.5061C92.8002 34.1976 93.1899 33.7163 93.3843 33.1476C93.4408 33.0232 93.5043 32.902 93.5744 32.7847C94.5767 30.7972 94.5767 30.8059 96.8147 31.0133C97.1258 31.0133 97.3937 31.0824 97.1863 31.4972C96.616 32.6551 96.1234 33.8648 95.4581 34.9536C95.2075 35.351 94.594 35.5498 94.594 35.9213C94.594 36.2929 95.2248 36.4312 95.4581 36.7854C95.6646 37.0847 95.8302 37.4102 95.9506 37.7532C96.4345 39.2049 96.9271 40.6479 97.4109 42.0737C97.6356 42.7477 97.5665 42.8168 96.8666 42.8341C94.7841 42.8946 94.7841 42.8946 94.1274 40.9072C93.8927 40.0488 93.6041 39.2061 93.2633 38.384C92.923 37.8846 92.4303 37.5086 91.8587 37.3124C91.2871 37.1162 90.6673 37.1101 90.092 37.2953C89.7896 37.4421 89.8674 37.71 89.8587 37.952C89.8587 39.3345 89.8587 40.7257 89.8587 42.1169C89.8587 42.6354 89.7032 42.86 89.1502 42.8427C86.8258 42.7909 87.2492 43.1625 87.2232 40.959C87.1973 38.7556 87.1368 36.604 87.1368 34.3919Z" fill="#070707"/>
<path d="M163.54 38.1399C163.54 39.7039 163.54 40.9569 163.54 42.2098C163.54 42.7024 163.359 42.927 162.849 42.8925C162.504 42.859 162.158 42.8474 161.812 42.8579C161.415 42.8579 161.069 42.8579 161.008 42.3394C160.948 41.821 160.663 41.9247 160.334 42.0975C159.11 42.7894 157.694 43.0654 156.299 42.8838C155.606 42.8152 154.952 42.5265 154.435 42.0602C153.917 41.5938 153.562 40.974 153.422 40.2915C153.228 39.568 153.285 38.8002 153.583 38.113C153.881 37.4258 154.403 36.8597 155.063 36.5068C155.799 36.0814 156.633 35.8551 157.483 35.8501C158.347 35.8501 159.272 35.8501 160.162 35.8501C160.715 35.8501 160.879 35.6341 160.853 35.1156C160.874 34.894 160.85 34.6704 160.78 34.4588C160.711 34.2473 160.598 34.0525 160.45 33.8867C160.301 33.721 160.119 33.588 159.917 33.4961C159.714 33.4042 159.494 33.3554 159.272 33.3528C158.079 33.1354 156.848 33.3662 155.815 34.0009C155.34 34.3206 155.124 34.1737 154.856 33.7503C153.923 32.2727 153.923 32.1777 155.573 31.521C157.218 30.8434 159.039 30.725 160.758 31.184C161.5 31.3548 162.165 31.766 162.649 32.3535C163.133 32.941 163.41 33.672 163.437 34.433C163.583 35.7637 163.54 37.1117 163.54 38.1399ZM158.995 37.8893C158.407 37.8893 157.811 37.8893 157.267 38.0103C157.014 38.0311 156.776 38.1347 156.588 38.305C156.401 38.4753 156.275 38.7029 156.23 38.9522C156.147 39.2029 156.149 39.4738 156.235 39.7234C156.321 39.973 156.486 40.1877 156.705 40.3347C157.171 40.6329 157.735 40.7382 158.278 40.6285C158.995 40.507 159.689 40.2737 160.334 39.9373C160.621 39.7969 160.842 39.5518 160.953 39.2527C161.064 38.9536 161.056 38.6233 160.931 38.33C160.784 37.7165 160.291 37.9671 159.928 37.9239C159.615 37.893 159.301 37.8815 158.986 37.8893H158.995Z" fill="#070707"/>
<path d="M135.751 37.8491C134.775 37.8491 133.79 37.8491 132.805 37.8491C132.329 37.8491 132.157 38.0306 132.174 38.5058C132.173 38.9777 132.333 39.4358 132.629 39.8037C132.925 40.1715 133.337 40.4271 133.798 40.5278C134.343 40.666 134.911 40.6859 135.464 40.586C136.017 40.4861 136.542 40.2689 137.004 39.9489C137.419 39.6637 137.695 39.681 137.972 40.0785C138.057 40.1882 138.149 40.2922 138.248 40.3896C139.19 41.4437 139.199 41.582 137.911 42.2474C136.952 42.7696 135.879 43.0482 134.787 43.0588C133.694 43.0693 132.616 42.8115 131.647 42.3078C131.023 42.0092 130.496 41.5398 130.127 40.9541C129.759 40.3684 129.563 39.6904 129.564 38.9984C129.512 37.7454 129.495 36.4838 129.564 35.2395C129.728 32.4485 132.157 30.6166 135.181 30.9882C137.937 31.3338 139.406 32.9929 139.415 35.7753C139.415 36.2592 139.415 36.7344 139.415 37.2097C139.415 37.6849 139.242 37.8664 138.767 37.8578C137.765 37.8578 136.762 37.8578 135.751 37.8578V37.8491ZM134.464 35.9481H136.244C136.615 35.9481 136.779 35.8098 136.779 35.421C136.769 35.133 136.7 34.8501 136.578 34.5891C136.455 34.3282 136.282 34.0944 136.067 33.9018C135.853 33.7092 135.602 33.5616 135.33 33.4678C135.057 33.374 134.768 33.3359 134.481 33.3558C133.904 33.3322 133.342 33.5366 132.915 33.9248C132.488 34.3129 132.231 34.8535 132.2 35.4296C132.2 35.7839 132.347 35.9308 132.684 35.9308L134.464 35.9481Z" fill="#070707"/>
<path d="M98.9402 37.008C98.9402 36.5932 98.9402 36.1439 98.9402 35.7723C98.7846 32.6529 101.014 31.2185 103.313 30.9679C104.182 30.8617 105.064 30.9322 105.905 31.1753C106.825 31.3918 107.643 31.9157 108.224 32.6605C108.806 33.4054 109.115 34.3264 109.102 35.2711C109.102 36.3167 109.102 37.3622 109.102 38.4164C109.156 39.4155 108.85 40.4007 108.24 41.1934C107.629 41.9861 106.755 42.5337 105.775 42.7369C104.347 43.1514 102.819 43.0536 101.455 42.4604C100.737 42.1764 100.12 41.6855 99.6812 41.0502C99.2428 40.4148 99.0029 39.6636 98.992 38.8917C98.992 38.2609 98.992 37.6215 98.992 36.982L98.9402 37.008ZM101.584 37.008C101.584 37.4573 101.584 37.9153 101.584 38.3732C101.567 38.6716 101.614 38.9703 101.723 39.2487C101.831 39.5272 101.999 39.7788 102.214 39.9864C102.429 40.1941 102.686 40.3528 102.968 40.4517C103.251 40.5506 103.551 40.5873 103.848 40.5594C105.343 40.6112 106.345 39.8681 106.441 38.5288C106.51 37.5074 106.51 36.4826 106.441 35.4612C106.349 34.875 106.048 34.3419 105.593 33.9613C105.138 33.5806 104.561 33.3783 103.967 33.392C103.374 33.4057 102.807 33.6346 102.37 34.036C101.933 34.4373 101.657 34.9838 101.593 35.5736C101.567 36.0402 101.584 36.5241 101.584 36.9993V37.008Z" fill="#070707"/>
<path d="M81.1142 33.3577C81.1142 31.1283 81.1142 28.8903 81.1142 26.661C81.1142 26.0561 81.2697 25.7969 81.9178 25.7969C83.7583 25.7969 83.7583 25.7969 83.7583 27.646V39.1385C83.7583 40.2532 83.8534 40.3742 84.9335 40.5816C85.2619 40.642 85.4174 40.763 85.4347 41.1C85.547 42.9924 85.7803 43.0269 83.7065 42.9751C83.3838 43.0082 83.0578 42.9724 82.75 42.87C82.4423 42.7677 82.1598 42.6011 81.9212 42.3813C81.6827 42.1616 81.4935 41.8937 81.3663 41.5953C81.2391 41.2969 81.1767 40.975 81.1833 40.6507C81.0969 39.8644 81.1228 39.0607 81.1142 38.2658C81.1056 36.6672 81.1142 35.0254 81.1142 33.3577Z" fill="#070707"/>
<path d="M189.999 34.743C189.999 37.1365 189.999 39.5301 189.999 41.915C189.999 42.5371 189.817 42.7791 189.178 42.7791C187.337 42.7359 187.579 42.9605 187.57 41.1632C187.57 37.655 187.57 34.1468 187.57 30.6385C187.57 30.3966 187.683 30.0682 187.432 29.9386C187.182 29.809 186.94 30.1114 186.75 30.2756C185.462 31.3557 185.695 31.4076 184.589 29.9472C184.365 29.6448 184.373 29.472 184.676 29.2214C185.54 28.5301 186.404 27.8216 187.164 27.0871C187.925 26.3526 188.849 26.6637 189.713 26.6982C190.059 26.6982 189.981 27.1217 189.981 27.3809C190.007 29.8176 189.999 32.2803 189.999 34.743Z" fill="#070707"/>
<path d="M77.7005 37.0017C77.7005 38.7299 77.7005 40.4149 77.7005 42.1258C77.7005 42.7134 77.519 42.9899 76.9141 42.9121C76.5491 42.8776 76.1817 42.8776 75.8167 42.9121C75.2032 42.9726 75.039 42.6961 75.0477 42.1172C75.0477 38.7011 75.0477 35.2879 75.0477 31.8776C75.0477 31.2901 75.2205 31.0135 75.8254 31.0827C76.2134 31.1172 76.6038 31.1172 76.9919 31.0827C77.5449 31.0827 77.7005 31.2901 77.6918 31.8085C77.6832 33.5453 77.7005 35.2735 77.7005 37.0017Z" fill="#070707"/>
<path d="M38.4537 30.0015C38.4537 30.278 38.2809 30.3645 38.1253 30.4509C36.881 31.1681 35.6281 31.8766 34.3838 32.6111C34.0122 32.8271 33.8135 32.7148 33.6234 32.3692C33.1916 31.565 32.6443 30.8284 31.9989 30.183C30.1152 28.3079 28.0845 27.9795 25.7774 29.3189C21.0076 32.0235 16.2724 34.7713 11.5198 37.5105C10.6557 37.9858 10.6557 37.9858 10.1978 37.1476C9.52376 35.9552 8.86705 34.78 8.16713 33.6307C7.91655 33.216 7.91655 32.974 8.38316 32.7148C13.2826 29.9065 18.1388 27.0463 23.0641 24.3071C24.9472 23.2545 27.1136 22.8208 29.2567 23.0674C31.3998 23.314 33.4111 24.2283 35.0059 25.6811C36.251 26.7912 37.3228 28.0815 38.1858 29.509C38.2863 29.6669 38.3758 29.8314 38.4537 30.0015V30.0015Z" fill="#070707"/>
<path d="M28.5526 44.9305C27.1391 45.0009 25.726 44.7829 24.3994 44.2897C23.0728 43.7965 21.8605 43.0384 20.8362 42.0617C19.7351 41.0356 18.7683 39.8743 17.9588 38.6053C17.6564 38.1387 17.6823 37.8622 18.2094 37.5857C19.2722 37.0154 20.3351 36.4278 21.3633 35.7884C21.925 35.4341 22.1842 35.5896 22.4607 36.1254C22.9338 37.0163 23.5801 37.8036 24.3618 38.4412C25.1417 39.1832 26.1508 39.6378 27.2233 39.7305C28.2958 39.8231 29.3679 39.5482 30.2635 38.951C32.4238 37.7326 34.584 36.4797 36.727 35.2354C39.2732 33.7606 41.8194 32.2715 44.3656 30.768C44.7285 30.5606 44.9877 30.5433 45.2297 30.9322C45.944 32.1995 46.6756 33.4611 47.4245 34.7169C47.6578 35.123 47.4245 35.2786 47.1307 35.46L40.3562 39.4089C38.0836 40.7137 35.8024 42.0012 33.5385 43.3406C32.0355 44.2788 30.3213 44.8255 28.5526 44.9305V44.9305Z" fill="#070707"/>
<path d="M28.1186 30.4287C28.6008 30.4287 29.0784 30.5237 29.5239 30.7083C29.9695 30.8928 30.3743 31.1633 30.7154 31.5043C31.0564 31.8453 31.3269 32.2502 31.5114 32.6957C31.696 33.1413 31.791 33.6189 31.791 34.1011C31.791 34.5834 31.696 35.0609 31.5114 35.5065C31.3269 35.952 31.0564 36.3569 30.7154 36.6979C30.3743 37.0389 29.9695 37.3094 29.5239 37.494C29.0784 37.6785 28.6008 37.7735 28.1186 37.7735C27.6363 37.7735 27.1588 37.6785 26.7132 37.494C26.2676 37.3094 25.8628 37.0389 25.5218 36.6979C25.1808 36.3569 24.9103 35.952 24.7257 35.5065C24.5412 35.0609 24.4462 34.5834 24.4462 34.1011C24.4462 33.6189 24.5412 33.1413 24.7257 32.6957C24.9103 32.2502 25.1808 31.8453 25.5218 31.5043C25.8628 31.1633 26.2676 30.8928 26.7132 30.7083C27.1588 30.5237 27.6363 30.4287 28.1186 30.4287V30.4287Z" fill="#070707"/>
<path d="M13.1882 41.557C13.2212 41.0604 13.4418 40.5949 13.8052 40.2548C14.1686 39.9148 14.6477 39.7256 15.1454 39.7256C15.6431 39.7256 16.1222 39.9148 16.4856 40.2548C16.849 40.5949 17.0696 41.0604 17.1026 41.557C17.1026 41.819 17.0506 42.0785 16.9495 42.3202C16.8485 42.562 16.7004 42.7813 16.5139 42.9654C16.3274 43.1495 16.1062 43.2947 15.8631 43.3926C15.62 43.4905 15.3599 43.5392 15.0979 43.5357C14.8422 43.5324 14.5897 43.4784 14.3551 43.3769C14.1204 43.2754 13.9081 43.1284 13.7305 42.9445C13.553 42.7605 13.4136 42.5431 13.3206 42.305C13.2275 42.0668 13.1825 41.8126 13.1882 41.557V41.557Z" fill="#070707"/>
<path d="M42.5663 26.8668C42.5663 27.3412 42.3779 27.7961 42.0424 28.1316C41.707 28.467 41.252 28.6555 40.7776 28.6555C40.3032 28.6555 39.8483 28.467 39.5128 28.1316C39.1774 27.7961 38.989 27.3412 38.989 26.8668C38.989 26.3924 39.1774 25.9375 39.5128 25.602C39.8483 25.2666 40.3032 25.0781 40.7776 25.0781C41.252 25.0781 41.707 25.2666 42.0424 25.602C42.3779 25.9375 42.5663 26.3924 42.5663 26.8668V26.8668Z" fill="#070707"/>
<path d="M77.8396 27.7869C77.8435 27.9807 77.8073 28.1733 77.7333 28.3525C77.6593 28.5318 77.5491 28.6938 77.4095 28.8284C77.27 28.9631 77.1042 29.0675 76.9225 29.1351C76.7407 29.2027 76.547 29.232 76.3534 29.2213C76.1597 29.23 75.9663 29.1981 75.7857 29.1276C75.6051 29.0572 75.4411 28.9498 75.3045 28.8123C75.1678 28.6748 75.0613 28.5102 74.992 28.3292C74.9226 28.1481 74.8919 27.9546 74.9017 27.761C74.9017 27.3714 75.0565 26.9977 75.3319 26.7222C75.6074 26.4468 75.9811 26.292 76.3707 26.292C76.7603 26.292 77.1339 26.4468 77.4094 26.7222C77.6849 26.9977 77.8396 27.3714 77.8396 27.761V27.7869Z" fill="#070707"/>
</svg>
