<svg xmlns="http://www.w3.org/2000/svg" viewBox="0 0 210.64 25.39"><defs><style>.cls-1{fill:#070707;}</style></defs><g id="Layer_2" data-name="Layer 2"><g id="Layer_1-2" data-name="Layer 1"><path class="cls-1" d="M70.62,12l-3.17,6.28-.33.63c-.76,1.5-1,1.62-2.72,1.41-.46-.06-.59-.39-.76-.71-1.22-2.34-2.42-4.69-3.64-7-.11-.22-.16-.51-.44-.63-.21.26-.12.56-.12.83,0,3.09,0,6.17,0,9.26,0,.75-.22,1-1,1-2.27,0-2.27,0-2.27-2.24V5.14c0-1.1,0-1.13,1.1-1.11,2.38,0,1.76-.35,2.82,1.74,1.57,3.11,3.09,6.24,4.63,9.36.13.25.16.66.5.64s.35-.41.48-.66C67.37,11.72,69,8.33,70.65,4.92A1.35,1.35,0,0,1,72.1,4c2.34.08,2-.29,2,2,0,5.3,0,10.6,0,15.9C74.12,23,74.12,23,73,23c-2.19,0-2.19,0-2.19-2.14V12.05Z"/><path class="cls-1" d="M200.5,13.53v8.23c0,1.07,0,1.09-1.13,1.09-1.89,0-1.73.17-1.73-1.68V12.71c0-.22,0-.43,0-.64s0-.4-.23-.45-.24.17-.32.3a2.49,2.49,0,0,0-.15.28c-1.16,2.31-2.34,4.61-3.49,6.92a1.52,1.52,0,0,1-1.55,1.06,1.67,1.67,0,0,1-1.74-1c-1.14-2.34-2.38-4.64-3.6-6.95-.12-.23-.11-.7-.5-.58s-.16.52-.16.79c0,3.09,0,6.17,0,9.26,0,1.15,0,1.15-1.14,1.15-2.08,0-1.82.22-1.82-1.81,0-5.28,0-10.55,0-15.82,0-.79.23-1,1-1.07a2.32,2.32,0,0,1,2.64,1.61c1.46,3.22,3.09,6.36,4.66,9.52.15.29.19.77.58.77s.45-.47.58-.77c1.56-3.37,3.24-6.69,4.86-10A1.6,1.6,0,0,1,199,4.17c1.49.07,1.49,0,1.49,1.53Z"/><path class="cls-1" d="M119.33,16.22v-5.7c0-1.16,0-1.16,1.2-1.16.27,0,.53,0,.8,0,.49,0,.82.12.87.67s.3.56.71.28a5.82,5.82,0,0,1,3.42-1.11,3.6,3.6,0,0,1,3,1.38c.33.44.58.39,1,.11a6.4,6.4,0,0,1,4.17-1.49,3.75,3.75,0,0,1,3.69,3.11,8.48,8.48,0,0,1,.17,1.81c0,2.64,0,5.27,0,7.91,0,.73-.18,1-1,1-2.09,0-2.09,0-2.09-2.1s0-4.33,0-6.49-1.27-2.85-3.16-2c-.15.07-.28.16-.43.22a2,2,0,0,0-1.36,2.26c.11,2.4,0,4.8,0,7.2,0,.67-.18.95-.9.93-2.56-.08-2.13.34-2.16-2.11,0-2.16,0-4.33,0-6.49,0-2-1.12-2.75-3-2.09l-.22.09c-1.63.68-1.67.74-1.67,2.49,0,2.35,0,4.7,0,7,0,.76-.18,1.1-1,1.07-2.38-.08-2,.3-2-2C119.32,19.43,119.33,17.83,119.33,16.22Z"/><path class="cls-1" d="M165.93,13.19c0,3,0,5.91,0,8.86,0,.75-.22,1.08-1,1a5.07,5.07,0,0,0-1,0c-.5,0-.83-.12-.89-.66s-.33-.53-.75-.29a6.56,6.56,0,0,1-4.31,1,3.93,3.93,0,0,1-3.65-3.84,52.39,52.39,0,0,1,0-6,4.34,4.34,0,0,1,4.24-4,9.76,9.76,0,0,1,3.6.46c.6.21.73,0,.72-.56,0-1.66,0-3.32,0-5,0-.62.22-.83.84-.82,2.64.07,2.18-.36,2.21,2.13S165.93,10.61,165.93,13.19Zm-3,2.74a6.77,6.77,0,0,0,0-.78c-.07-.78.36-1.75-.21-2.28a4.49,4.49,0,0,0-2.77-.79h-.24a2,2,0,0,0-2.33,2.19c0,1.32,0,2.63,0,4a1.92,1.92,0,0,0,2.56,2,8.66,8.66,0,0,0,2.5-1,.87.87,0,0,0,.5-.9C162.87,17.57,162.89,16.75,162.89,15.93Z"/><path class="cls-1" d="M91.58,13.19c0-3,0-6,0-8.93,0-.73.23-1,1-.95,2.11,0,2.11,0,2.11,2.08,0,2.48,0,5,0,7.43,0,.65.21.84.86.88a2.94,2.94,0,0,0,3.26-1.95,4.23,4.23,0,0,1,.22-.42c1.16-2.3,1.16-2.29,3.75-2.05.36,0,.67.08.43.56-.66,1.34-1.23,2.74-2,4-.29.46-1,.69-1,1.12s.73.59,1,1a4.73,4.73,0,0,1,.57,1.12c.56,1.68,1.13,3.35,1.69,5,.26.78.18.86-.63.88-2.41.07-2.41.07-3.17-2.23a24.5,24.5,0,0,0-1-2.92,3.24,3.24,0,0,0-3.67-1.26c-.35.17-.26.48-.27.76,0,1.6,0,3.21,0,4.82,0,.6-.18.86-.82.84-2.69-.06-2.2.37-2.23-2.18S91.58,15.75,91.58,13.19Z"/><path class="cls-1" d="M180,17.54c0,1.81,0,3.26,0,4.71,0,.57-.21.83-.8.79A9.45,9.45,0,0,0,178,23c-.46,0-.86,0-.93-.6s-.4-.48-.78-.28a7.52,7.52,0,0,1-4.67.91,3.78,3.78,0,0,1-3.33-3,3.84,3.84,0,0,1,1.9-4.38,5.66,5.66,0,0,1,2.8-.76c1,0,2.07,0,3.1,0,.64,0,.83-.25.8-.85A1.86,1.86,0,0,0,175.06,12a5.69,5.69,0,0,0-4,.75c-.55.37-.8.2-1.11-.29-1.08-1.71-1.08-1.82.83-2.58a9.39,9.39,0,0,1,6-.39,4,4,0,0,1,3.1,3.76C180.05,14.79,180,16.35,180,17.54Zm-5.26-.29v0c-.68,0-1.37,0-2,.14a1.33,1.33,0,0,0-1.2,1.09,1.4,1.4,0,0,0,.55,1.6,2.47,2.47,0,0,0,1.82.34,8.06,8.06,0,0,0,2.38-.8,1.44,1.44,0,0,0,.69-1.86c-.17-.71-.74-.42-1.16-.47A8.85,8.85,0,0,0,174.73,17.25Z"/><path class="cls-1" d="M147.84,17.2c-1.13,0-2.27,0-3.41,0-.55,0-.75.21-.73.76a2.39,2.39,0,0,0,1.88,2.34,4.55,4.55,0,0,0,3.71-.67c.48-.33.8-.31,1.12.15a3.59,3.59,0,0,0,.32.36c1.09,1.22,1.1,1.38-.39,2.15a7.72,7.72,0,0,1-7.25.07,4.24,4.24,0,0,1-2.41-3.83c-.06-1.45-.08-2.91,0-4.35.19-3.23,3-5.35,6.5-4.92,3.19.4,4.89,2.32,4.9,5.54,0,.56,0,1.11,0,1.66s-.2.76-.75.75c-1.16,0-2.32,0-3.49,0ZM146.35,15h2.06c.43,0,.62-.16.62-.61A2.49,2.49,0,0,0,146.37,12a2.54,2.54,0,0,0-2.64,2.4c0,.41.17.58.56.58Z"/><path class="cls-1" d="M105.24,16.23c0-.48,0-1,0-1.43-.18-3.61,2.4-5.27,5.06-5.56a7.52,7.52,0,0,1,3,.24A4.8,4.8,0,0,1,117,14.22c0,1.21,0,2.42,0,3.64a4.84,4.84,0,0,1-3.85,5,7.38,7.38,0,0,1-5-.32,4.51,4.51,0,0,1-2.85-4.13c0-.73,0-1.47,0-2.21Zm3.06,0h0c0,.52,0,1.05,0,1.58a2.4,2.4,0,0,0,2.62,2.53c1.73.06,2.89-.8,3-2.35a26.29,26.29,0,0,0,0-3.55,2.83,2.83,0,0,0-5.61.13C108.28,15.11,108.3,15.67,108.3,16.22Z"/><path class="cls-1" d="M84.61,12c0-2.58,0-5.17,0-7.75,0-.7.18-1,.93-1,2.13,0,2.13,0,2.13,2.14v13.3c0,1.29.11,1.43,1.36,1.67.38.07.56.21.58.6.13,2.19.4,2.23-2,2.17a2.65,2.65,0,0,1-2.92-2.69c-.1-.91-.07-1.84-.08-2.76C84.6,15.83,84.61,13.93,84.61,12Z"/><path class="cls-1" d="M210.62,13.59c0,2.77,0,5.54,0,8.3,0,.72-.21,1-.95,1-2.13-.05-1.85.21-1.86-1.87,0-4.06,0-8.12,0-12.18,0-.28.13-.66-.16-.81s-.57.2-.79.39c-1.49,1.25-1.22,1.31-2.5-.38-.26-.35-.25-.55.1-.84,1-.8,2-1.62,2.88-2.47s1.95-.49,2.95-.45c.4,0,.31.49.31.79C210.63,7.89,210.62,10.74,210.62,13.59Z"/><path class="cls-1" d="M80.66,16.2c0,2,0,3.95,0,5.93,0,.68-.21,1-.91.91a6.74,6.74,0,0,0-1.27,0c-.71.07-.9-.25-.89-.92q0-5.93,0-11.85c0-.68.2-1,.9-.92a7.61,7.61,0,0,0,1.35,0c.64,0,.82.24.81.84C80.64,12.2,80.66,14.2,80.66,16.2Z"/><path class="cls-1" d="M35.24,8.11c0,.32-.2.42-.38.52-1.44.83-2.89,1.65-4.33,2.5-.43.25-.66.12-.88-.28a10.81,10.81,0,0,0-1.88-2.53c-2.18-2.17-4.53-2.55-7.2-1-5.52,3.13-11,6.31-16.5,9.48-1,.55-1,.55-1.53-.42C1.76,15,1,13.64.19,12.31c-.29-.48-.29-.76.25-1.06C6.11,8,11.73,4.69,17.43,1.52A11.9,11.9,0,0,1,31.25,3.11a19.34,19.34,0,0,1,3.68,4.43A4.73,4.73,0,0,1,35.24,8.11Z"/><path class="cls-1" d="M23.78,25.39a12.07,12.07,0,0,1-8.93-3.32,20.64,20.64,0,0,1-3.33-4c-.35-.54-.32-.86.29-1.18,1.23-.66,2.46-1.34,3.65-2.08.65-.41.95-.23,1.27.39a8.76,8.76,0,0,0,2.2,2.68,5.49,5.49,0,0,0,6.83.59c2.5-1.41,5-2.86,7.48-4.3Q37.66,11.61,42.08,9c.42-.24.72-.26,1,.19q1.24,2.2,2.54,4.38c.27.47,0,.65-.34.86L37.44,19c-2.63,1.51-5.27,3-7.89,4.55A12.27,12.27,0,0,1,23.78,25.39Z"/><path class="cls-1" d="M23.28,8.61a4.25,4.25,0,1,1,0,8.5,4.25,4.25,0,1,1,0-8.5Z"/><path class="cls-1" d="M6,21.48a2.27,2.27,0,0,1,4.53,0,2.29,2.29,0,0,1-2.32,2.29A2.24,2.24,0,0,1,6,21.48Z"/><path class="cls-1" d="M40,4.49a2.07,2.07,0,0,1-4.14,0,2.07,2.07,0,1,1,4.14,0Z"/><path class="cls-1" d="M80.82,5.56A1.63,1.63,0,0,1,79.1,7.22a1.61,1.61,0,0,1-1.68-1.69,1.7,1.7,0,1,1,3.4,0Z"/></g></g></svg>