<svg width="147" height="36" viewBox="0 0 147 36" fill="none" xmlns="http://www.w3.org/2000/svg">
<path d="M2 5L2 32C2 33.6569 3.34315 35 5 35L143 35C144.657 35 146 33.6569 146 32V5C146 3.34315 144.657 2 143 2L5 2C3.34315 2 2 3.34315 2 5Z" stroke="#ECBD00" stroke-width="2"/>
<path d="M0 4L0 28C0 30.2091 1.84315 32 4.11679 32L136.883 32C139.157 32 141 30.2091 141 28V4C141 1.79086 139.157 0 136.883 0L4.11679 0C1.84315 0 0 1.79086 0 4Z" fill="#F8F7F4"/>
<path d="M47.2711 15.8763L45.1941 19.9909L44.9779 20.4037C44.48 21.3865 44.3227 21.4651 43.1958 21.3275C42.8944 21.2882 42.8092 21.072 42.6978 20.8623C41.8985 19.3292 41.1123 17.7894 40.3129 16.2759C40.2409 16.1318 40.2081 15.9418 40.0246 15.8632C39.8871 16.0335 39.946 16.2301 39.946 16.407C39.946 18.4315 39.946 20.4495 39.946 22.4741C39.946 22.9655 39.8019 23.1293 39.2908 23.1293C37.8035 23.1293 37.8035 23.1293 37.8035 21.6616V11.3816C37.8035 10.6609 37.8035 10.6413 38.5242 10.6544C40.0836 10.6544 39.6774 10.4251 40.3719 11.7944C41.4006 13.8321 42.3964 15.8828 43.4054 17.927C43.4906 18.0908 43.5103 18.3595 43.733 18.3464C43.9558 18.3333 43.9624 18.0777 44.0475 17.9139C45.1417 15.6928 46.2097 13.4717 47.2908 11.2375C47.3546 11.0424 47.4842 10.8756 47.6576 10.7656C47.8309 10.6556 48.0371 10.6093 48.2408 10.6347C49.7739 10.6871 49.5512 10.4447 49.5512 11.9451C49.5512 15.4176 49.5512 18.8902 49.5512 22.3627C49.5643 23.0834 49.5643 23.0834 48.8305 23.0834C47.3956 23.0834 47.3956 23.0834 47.3956 21.6813V15.909L47.2711 15.8763Z" fill="#070707"/>
<path d="M132.368 16.8563V22.2486C132.368 22.9496 132.368 22.9627 131.628 22.9627C130.39 22.9627 130.494 23.0741 130.494 21.862V16.3191C130.494 16.1749 130.494 16.0373 130.494 15.8997C130.494 15.7621 130.494 15.6377 130.344 15.6049C130.193 15.5721 130.186 15.7163 130.134 15.8015C130.097 15.8605 130.065 15.9217 130.036 15.9849C129.276 17.4984 128.503 19.0054 127.749 20.5189C127.682 20.7316 127.546 20.9158 127.361 21.0417C127.177 21.1676 126.956 21.2281 126.734 21.2134C126.498 21.2425 126.26 21.1943 126.054 21.0761C125.849 20.9579 125.687 20.7762 125.594 20.5582C124.847 19.025 124.034 17.5181 123.235 16.0046C123.156 15.8539 123.163 15.5459 122.907 15.6246C122.652 15.7032 122.802 15.9653 122.802 16.1422C122.802 18.1667 122.802 20.1847 122.802 22.2093C122.802 22.9627 122.802 22.9627 122.055 22.9627C120.693 22.9627 120.863 23.1069 120.863 21.7768C120.863 18.3174 120.863 14.8645 120.863 11.4117C120.863 10.894 121.014 10.7565 121.518 10.7106C121.886 10.643 122.265 10.7133 122.584 10.9078C122.904 11.1024 123.14 11.4077 123.248 11.7655C124.205 13.8752 125.272 15.9325 126.301 18.0029C126.399 18.1929 126.426 18.5074 126.681 18.5074C126.937 18.5074 126.976 18.1995 127.061 18.0029C128.083 15.7949 129.184 13.6197 130.245 11.451C130.319 11.2147 130.474 11.012 130.682 10.8789C130.891 10.7458 131.14 10.6908 131.385 10.7237C132.362 10.7696 132.362 10.7237 132.362 11.7261L132.368 16.8563Z" fill="#070707"/>
<path d="M79.1864 18.6009V14.8663C79.1864 14.1063 79.1864 14.1063 79.9727 14.1063C80.1496 14.1063 80.3199 14.1063 80.4968 14.1063C80.8179 14.1063 81.0341 14.1849 81.0669 14.5453C81.0996 14.9056 81.2634 14.9122 81.532 14.7287C82.1835 14.2559 82.9678 14.0013 83.7728 14.0014C84.1488 13.9844 84.5234 14.0576 84.8654 14.2149C85.2073 14.3722 85.5067 14.609 85.7384 14.9056C85.9546 15.1939 86.1184 15.1611 86.3936 14.9777C87.1591 14.3375 88.1279 13.9914 89.1257 14.0014C89.7041 14.0022 90.2637 14.207 90.7059 14.5797C91.1481 14.9524 91.4447 15.4692 91.5434 16.0391C91.6229 16.4293 91.6603 16.8269 91.6548 17.225C91.6548 18.9547 91.6548 20.6779 91.6548 22.4076C91.6548 22.8859 91.5369 23.0628 90.9996 23.0628C89.6302 23.0628 89.6302 23.0628 89.6302 21.6869C89.6302 20.311 89.6302 18.8499 89.6302 17.4347C89.6302 16.0194 88.7981 15.5674 87.5598 16.1243C87.4616 16.1701 87.3764 16.2291 87.2781 16.2684C86.9752 16.3651 86.7178 16.5687 86.5539 16.8411C86.3899 17.1135 86.3306 17.4363 86.387 17.7492C86.4591 19.3216 86.387 20.8941 86.387 22.4666C86.387 22.9056 86.2691 23.089 85.7974 23.0759C84.1201 23.0235 84.4018 23.2987 84.3821 21.6934C84.3821 20.2782 84.3821 18.8564 84.3821 17.4412C84.3821 16.1308 83.6483 15.6394 82.4166 16.0719L82.2724 16.1308C81.2044 16.5764 81.1782 16.6157 81.1782 17.7623C81.1782 19.302 81.1782 20.8417 81.1782 22.3486C81.1782 22.8466 81.0603 23.0694 80.523 23.0497C78.9637 22.9973 79.2127 23.2463 79.2127 21.7393C79.1799 20.7041 79.1864 19.6558 79.1864 18.6009Z" fill="#070707"/>
<path d="M109.719 16.6512C109.719 18.6167 109.719 20.5234 109.719 22.4562C109.719 22.9476 109.575 23.1638 109.064 23.1114C108.846 23.0898 108.627 23.0898 108.409 23.1114C108.081 23.1114 107.865 23.0328 107.826 22.679C107.786 22.3251 107.609 22.3317 107.334 22.4889C106.497 23.0278 105.499 23.2593 104.51 23.1441C103.87 23.0985 103.269 22.8152 102.827 22.3497C102.385 21.8842 102.132 21.2703 102.119 20.6282C102.044 19.3189 102.044 18.0063 102.119 16.697C102.174 15.9933 102.489 15.3352 103.002 14.8508C103.516 14.3664 104.191 14.0903 104.897 14.0762C105.695 14.0284 106.495 14.1306 107.256 14.3776C107.649 14.5152 107.734 14.3776 107.727 14.0107C107.727 12.9231 107.727 11.8355 107.727 10.7347C107.727 10.3285 107.872 10.1909 108.278 10.1975C110.007 10.2434 109.706 9.96162 109.726 11.5931C109.745 13.2245 109.719 14.9608 109.719 16.6512ZM107.754 18.4464C107.763 18.2762 107.763 18.1055 107.754 17.9353C107.708 17.4243 107.989 16.7887 107.616 16.4415C107.084 16.0743 106.447 15.8924 105.801 15.9239H105.644C105.444 15.8891 105.238 15.9014 105.043 15.9598C104.849 16.0181 104.67 16.121 104.522 16.2601C104.374 16.3993 104.261 16.571 104.19 16.7617C104.12 16.9524 104.095 17.1568 104.117 17.3588C104.117 18.2236 104.117 19.0819 104.117 19.9795C104.096 20.191 104.128 20.4045 104.212 20.6C104.295 20.7955 104.427 20.9666 104.594 21.0975C104.762 21.2284 104.96 21.3146 105.17 21.3483C105.38 21.3819 105.595 21.3619 105.795 21.2899C106.371 21.1583 106.924 20.9372 107.433 20.6347C107.543 20.5841 107.634 20.4996 107.693 20.3936C107.752 20.2875 107.775 20.1654 107.76 20.0451C107.714 19.5209 107.727 18.9837 107.727 18.4464H107.754Z" fill="#070707"/>
<path d="M61.005 16.6392C61.005 14.6737 61.005 12.7081 61.005 10.7883C61.005 10.31 61.1557 10.1331 61.6602 10.1659C63.0427 10.1659 63.0427 10.1659 63.0427 11.5287C63.0427 13.1536 63.0427 14.8047 63.0427 16.3968C63.0427 16.8227 63.1803 16.9472 63.6061 16.9734C64.0558 17.0475 64.5171 16.9598 64.9081 16.7259C65.2992 16.4919 65.5947 16.1269 65.7421 15.6958C65.7849 15.6014 65.8331 15.5095 65.8862 15.4206C66.6462 13.9136 66.6462 13.9202 68.3432 14.0774C68.5791 14.0774 68.7822 14.1298 68.6249 14.4443C68.1925 15.3223 67.819 16.2396 67.3145 17.0651C67.1245 17.3665 66.6593 17.5172 66.6593 17.7989C66.6593 18.0807 67.1376 18.1855 67.3145 18.4541C67.4711 18.681 67.5967 18.9278 67.688 19.1879C68.0549 20.2887 68.4284 21.3829 68.7953 22.4639C68.9656 22.975 68.9132 23.0274 68.3825 23.0405C66.8035 23.0864 66.8035 23.0864 66.3055 21.5794C66.1276 20.9286 65.9087 20.2896 65.6503 19.6662C65.3923 19.2875 65.0187 19.0025 64.5853 18.8537C64.1519 18.7049 63.682 18.7003 63.2458 18.8407C63.0165 18.9521 63.0754 19.1552 63.0689 19.3386C63.0689 20.387 63.0689 21.4418 63.0689 22.4967C63.0689 22.8898 62.9509 23.0602 62.5316 23.047C60.7691 23.0077 61.0902 23.2895 61.0705 21.6187C61.0509 19.948 61.005 18.3165 61.005 16.6392Z" fill="#070707"/>
<path d="M118.937 19.4797C118.937 20.6656 118.937 21.6157 118.937 22.5657C118.937 22.9392 118.8 23.1095 118.413 23.0833C118.152 23.0579 117.889 23.0492 117.627 23.0571C117.326 23.0571 117.063 23.0571 117.018 22.664C116.972 22.2709 116.755 22.3495 116.507 22.4805C115.578 23.0052 114.504 23.2144 113.447 23.0768C112.921 23.0247 112.426 22.8059 112.033 22.4522C111.641 22.0986 111.371 21.6287 111.265 21.1112C111.118 20.5625 111.161 19.9804 111.387 19.4593C111.613 18.9383 112.009 18.509 112.51 18.2414C113.068 17.9189 113.7 17.7472 114.344 17.7435C115 17.7435 115.701 17.7435 116.375 17.7435C116.795 17.7435 116.919 17.5797 116.9 17.1866C116.916 17.0185 116.897 16.849 116.845 16.6886C116.792 16.5282 116.707 16.3804 116.594 16.2548C116.481 16.1291 116.344 16.0282 116.19 15.9586C116.036 15.8889 115.869 15.8519 115.701 15.85C114.796 15.6851 113.863 15.8601 113.08 16.3414C112.719 16.5838 112.556 16.4724 112.353 16.1514C111.645 15.031 111.645 14.9589 112.896 14.461C114.143 13.9472 115.525 13.8574 116.828 14.2054C117.39 14.335 117.894 14.6467 118.262 15.0922C118.629 15.5377 118.839 16.0919 118.859 16.669C118.97 17.678 118.937 18.7001 118.937 19.4797ZM115.491 19.2897C115.045 19.2897 114.593 19.2897 114.181 19.3815C113.989 19.3972 113.808 19.4758 113.666 19.6049C113.524 19.7341 113.428 19.9066 113.394 20.0956C113.332 20.2857 113.333 20.4911 113.398 20.6804C113.463 20.8696 113.588 21.0324 113.755 21.1439C114.108 21.37 114.536 21.4499 114.947 21.3667C115.491 21.2745 116.017 21.0977 116.507 20.8425C116.724 20.7361 116.892 20.5503 116.976 20.3235C117.06 20.0967 117.054 19.8462 116.959 19.6239C116.847 19.1587 116.474 19.3487 116.199 19.3159C115.961 19.2925 115.723 19.2838 115.484 19.2897H115.491Z" fill="#070707"/>
<path d="M97.867 19.2453C97.1266 19.2453 96.3797 19.2453 95.6328 19.2453C95.2724 19.2453 95.1414 19.3829 95.1545 19.7432C95.1537 20.1011 95.2756 20.4484 95.4997 20.7273C95.7238 21.0063 96.0367 21.2 96.3863 21.2764C96.7993 21.3812 97.2299 21.3962 97.6493 21.3205C98.0686 21.2448 98.4668 21.0801 98.817 20.8374C99.1315 20.6212 99.3412 20.6343 99.5509 20.9357C99.6154 21.0189 99.6854 21.0977 99.7605 21.1716C100.475 21.9709 100.481 22.0757 99.505 22.5802C98.7775 22.9762 97.9639 23.1875 97.1356 23.1955C96.3074 23.2035 95.4898 23.008 94.7548 22.6261C94.2815 22.3996 93.882 22.0438 93.6026 21.5997C93.3231 21.1556 93.1752 20.6414 93.1758 20.1167C93.1365 19.1667 93.1234 18.2101 93.1758 17.2666C93.3003 15.1503 95.1414 13.7613 97.4346 14.0431C99.5246 14.3051 100.638 15.5631 100.645 17.6728C100.645 18.0397 100.645 18.4001 100.645 18.7604C100.645 19.1208 100.514 19.2584 100.154 19.2518C99.3936 19.2518 98.6336 19.2518 97.867 19.2518V19.2453ZM96.8908 17.8039H98.2405C98.5222 17.8039 98.6467 17.699 98.6467 17.4042C98.6384 17.1858 98.5864 16.9713 98.4936 16.7734C98.4009 16.5756 98.2693 16.3983 98.1068 16.2523C97.9442 16.1062 97.754 15.9943 97.5473 15.9232C97.3407 15.8521 97.1219 15.8232 96.9039 15.8383C96.4667 15.8204 96.0402 15.9754 95.7164 16.2697C95.3927 16.564 95.1979 16.9739 95.1742 17.4108C95.1742 17.6794 95.2855 17.7908 95.5411 17.7908L96.8908 17.8039Z" fill="#070707"/>
<path d="M69.9544 18.6133C69.9544 18.2988 69.9544 17.9581 69.9544 17.6764C69.8365 15.3111 71.5269 14.2235 73.2697 14.0335C73.9288 13.9529 74.5974 14.0064 75.2353 14.1907C75.9327 14.3548 76.5532 14.7521 76.994 15.3169C77.4348 15.8816 77.6696 16.58 77.6595 17.2963C77.6595 18.0891 77.6595 18.8819 77.6595 19.6813C77.7004 20.4388 77.4684 21.1858 77.0056 21.7869C76.5428 22.3879 75.8798 22.8032 75.137 22.9572C74.054 23.2715 72.8952 23.1973 71.8611 22.7476C71.3168 22.5322 70.8488 22.16 70.5163 21.6783C70.1839 21.1965 70.002 20.6269 69.9938 20.0416C69.9938 19.5633 69.9938 19.0785 69.9938 18.5936L69.9544 18.6133ZM71.9593 18.6133C71.9593 18.954 71.9593 19.3012 71.9593 19.6485C71.9461 19.8747 71.9819 20.1012 72.0643 20.3123C72.1467 20.5235 72.2738 20.7143 72.4368 20.8717C72.5998 21.0291 72.795 21.1495 73.0089 21.2245C73.2227 21.2994 73.4503 21.3273 73.6759 21.3061C74.8094 21.3455 75.5695 20.782 75.6415 19.7664C75.6939 18.992 75.6939 18.2149 75.6415 17.4405C75.5725 16.996 75.3442 16.5918 74.9992 16.3031C74.6542 16.0145 74.2161 15.8611 73.7664 15.8715C73.3167 15.8819 72.8861 16.0555 72.5549 16.3598C72.2236 16.6641 72.0143 17.0785 71.9659 17.5257C71.9462 17.8795 71.9593 18.2464 71.9593 18.6067V18.6133Z" fill="#070707"/>
<path d="M56.4385 15.8423C56.4385 14.1519 56.4385 12.455 56.4385 10.7646C56.4385 10.3059 56.5565 10.1094 57.0479 10.1094C58.4434 10.1094 58.4434 10.1094 58.4434 11.5115V20.2256C58.4434 21.0708 58.5155 21.1625 59.3345 21.3198C59.5835 21.3656 59.7014 21.4574 59.7145 21.7129C59.7997 23.1478 59.9766 23.174 58.4041 23.1347C58.1595 23.1598 57.9123 23.1326 57.6789 23.055C57.4455 22.9774 57.2313 22.8511 57.0504 22.6844C56.8696 22.5178 56.7261 22.3147 56.6297 22.0884C56.5332 21.8622 56.4859 21.6181 56.4909 21.3722C56.4254 20.776 56.4451 20.1666 56.4385 19.5638C56.432 18.3517 56.4385 17.1069 56.4385 15.8423Z" fill="#070707"/>
<path d="M138.999 16.9158C138.999 18.7307 138.999 20.5456 138.999 22.3539C138.999 22.8257 138.861 23.0091 138.376 23.0091C136.981 22.9764 137.164 23.1467 137.158 21.7839C137.158 19.1238 137.158 16.4637 137.158 13.8037C137.158 13.6202 137.243 13.3712 137.053 13.2729C136.863 13.1747 136.68 13.404 136.535 13.5285C135.559 14.3475 135.736 14.3868 134.897 13.2795C134.727 13.0502 134.734 12.9191 134.963 12.7291C135.618 12.205 136.273 11.6677 136.85 11.1108C137.426 10.5539 138.127 10.7898 138.783 10.816C139.045 10.816 138.986 11.137 138.986 11.3336C139.005 13.1812 138.999 15.0485 138.999 16.9158Z" fill="#070707"/>
<path d="M53.8492 18.6278C53.8492 19.9382 53.8492 21.2158 53.8492 22.5131C53.8492 22.9587 53.7116 23.1683 53.253 23.1093C52.9762 23.0832 52.6976 23.0832 52.4209 23.1093C51.9557 23.1552 51.8312 22.9455 51.8378 22.5066C51.8378 19.9164 51.8378 17.3283 51.8378 14.7425C51.8378 14.297 51.9688 14.0873 52.4274 14.1397C52.7217 14.1659 53.0177 14.1659 53.312 14.1397C53.7313 14.1397 53.8492 14.297 53.8427 14.6901C53.8361 16.007 53.8492 17.3174 53.8492 18.6278Z" fill="#070707"/>
<path d="M24.0913 13.3089C24.0913 13.5185 23.9603 13.584 23.8423 13.6496C22.8989 14.1934 21.9488 14.7306 21.0053 15.2876C20.7236 15.4514 20.5729 15.3662 20.4288 15.1041C20.1014 14.4943 19.6864 13.9359 19.197 13.4465C17.7687 12.0247 16.229 11.7757 14.4796 12.7913C10.8629 14.842 7.27246 16.9255 3.66888 19.0025C3.01369 19.3629 3.01369 19.3629 2.66644 18.7273C2.15538 17.8232 1.65744 16.9321 1.12673 16.0607C0.936721 15.7462 0.936721 15.5627 1.29053 15.3662C5.00548 13.2368 8.68768 11.0681 12.4223 8.99113C13.8501 8.193 15.4928 7.86414 17.1178 8.0511C18.7428 8.23806 20.2678 8.93137 21.4771 10.0329C22.4211 10.8746 23.2339 11.853 23.8882 12.9354C23.9644 13.0551 24.0322 13.1799 24.0913 13.3089V13.3089Z" fill="#070707"/>
<path d="M16.584 24.6239C15.5122 24.6773 14.4407 24.512 13.4349 24.138C12.429 23.7641 11.5097 23.1893 10.7331 22.4487C9.89817 21.6707 9.16507 20.7901 8.55131 19.8279C8.32199 19.4741 8.34164 19.2644 8.74131 19.0548C9.5472 18.6224 10.3531 18.1768 11.1328 17.692C11.5587 17.4233 11.7552 17.5413 11.9649 17.9475C12.3236 18.623 12.8136 19.22 13.4063 19.7034C13.9977 20.266 14.7628 20.6108 15.576 20.681C16.3893 20.7513 17.2022 20.5429 17.8813 20.09C19.5193 19.1662 21.1573 18.2161 22.7822 17.2727C24.7128 16.1545 26.6434 15.0253 28.5741 13.8853C28.8493 13.728 29.0458 13.7149 29.2293 14.0098C29.7709 14.9707 30.3256 15.9273 30.8935 16.8795C31.0704 17.1875 30.8935 17.3054 30.6707 17.443L25.534 20.4372C23.8108 21.4266 22.0811 22.4028 20.3645 23.4184C19.2248 24.1298 17.9251 24.5443 16.584 24.6239V24.6239Z" fill="#070707"/>
<path d="M16.2561 13.624C16.6218 13.624 16.9839 13.696 17.3217 13.836C17.6596 13.9759 17.9666 14.181 18.2251 14.4396C18.4837 14.6982 18.6888 15.0052 18.8288 15.343C18.9687 15.6808 19.0407 16.0429 19.0407 16.4086C19.0407 16.7743 18.9687 17.1364 18.8288 17.4742C18.6888 17.8121 18.4837 18.119 18.2251 18.3776C17.9666 18.6362 17.6596 18.8413 17.3217 18.9812C16.9839 19.1212 16.6218 19.1932 16.2561 19.1932C15.8905 19.1932 15.5284 19.1212 15.1905 18.9812C14.8527 18.8413 14.5457 18.6362 14.2871 18.3776C14.0286 18.119 13.8235 17.8121 13.6835 17.4742C13.5436 17.1364 13.4716 16.7743 13.4716 16.4086C13.4716 16.0429 13.5436 15.6808 13.6835 15.343C13.8235 15.0052 14.0286 14.6982 14.2871 14.4396C14.5457 14.181 14.8527 13.9759 15.1905 13.836C15.5284 13.696 15.8905 13.624 16.2561 13.624V13.624Z" fill="#070707"/>
<path d="M4.93396 22.0752C4.959 21.6986 5.12623 21.3457 5.40178 21.0878C5.67734 20.83 6.0406 20.6865 6.41798 20.6865C6.79535 20.6865 7.15862 20.83 7.43417 21.0878C7.70973 21.3457 7.87696 21.6986 7.902 22.0752C7.90201 22.2739 7.86256 22.4706 7.78593 22.6539C7.70931 22.8372 7.59703 23.0035 7.45561 23.1431C7.3142 23.2827 7.14647 23.3928 6.96216 23.467C6.77785 23.5413 6.58063 23.5782 6.38194 23.5756C6.18808 23.573 5.99665 23.5321 5.8187 23.4551C5.64075 23.3782 5.47981 23.2667 5.34517 23.1272C5.21054 22.9877 5.10488 22.8229 5.0343 22.6423C4.96372 22.4618 4.92962 22.269 4.93396 22.0752V22.0752Z" fill="#070707"/>
<path d="M27.2088 10.9188C27.2088 11.2785 27.066 11.6234 26.8116 11.8778C26.5573 12.1321 26.2123 12.275 25.8526 12.275C25.4929 12.275 25.1479 12.1321 24.8936 11.8778C24.6392 11.6234 24.4963 11.2785 24.4963 10.9188C24.4963 10.5591 24.6392 10.2141 24.8936 9.95974C25.1479 9.70539 25.4929 9.5625 25.8526 9.5625C26.2123 9.5625 26.5573 9.70539 26.8116 9.95974C27.066 10.2141 27.2088 10.5591 27.2088 10.9188V10.9188Z" fill="#070707"/>
<path d="M53.956 11.6267C53.9589 11.7736 53.9315 11.9197 53.8754 12.0556C53.8193 12.1915 53.7357 12.3143 53.6299 12.4164C53.5241 12.5185 53.3984 12.5977 53.2606 12.6489C53.1228 12.7002 52.9759 12.7224 52.8291 12.7143C52.6822 12.7209 52.5356 12.6967 52.3986 12.6433C52.2617 12.5899 52.1374 12.5084 52.0337 12.4042C51.9301 12.2999 51.8494 12.1751 51.7968 12.0378C51.7442 11.9006 51.7209 11.7538 51.7283 11.607C51.7283 11.3116 51.8457 11.0283 52.0546 10.8194C52.2635 10.6105 52.5468 10.4932 52.8422 10.4932C53.1376 10.4932 53.4209 10.6105 53.6298 10.8194C53.8387 11.0283 53.956 11.3116 53.956 11.607V11.6267Z" fill="#070707"/>
</svg>
