<svg xmlns="http://www.w3.org/2000/svg" width="196.79" height="42.248" viewBox="0 0 196.79 42.248">
  <g id="Group_220" data-name="Group 220" transform="translate(-520.321 -3804.673)">
    <g id="Group_218" data-name="Group 218" transform="translate(575.782 3824.401)">
      <path id="Path_607" data-name="Path 607" d="M807.834,3900.913H802.8a1.748,1.748,0,0,0-1.087.306,1.592,1.592,0,0,0-.527.657l-.564,1.3-.565-1.3a1.6,1.6,0,0,0-.536-.663,1.76,1.76,0,0,0-1.079-.3H793.4c-1.87,0-2.7.842-2.7,2.729v13.641h3.521v-11.429a1.411,1.411,0,0,1,1.5-1.545h1.735a1.412,1.412,0,0,1,1.5,1.546v11.428h3.345v-11.429a1.571,1.571,0,0,1,.388-1.121,1.457,1.457,0,0,1,1.107-.425h1.735a1.411,1.411,0,0,1,1.5,1.545v11.429h3.521v-13.642C810.538,3901.754,809.7,3900.913,807.834,3900.913Z" transform="translate(-790.698 -3900.896)" fill="#fff"/>
      <g id="Group_214" data-name="Group 214" transform="translate(21.891 0)">
        <path id="Path_608" data-name="Path 608" d="M898.29,3900.856a.8.8,0,0,0-.216,0,.763.763,0,0,0-.647.863l.006.087v14.507l-.007.045a.774.774,0,0,0,.868.882l.082-.005h9.315v-3.4h-5.747a.964.964,0,0,1-.7-.273,1.046,1.046,0,0,1-.287-.77v-7.518a.964.964,0,0,1,.993-1.043h5.746v-3.371l-9.358,0Z" transform="translate(-897.418 -3900.849)" fill="#fff"/>
        <rect id="Rectangle_289" data-name="Rectangle 289" width="4.678" height="2.943" transform="translate(5.545 6.626)" fill="#fff"/>
      </g>
      <g id="Group_215" data-name="Group 215" transform="translate(34.216 0.014)">
        <rect id="Rectangle_290" data-name="Rectangle 290" width="3.521" height="10.989" transform="translate(4.375 5.381)" fill="#fff"/>
        <rect id="Rectangle_291" data-name="Rectangle 291" width="12.246" height="3.37" fill="#fff"/>
      </g>
      <path id="Path_609" data-name="Path 609" d="M1021.257,3900.91l-.06,0h-3.8l-.03,0a.144.144,0,0,0-.151.1l-.006.022-5.128,16.247h3.744l3.038-11.215h1.032l2.3,7.818h-3.109l-.867,3.4h8.759l-5.5-16.236A.2.2,0,0,0,1021.257,3900.91Z" transform="translate(-966.669 -3900.897)" fill="#fff"/>
      <path id="Path_610" data-name="Path 610" d="M1094.689,3905.044v2.109a4.162,4.162,0,0,0,.2,1.306,2.538,2.538,0,0,0,.572.969,2.7,2.7,0,0,0,1.015.647,4.679,4.679,0,0,0,1.624.253h4.05a1.4,1.4,0,0,1,1.119.406l.045.045.035.053a1.72,1.72,0,0,1,.276,1.035v.507a1.594,1.594,0,0,1-.394,1.139,1.481,1.481,0,0,1-1.125.43h-7.116v3.389h7.744c2.818,0,4.131-1.288,4.131-4.052v-1.848a3.687,3.687,0,0,0-.839-2.6,3.83,3.83,0,0,0-2.839-.859h-3.815a1.375,1.375,0,0,1-1.443-1.519v-.527a1.593,1.593,0,0,1,.394-1.139,1.479,1.479,0,0,1,1.125-.431h6.742v-3.363h-7.367C1096,3900.992,1094.689,3902.279,1094.689,3905.044Z" transform="translate(-1032.333 -3900.963)" fill="#fff"/>
      <g id="Group_216" data-name="Group 216" transform="translate(75.884 0.029)">
        <rect id="Rectangle_292" data-name="Rectangle 292" width="3.516" height="10.969" transform="translate(4.366 5.372)" fill="#fff"/>
        <rect id="Rectangle_293" data-name="Rectangle 293" width="12.224" height="3.363" fill="#fff"/>
      </g>
      <path id="Path_611" data-name="Path 611" d="M1225.056,3900.978l-.059,0-3.824,0a.144.144,0,0,0-.15.1l-.006.023-5.12,16.219h3.735l3.038-11.2h1.032l2.3,7.808h-3.106l-.865,3.388h8.741l-5.5-16.207A.2.2,0,0,0,1225.056,3900.978Z" transform="translate(-1128.677 -3900.95)" fill="#fff"/>
      <path id="Path_612" data-name="Path 612" d="M1309.767,3909.41l-1.228-.477,1.154-.636a1.82,1.82,0,0,0,.707-.7,3.513,3.513,0,0,0,.257-1.539v-1.065c0-2.764-1.312-4.052-4.131-4.052l-7.267-.01a.759.759,0,0,0-.214,0,.76.76,0,0,0-.646.86l.006.086v14.48l-.007.046a.774.774,0,0,0,0,.218.772.772,0,0,0,.867.662l.082-.006h7.481c2.818,0,4.131-1.288,4.131-4.052v-1.457a3.264,3.264,0,0,0-.359-1.636A1.612,1.612,0,0,0,1309.767,3909.41Zm-3.569,4.686h-3.292a.962.962,0,0,1-.7-.273,1.044,1.044,0,0,1-.287-.769v-7.882a.963.963,0,0,1,.992-1.042h2.987a1.433,1.433,0,0,1,1.519,1.57v.527a1.791,1.791,0,0,1-.247.951l-.051.074a1.348,1.348,0,0,1-1.181.493h-2.01v2.736h2.338a1.318,1.318,0,0,1,1.16.5l.044.065a1.8,1.8,0,0,1,.247.971v.507A1.433,1.433,0,0,1,1306.2,3914.1Z" transform="translate(-1194.247 -3900.909)" fill="#fff"/>
      <path id="Path_613" data-name="Path 613" d="M1373.493,3913.639a1.044,1.044,0,0,1-.287-.769v-11.911h-3.513v15.422l-.007.046a.771.771,0,0,0,.865.88l.082-.006h9.3v-3.388H1374.2A.962.962,0,0,1,1373.493,3913.639Z" transform="translate(-1250.913 -3900.936)" fill="#fff"/>
      <g id="Group_217" data-name="Group 217" transform="translate(131.071 0.016)">
        <path id="Path_614" data-name="Path 614" d="M1430.546,3900.934a.72.72,0,0,0-.107-.008.708.708,0,0,0-.107.008.76.76,0,0,0-.646.86l.006.087v14.479l-.007.046a.772.772,0,0,0,.866.881l.082-.006h9.3v-3.388H1434.2a.961.961,0,0,1-.7-.273,1.044,1.044,0,0,1-.287-.769v-7.506a.963.963,0,0,1,.992-1.042h5.735v-3.363h-9.344Z" transform="translate(-1429.677 -3900.926)" fill="#fff"/>
        <rect id="Rectangle_294" data-name="Rectangle 294" width="4.668" height="2.937" transform="translate(5.539 6.616)" fill="#fff"/>
      </g>
    </g>
    <path id="Path_615" data-name="Path 615" d="M520.321,3846.921a62.646,62.646,0,0,0,35.581-17.754,61.277,61.277,0,0,0,14.638-24.493l-3.107,10.113.89-1.541.282.163-1.6,2.771-1.091,3.552,1.424-1.761.253.2-1.934,2.393-1.3,4.218,1.955-.929.14.294-2.225,1.057-1.739,5.66,2.416-.794.1.31-2.635.866-1.63,5.3,2.477-.436.057.321-2.641.464-1.37,4.458,2.973-.377.041.324-3.137.4-.054.007-.94,3.05-.312-.1.9-2.906-4.7.632-1.186,2.894-.3-.124,1.115-2.72-5.118.688-1.321,2.6-.29-.148,1.219-2.4-5.575.749L540.9,3846.1l-.258-.2,1.474-1.9-5.689.764-1.979,1.675-.211-.249,1.59-1.345-4.954.665-2.913,1.192-.123-.3,1.754-.718Z" transform="translate(0 0)" fill="#fff"/>
  </g>
</svg>
