<svg xmlns="http://www.w3.org/2000/svg" width="203" height="68" viewBox="0 0 203 68">
  <g id="Group_46" data-name="Group 46" transform="translate(-709 -661)">
    <g id="Rectangle_36" data-name="Rectangle 36" transform="translate(713 729) rotate(-90)" fill="none" stroke="#ECBD00" stroke-width="2">
      <rect width="64" height="199" rx="4" stroke="none"/>
      <rect x="1" y="1" width="62" height="197" rx="3" fill="none"/>
    </g>
    <rect id="Rectangle_35" data-name="Rectangle 35" width="64" height="199" rx="4" transform="translate(709 725) rotate(-90)" fill="#fff"/>
    <text id="Incubated_By" data-name="Incubated By" transform="translate(781 677)" fill="#ECBD00" font-size="8" font-family="NeueMachina-Ultrabold, Neue Machina" font-weight="700"><tspan x="0" y="0">Incubated By</tspan></text>
    <g id="Group_42" data-name="Group 42" transform="translate(60.117 -1.319)">
      <g id="Group_39" data-name="Group 39" transform="translate(711.639 692.778)">
        <path id="Path_196" data-name="Path 196" d="M4008.8,4183.323a2.542,2.542,0,0,0-2.607-2.511c-.746-.017-1.492-.01-2.238,0-3.958.039-3.129-.4-6.022,2.486a5.48,5.48,0,0,0-1.745,3.973,1.414,1.414,0,0,1-1.454,1.544,1.4,1.4,0,0,1-1.415-1.506,5.328,5.328,0,0,0-1.827-4.091c-.547-.5-1.054-1.055-1.578-1.585a2.663,2.663,0,0,0-2.007-.824c-1.389.014-2.778,0-4.167,0-2.036,0-3.034.994-3.036,3.021q0,5.479,0,10.955c0,2.068,0,2.049,2.055,2.023.526-.007.638-.189.633-.672-.022-2.158-.01-4.318-.01-6.479,0-2.083.015-4.166-.006-6.249a1.774,1.774,0,0,1,3.213-1.292q3.062,3.1,6.15,6.178c1.406,1.408,2.614,1.4,4.039-.024q3.137-3.135,6.271-6.276a1.7,1.7,0,0,1,2.021-.494,1.8,1.8,0,0,1,1.062,1.877c-.012,3.805-.006,7.612-.005,11.417,0,2.2,0,2.185,2.221,2.008.379-.03.476-.172.475-.518C4008.816,4191.963,4008.844,4187.644,4008.8,4183.323Z" transform="translate(-3889.86 -4180.739)"/>
        <path id="Path_197" data-name="Path 197" d="M3854.562,4183.787c0-2.016-.942-2.945-2.986-2.946h-17.432q-.27,0-.541,0c-.191,0-.364.023-.356.285s.2.256.378.261c.206,0,.412,0,.617,0q6.749,0,13.5.005c.258,0,.545-.09.813.11l-15.218,15.345c1.055,0,1.979-.031,2.9.012a1.68,1.68,0,0,0,1.358-.542c2.892-2.853,5.763-5.728,8.73-8.5a6.739,6.739,0,0,0,2.461-5.019,1.326,1.326,0,0,1,.939-1.282,1.562,1.562,0,0,1,2.206,1.539c.012,3.959.006,7.917.006,11.877,0,1.942,0,1.917,1.919,1.93.592,0,.722-.18.719-.743C3854.552,4192.013,3854.563,4187.9,3854.562,4183.787Z" transform="translate(-3765.167 -4180.772)"/>
        <path id="Path_198" data-name="Path 198" d="M3410.684,4180.836c-2.6-.005-5.192,0-7.789,0-2.571,0-5.141,0-7.712,0a2.649,2.649,0,0,0-2.932,2.967q0,5.052,0,10.1a2.628,2.628,0,0,0,2.827,2.929q7.827.038,15.655,0a2.609,2.609,0,0,0,2.844-2.9q.005-5.088,0-10.178A2.618,2.618,0,0,0,3410.684,4180.836Zm.239,13.4a1.823,1.823,0,0,1-2.092,2.067c-1.979.006-3.958,0-5.937,0s-3.958.005-5.937,0a1.812,1.812,0,0,1-2.048-2.041q-.016-5.435,0-10.871a1.8,1.8,0,0,1,2.059-2.028q5.937-.01,11.874,0a1.817,1.817,0,0,1,2.081,2.08Q3410.932,4188.835,3410.922,4194.233Z" transform="translate(-3392.248 -4180.767)"/>
        <path id="Path_199" data-name="Path 199" d="M3705.586,4191.282c-.507.011-.6.2-.583.641.026.8.022,1.595,0,2.391a1.664,1.664,0,0,1-1.682,1.748q-6.288.04-12.578,0a1.609,1.609,0,0,1-1.686-1.725q-.022-5.709,0-11.418a1.6,1.6,0,0,1,1.576-1.663c.282-.023.565-.025.848-.025l13.812-.04c.668,0,1.337-.019,2.006-.029.192,0,.364-.031.36-.285s-.168-.293-.363-.3-.412-.006-.617-.007q-4.322,0-8.643,0c-2.906,0-5.813-.016-8.719.005a2.721,2.721,0,0,0-2.977,2.744q-.032,5.322,0,10.647a2.549,2.549,0,0,0,2.65,2.619c5.35.013,10.7,0,16.051.007a2.582,2.582,0,0,0,2.126-1.058,3.292,3.292,0,0,0,.517-2.2C3707.677,4191.216,3707.684,4191.235,3705.586,4191.282Z" transform="translate(-3640.929 -4180.543)"/>
        <path id="Path_200" data-name="Path 200" d="M3558.436,4191.143c-.41.02-.53.149-.519.542q.034,1.234,0,2.468a1.688,1.688,0,0,1-1.747,1.769q-6.248.032-12.5,0a1.625,1.625,0,0,1-1.729-1.7q-.04-5.746,0-11.492a1.6,1.6,0,0,1,1.627-1.621c.385-.028.771-.025,1.157-.027q7.558-.034,15.117-.077c.245,0,.723.225.7-.294-.021-.478-.478-.27-.737-.274-1.414-.022-2.828-.01-4.242-.01-4.423,0-8.846-.01-13.268,0a2.723,2.723,0,0,0-3.042,3.05q0,5.052,0,10.105a2.583,2.583,0,0,0,2.86,2.86c2.6.006,5.194,0,7.791,0,2.649,0,5.3-.01,7.946.006a2.656,2.656,0,0,0,2.112-.927,3.278,3.278,0,0,0,.617-2.4C3560.568,4191.026,3560.58,4191.038,3558.436,4191.143Z" transform="translate(-3516.563 -4180.399)"/>
      </g>
      <path id="Path_201" data-name="Path 201" d="M3617.038,3870.13c-1.352-4.607-2.574-9.253-3.841-13.885a10.406,10.406,0,0,0-.983-2.556,3.466,3.466,0,0,0-3.108-1.97q-9.2,0-18.4,0a3.312,3.312,0,0,0-2.721,1.352,6.223,6.223,0,0,0-1.035,2.085q-2.327,7.67-4.646,15.34a2.283,2.283,0,0,0-.048,1.155,3.847,3.847,0,0,0,3.835,3.113q6.786.009,13.572,0,6.74,0,13.481,0a5.388,5.388,0,0,0,1.031-.087A3.753,3.753,0,0,0,3617.038,3870.13Zm-30.641,2.353c-.151-.046-.154-.276-.2-.431a1.914,1.914,0,0,1,.024-1.109q2.293-8.146,4.582-16.295a3.816,3.816,0,0,1,.543-1.23,1.818,1.818,0,0,1,1.506-.856q6.717-.006,13.435,0a1.112,1.112,0,0,1,.157.012c-1.565,1.617-3.116,3.275-4.726,4.873q-7.455,7.4-14.948,14.758C3586.657,3872.314,3586.562,3872.531,3586.4,3872.483Zm24.814,1.479a5.463,5.463,0,0,1-.675.028q-4.62,0-9.243,0-4.778,0-9.557,0c-.231,0-.508.072-.624-.227s.138-.434.3-.593q6.461-6.288,12.931-12.566a7.948,7.948,0,0,0,2.321-5.091,10.465,10.465,0,0,1,.165-1.79c.117-.412.265-.905.693-.984s.729.345.979.683a3.671,3.671,0,0,1,.569,1.314c1.387,5.438,2.749,10.884,4.174,16.313A2.458,2.458,0,0,1,3611.212,3873.962Z" transform="translate(-2915.227 -3162.4)"/>
    </g>
  </g>
</svg>