<svg xmlns="http://www.w3.org/2000/svg" width="426" height="68" viewBox="0 0 426 68">
  <g id="Group_46" data-name="Group 46" transform="translate(-723 -643)">
    <g id="Rectangle_36" data-name="Rectangle 36" transform="translate(727 711) rotate(-90)" fill="none" stroke="#ECBD00" stroke-width="2">
      <rect width="64" height="199" rx="4" stroke="none"/>
      <rect x="1" y="1" width="62" height="197" rx="3" fill="none"/>
    </g>
    <g id="Rectangle_37" data-name="Rectangle 37" transform="translate(950 711) rotate(-90)" fill="none" stroke="#ECBD00" stroke-width="2">
      <rect width="64" height="199" rx="4" stroke="none"/>
      <rect x="1" y="1" width="62" height="197" rx="3" fill="none"/>
    </g>
    <rect id="Rectangle_35" data-name="Rectangle 35" width="64" height="199" rx="4" transform="translate(723 707) rotate(-90)" fill="#fff"/>
    <rect id="Rectangle_38" data-name="Rectangle 38" width="64" height="199" rx="4" transform="translate(946 707) rotate(-90)" fill="#fff"/>
    <text id="Incubated_By" data-name="Incubated By" transform="translate(795 659)" fill="#ECBD00" font-size="8" font-family="NeueMachina-Ultrabold, Neue Machina" font-weight="700"><tspan x="0" y="0">Incubated By</tspan></text>
    <text id="Powered_By" data-name="Powered By" transform="translate(1021 659)" fill="#ECBD00" font-size="8" font-family="NeueMachina-Ultrabold, Neue Machina" font-weight="700"><tspan x="0" y="0">Powered By</tspan></text>
    <g id="Group_42" data-name="Group 42" transform="translate(74.117 -19.319)">
      <g id="Group_39" data-name="Group 39" transform="translate(711.639 692.778)">
        <path id="Path_196" data-name="Path 196" d="M4008.8,4183.323a2.542,2.542,0,0,0-2.607-2.511c-.746-.017-1.492-.01-2.238,0-3.958.039-3.129-.4-6.022,2.486a5.48,5.48,0,0,0-1.745,3.973,1.414,1.414,0,0,1-1.454,1.544,1.4,1.4,0,0,1-1.415-1.506,5.328,5.328,0,0,0-1.827-4.091c-.547-.5-1.054-1.055-1.578-1.585a2.663,2.663,0,0,0-2.007-.824c-1.389.014-2.778,0-4.167,0-2.036,0-3.034.994-3.036,3.021q0,5.479,0,10.955c0,2.068,0,2.049,2.055,2.023.526-.007.638-.189.633-.672-.022-2.158-.01-4.318-.01-6.479,0-2.083.015-4.166-.006-6.249a1.774,1.774,0,0,1,3.213-1.292q3.062,3.1,6.15,6.178c1.406,1.408,2.614,1.4,4.039-.024q3.137-3.135,6.271-6.276a1.7,1.7,0,0,1,2.021-.494,1.8,1.8,0,0,1,1.062,1.877c-.012,3.805-.006,7.612-.005,11.417,0,2.2,0,2.185,2.221,2.008.379-.03.476-.172.475-.518C4008.816,4191.963,4008.844,4187.644,4008.8,4183.323Z" transform="translate(-3889.86 -4180.739)"/>
        <path id="Path_197" data-name="Path 197" d="M3854.562,4183.787c0-2.016-.942-2.945-2.986-2.946h-17.432q-.27,0-.541,0c-.191,0-.364.023-.356.285s.2.256.378.261c.206,0,.412,0,.617,0q6.749,0,13.5.005c.258,0,.545-.09.813.11l-15.218,15.345c1.055,0,1.979-.031,2.9.012a1.68,1.68,0,0,0,1.358-.542c2.892-2.853,5.763-5.728,8.73-8.5a6.739,6.739,0,0,0,2.461-5.019,1.326,1.326,0,0,1,.939-1.282,1.562,1.562,0,0,1,2.206,1.539c.012,3.959.006,7.917.006,11.877,0,1.942,0,1.917,1.919,1.93.592,0,.722-.18.719-.743C3854.552,4192.013,3854.563,4187.9,3854.562,4183.787Z" transform="translate(-3765.167 -4180.772)"/>
        <path id="Path_198" data-name="Path 198" d="M3410.684,4180.836c-2.6-.005-5.192,0-7.789,0-2.571,0-5.141,0-7.712,0a2.649,2.649,0,0,0-2.932,2.967q0,5.052,0,10.1a2.628,2.628,0,0,0,2.827,2.929q7.827.038,15.655,0a2.609,2.609,0,0,0,2.844-2.9q.005-5.088,0-10.178A2.618,2.618,0,0,0,3410.684,4180.836Zm.239,13.4a1.823,1.823,0,0,1-2.092,2.067c-1.979.006-3.958,0-5.937,0s-3.958.005-5.937,0a1.812,1.812,0,0,1-2.048-2.041q-.016-5.435,0-10.871a1.8,1.8,0,0,1,2.059-2.028q5.937-.01,11.874,0a1.817,1.817,0,0,1,2.081,2.08Q3410.932,4188.835,3410.922,4194.233Z" transform="translate(-3392.248 -4180.767)"/>
        <path id="Path_199" data-name="Path 199" d="M3705.586,4191.282c-.507.011-.6.2-.583.641.026.8.022,1.595,0,2.391a1.664,1.664,0,0,1-1.682,1.748q-6.288.04-12.578,0a1.609,1.609,0,0,1-1.686-1.725q-.022-5.709,0-11.418a1.6,1.6,0,0,1,1.576-1.663c.282-.023.565-.025.848-.025l13.812-.04c.668,0,1.337-.019,2.006-.029.192,0,.364-.031.36-.285s-.168-.293-.363-.3-.412-.006-.617-.007q-4.322,0-8.643,0c-2.906,0-5.813-.016-8.719.005a2.721,2.721,0,0,0-2.977,2.744q-.032,5.322,0,10.647a2.549,2.549,0,0,0,2.65,2.619c5.35.013,10.7,0,16.051.007a2.582,2.582,0,0,0,2.126-1.058,3.292,3.292,0,0,0,.517-2.2C3707.677,4191.216,3707.684,4191.235,3705.586,4191.282Z" transform="translate(-3640.929 -4180.543)"/>
        <path id="Path_200" data-name="Path 200" d="M3558.436,4191.143c-.41.02-.53.149-.519.542q.034,1.234,0,2.468a1.688,1.688,0,0,1-1.747,1.769q-6.248.032-12.5,0a1.625,1.625,0,0,1-1.729-1.7q-.04-5.746,0-11.492a1.6,1.6,0,0,1,1.627-1.621c.385-.028.771-.025,1.157-.027q7.558-.034,15.117-.077c.245,0,.723.225.7-.294-.021-.478-.478-.27-.737-.274-1.414-.022-2.828-.01-4.242-.01-4.423,0-8.846-.01-13.268,0a2.723,2.723,0,0,0-3.042,3.05q0,5.052,0,10.105a2.583,2.583,0,0,0,2.86,2.86c2.6.006,5.194,0,7.791,0,2.649,0,5.3-.01,7.946.006a2.656,2.656,0,0,0,2.112-.927,3.278,3.278,0,0,0,.617-2.4C3560.568,4191.026,3560.58,4191.038,3558.436,4191.143Z" transform="translate(-3516.563 -4180.399)"/>
      </g>
      <path id="Path_201" data-name="Path 201" d="M3617.038,3870.13c-1.352-4.607-2.574-9.253-3.841-13.885a10.406,10.406,0,0,0-.983-2.556,3.466,3.466,0,0,0-3.108-1.97q-9.2,0-18.4,0a3.312,3.312,0,0,0-2.721,1.352,6.223,6.223,0,0,0-1.035,2.085q-2.327,7.67-4.646,15.34a2.283,2.283,0,0,0-.048,1.155,3.847,3.847,0,0,0,3.835,3.113q6.786.009,13.572,0,6.74,0,13.481,0a5.388,5.388,0,0,0,1.031-.087A3.753,3.753,0,0,0,3617.038,3870.13Zm-30.641,2.353c-.151-.046-.154-.276-.2-.431a1.914,1.914,0,0,1,.024-1.109q2.293-8.146,4.582-16.295a3.816,3.816,0,0,1,.543-1.23,1.818,1.818,0,0,1,1.506-.856q6.717-.006,13.435,0a1.112,1.112,0,0,1,.157.012c-1.565,1.617-3.116,3.275-4.726,4.873q-7.455,7.4-14.948,14.758C3586.657,3872.314,3586.562,3872.531,3586.4,3872.483Zm24.814,1.479a5.463,5.463,0,0,1-.675.028q-4.62,0-9.243,0-4.778,0-9.557,0c-.231,0-.508.072-.624-.227s.138-.434.3-.593q6.461-6.288,12.931-12.566a7.948,7.948,0,0,0,2.321-5.091,10.465,10.465,0,0,1,.165-1.79c.117-.412.265-.905.693-.984s.729.345.979.683a3.671,3.671,0,0,1,.569,1.314c1.387,5.438,2.749,10.884,4.174,16.313A2.458,2.458,0,0,1,3611.212,3873.962Z" transform="translate(-2915.227 -3162.4)"/>
    </g>
    <g id="Group_45" data-name="Group 45" transform="translate(25 13)">
      <g id="Group_41" data-name="Group 41" transform="translate(939 657)">
        <path id="Path_209" data-name="Path 209" d="M90.46,194a.543.543,0,1,0,.511.573A.543.543,0,0,0,90.46,194Z" transform="translate(-89.887 -182.994)"/>
        <path id="Path_210" data-name="Path 210" d="M151.69,185.143a1.683,1.683,0,0,0,1.582,1.773l.1,0a1.68,1.68,0,1,0-1.678-1.775Z" transform="translate(-144.854 -173.705)"/>
        <path id="Path_211" data-name="Path 211" d="M90.46,194a.543.543,0,1,0,.511.573A.543.543,0,0,0,90.46,194Z" transform="translate(-89.887 -182.994)"/>
        <path id="Path_212" data-name="Path 212" d="M144.413,101.47a.543.543,0,1,0-.729-.241A.543.543,0,0,0,144.413,101.47Z" transform="translate(-137.683 -99.779)"/>
        <path id="Path_213" data-name="Path 213" d="M156.37,123.838a.839.839,0,1,0-1.127-.372A.839.839,0,0,0,156.37,123.838Z" transform="translate(-147.937 -119.174)"/>
        <path id="Path_214" data-name="Path 214" d="M111.788,144.889a.691.691,0,1,0-.2-.957A.691.691,0,0,0,111.788,144.889Z" transform="translate(-109.089 -138.183)"/>
        <path id="Path_215" data-name="Path 215" d="M116.4,191.262a.839.839,0,1,0,.79.886A.839.839,0,0,0,116.4,191.262Z" transform="translate(-112.678 -180.555)"/>
        <path id="Path_216" data-name="Path 216" d="M112.072,241.675a.691.691,0,1,0,.928.306A.691.691,0,0,0,112.072,241.675Z" transform="translate(-109.281 -225.33)"/>
        <path id="Path_217" data-name="Path 217" d="M141.025,161.011a.987.987,0,1,0-.284-1.367A.987.987,0,0,0,141.025,161.011Z" transform="translate(-134.975 -152.038)"/>
        <path id="Path_218" data-name="Path 218" d="M235.119,123.613a.839.839,0,1,0-.241-1.162A.839.839,0,0,0,235.119,123.613Z" transform="translate(-218.724 -119.017)"/>
        <path id="Path_219" data-name="Path 219" d="M251.764,101.2a.543.543,0,1,0-.157-.752A.543.543,0,0,0,251.764,101.2Z" transform="translate(-233.647 -99.567)"/>
        <path id="Path_220" data-name="Path 220" d="M225.081,183.406a1.68,1.68,0,0,0-.191,3.354l.1,0a1.68,1.68,0,0,0,.094-3.357Z" transform="translate(-208.554 -173.567)"/>
        <path id="Path_221" data-name="Path 221" d="M169.708,154.945a1.672,1.672,0,0,0,1.5.924,1.68,1.68,0,0,0,1.5-2.436,1.672,1.672,0,0,0-1.5-.924,1.68,1.68,0,0,0-1.5,2.436Z" transform="translate(-160.722 -146.089)"/>
        <path id="Path_222" data-name="Path 222" d="M282.186,144.554a.691.691,0,1,0-.928-.306A.692.692,0,0,0,282.186,144.554Z" transform="translate(-260.033 -137.849)"/>
        <path id="Path_223" data-name="Path 223" d="M247.347,159.068a.987.987,0,1,0,1.326.437A.987.987,0,0,0,247.347,159.068Z" transform="translate(-229.454 -151.828)"/>
        <path id="Path_224" data-name="Path 224" d="M196.874,95.823a.691.691,0,1,0-.651-.729A.691.691,0,0,0,196.874,95.823Z" transform="translate(-184.465 -94.442)"/>
        <path id="Path_225" data-name="Path 225" d="M194.556,130.388a.988.988,0,1,0-.93-1.042A.988.988,0,0,0,194.556,130.388Z" transform="translate(-182.154 -124.658)"/>
        <path id="Path_226" data-name="Path 226" d="M142.146,222.4a.987.987,0,1,0-1.326-.438A.988.988,0,0,0,142.146,222.4Z" transform="translate(-135.094 -206.585)"/>
        <path id="Path_227" data-name="Path 227" d="M205.612,153.188a1.679,1.679,0,1,0,1.406-.759A1.682,1.682,0,0,0,205.612,153.188Z" transform="translate(-192.572 -146.017)"/>
        <path id="Path_228" data-name="Path 228" d="M208.643,215.373a1.68,1.68,0,1,0-.744,2.256A1.672,1.672,0,0,0,208.643,215.373Z" transform="translate(-192.683 -201.18)"/>
        <path id="Path_229" data-name="Path 229" d="M248.468,220.454a.987.987,0,1,0,.284,1.367A.988.988,0,0,0,248.468,220.454Z" transform="translate(-229.574 -206.378)"/>
        <path id="Path_230" data-name="Path 230" d="M276.361,191.795a.839.839,0,1,0-.886.79A.839.839,0,0,0,276.361,191.795Z" transform="translate(-254.251 -180.241)"/>
        <path id="Path_231" data-name="Path 231" d="M306.245,193.526a.543.543,0,1,0,.511.573A.544.544,0,0,0,306.245,193.526Z" transform="translate(-281.812 -182.57)"/>
        <path id="Path_232" data-name="Path 232" d="M282.471,241.34a.691.691,0,1,0,.2.957A.691.691,0,0,0,282.471,241.34Z" transform="translate(-260.226 -224.997)"/>
        <path id="Path_233" data-name="Path 233" d="M144.878,287.411a.543.543,0,1,0,.156.752A.543.543,0,0,0,144.878,287.411Z" transform="translate(-138.05 -265.995)"/>
        <path id="Path_234" data-name="Path 234" d="M252.231,287.143a.543.543,0,1,0,.73.24A.543.543,0,0,0,252.231,287.143Z" transform="translate(-234.015 -265.785)"/>
        <path id="Path_235" data-name="Path 235" d="M172.742,217.13a1.68,1.68,0,1,0-1.406.759A1.669,1.669,0,0,0,172.742,217.13Z" transform="translate(-160.836 -201.251)"/>
        <path id="Path_236" data-name="Path 236" d="M156.758,260.232a.839.839,0,1,0,.242,1.162A.839.839,0,0,0,156.758,260.232Z" transform="translate(-148.208 -241.778)"/>
        <path id="Path_237" data-name="Path 237" d="M196.742,290.4a.691.691,0,1,0,.651.729A.691.691,0,0,0,196.742,290.4Z" transform="translate(-184.278 -268.737)"/>
        <path id="Path_238" data-name="Path 238" d="M194.3,251.074a.987.987,0,1,0,.93,1.042A.987.987,0,0,0,194.3,251.074Z" transform="translate(-181.823 -233.754)"/>
        <path id="Path_239" data-name="Path 239" d="M235.5,260.008a.839.839,0,1,0,1.127.372A.839.839,0,0,0,235.5,260.008Z" transform="translate(-218.993 -241.621)"/>
      </g>
      <g id="Group_44" data-name="Group 44" transform="translate(969.952 661)">
        <path id="Path_240" data-name="Path 240" d="M5114.925,3445.917c.123-.071.227-.17.342-.252,2.32-1.65,2.334-5.452,1.23-7.429a5.016,5.016,0,0,0-4.729-2.542c-3.478-.03-6.956,0-10.434-.027-.539,0-.666.148-.663.673q.031,6.992,0,13.983c0,.462.063.707.607.644a5.915,5.915,0,0,1,1.347.007c.6.068.75-.152.746-.739-.027-3.738-.015-7.476-.019-11.214,0-.358-.076-.677.514-.669,2.554.035,5.111.01,7.666.021a3.317,3.317,0,0,1,1.39.2c1.338.6,1.874,1.818,1.558,3.552a2.407,2.407,0,0,1-2.581,2.206c-1.633.046-3.267.022-4.9.024-1.772,0-1.755,0-1.721,1.795.008.467.151.6.613.593,1.514-.026,3.029.005,4.542-.016a1.084,1.084,0,0,1,.918.4c1.034,1.162,2.093,2.3,3.137,3.451.144.158.261.379.487.382,1.173.014,2.346.006,3.52.006.03-.065.062-.129.093-.194q-1.894-1.844-3.787-3.689C5114.107,3446.4,5114.107,3446.4,5114.925,3445.917Z" transform="translate(-5062.097 -3435.458)"/>
        <path id="Path_241" data-name="Path 241" d="M5252.622,3440.224c-1.13-2.964-3.632-4.516-7.064-4.529-2.7-.01-5.4.017-8.092-.013-.5-.005-.59.15-.586.594.018,2.342.008,4.684.008,7.027,0,2.318.016,4.637-.012,6.956-.007.542.112.741.695.733,2.532-.03,5.063-.01,7.6-.015a9.467,9.467,0,0,0,2.8-.329C5252.487,3449.259,5254.145,3444.215,5252.622,3440.224Zm-2.184,3.833a4.7,4.7,0,0,1-4.7,4.23c-1.869.019-3.738-.005-5.607.018-.461.006-.61-.126-.6-.6.032-1.466.011-2.933.011-4.4,0-1.444.013-2.887-.008-4.329-.007-.437.064-.618.574-.607,1.8.037,3.6,0,5.393.016A4.778,4.778,0,0,1,5250.438,3444.058Z" transform="translate(-5178.958 -3435.472)"/>
        <path id="Path_242" data-name="Path 242" d="M5642.844,3441.165a6.763,6.763,0,0,0-6.367-5.389c-1.582-.12-3.166-.046-4.749-.052a6.738,6.738,0,0,0-1.542.176,6.919,6.919,0,0,0-5.641,6.414,7.639,7.639,0,0,0,5.247,8.387,14.386,14.386,0,0,0,4.01.294c.59,0,1.182.005,1.772,0a7.151,7.151,0,0,0,4.66-1.561A7.779,7.779,0,0,0,5642.844,3441.165Zm-2.422,2.267a4.729,4.729,0,0,1-4.652,4.877c-.685.029-1.37,0-2.056.005a8.461,8.461,0,0,1-4.021-.542,5.087,5.087,0,0,1-2.38-5.632,4.488,4.488,0,0,1,4.089-3.683,36.126,36.126,0,0,1,4.743,0A4.607,4.607,0,0,1,5640.422,3443.432Z" transform="translate(-5511.525 -3435.493)"/>
        <path id="Path_243" data-name="Path 243" d="M5513.5,3434.626c-.385-.372-1.174-.051-1.777-.123-.568-.068-.66.185-.658.684.018,3.192.012,6.385,0,9.577,0,.214.182.525-.1.637-.253.1-.392-.223-.539-.368q-5.038-4.965-10.035-9.965a1.563,1.563,0,0,0-1.709-.524c-.729.247-.844.886-.869,1.55-.009.236,0,.473,0,.709q0,5.6,0,11.208c0,.606-.213,1.427.093,1.765.374.41,1.21.071,1.841.142.5.056.633-.12.628-.622-.024-3.027-.011-6.053-.011-9.08v-1.38c2.6,2.583,5.087,5.045,7.565,7.515,1.063,1.061,2.1,2.149,3.169,3.205a1.5,1.5,0,0,0,1.737.423,1.38,1.38,0,0,0,.785-1.452c0-.189,0-.378,0-.567,0-3.854.009-7.709,0-11.563C5513.625,3435.792,5513.893,3435,5513.5,3434.626Z" transform="translate(-5402.781 -3434.409)"/>
        <path id="Path_244" data-name="Path 244" d="M4958.932,3435.346c-.9-1.5-1.993-1.534-2.881-.059q-2.966,4.922-5.917,9.854l-2.738,4.56c1.039,0,1.954-.012,2.868.008.264.006.3-.179.392-.329q1.389-2.344,2.771-4.692,1.833-3.106,3.673-6.208c.091-.152.183-.6.446-.167,1.062,1.741,2.092,3.5,3.194,5.36-1.425,0-2.743,0-4.061,0-.275,0-.572-.062-.75.258-.341.611-.7,1.213-1.046,1.818.246.2.493.118.718.118,1.963.007,3.927.013,5.891-.007a.821.821,0,0,1,.84.474c.577,1.029,1.214,2.024,1.8,3.047.106.185.2.315.41.317.987,0,1.976,0,3.073,0a3.406,3.406,0,0,1-.247-.3Q4963.149,3442.375,4958.932,3435.346Z" transform="translate(-4930.587 -3434.201)"/>
        <path id="Path_245" data-name="Path 245" d="M5353.8,3435.333q-1.37,2.306-2.752,4.6c-1.947,3.243-3.9,6.484-5.912,9.84a11.932,11.932,0,0,1,1.624.012,1.987,1.987,0,0,0,2.243-1.29c1.872-3.344,3.866-6.62,5.824-9.916.089-.148.186-.656.481-.173,1,1.627,1.969,3.274,2.951,4.913.174.289.133.424-.237.418a15.856,15.856,0,0,1-2.269-.02,2.372,2.372,0,0,0-2.911,1.7c-.213.539-.106.524.342.521,2.011-.014,4.021-.011,6.032,0,.284,0,.576-.076.782.3.494.909,1.117,1.75,1.57,2.677a1.35,1.35,0,0,0,1.544.871c.7-.072,1.415-.016,2.223-.016-2.979-4.939-5.856-9.707-8.729-14.479C5355.789,3433.933,5354.629,3433.944,5353.8,3435.333Z" transform="translate(-5271.849 -3434.271)"/>
        <path id="Path_246" data-name="Path 246" d="M4836.79,3438.4c1.964.022,3.929.015,5.894,0,.653-.006,1.523.292,1.9-.125.4-.444.066-1.31.126-1.988.037-.429-.106-.579-.552-.575-2.721.023-5.442-.01-8.164.036a7.085,7.085,0,0,0-6.956,7.106,7.466,7.466,0,0,0,6.347,8.065,35.571,35.571,0,0,0,4.3.087c1.165,0,2.087,0,3.01,0,.636,0,1.468.213,1.854-.1.45-.37.081-1.24.164-1.886.07-.548-.112-.714-.69-.707-2.6.031-5.206.023-7.809-.007a4.143,4.143,0,0,1-3.1-1.343,5.132,5.132,0,0,1-.989-5.673A4.491,4.491,0,0,1,4836.79,3438.4Z" transform="translate(-4829.031 -3435.498)"/>
      </g>
    </g>
  </g>
</svg>
