<svg xmlns="http://www.w3.org/2000/svg" width="283" height="77" viewBox="0 0 283 77">
  <g id="Group_57" data-name="Group 57" transform="translate(-1308 -905)">
    <g id="Rectangle_50" data-name="Rectangle 50" transform="translate(1311 982) rotate(-90)" fill="none" stroke="#de007e" stroke-width="2">
      <rect width="68" height="280" rx="4" stroke="none"/>
      <rect x="1" y="1" width="66" height="278" rx="3" fill="none"/>
    </g>
    <rect id="Rectangle_49" data-name="Rectangle 49" width="59" height="262" rx="4" transform="translate(1308 966) rotate(-90)" fill="#fff"/>
    <text id="Powered_By" data-name="Powered By" transform="translate(1512 920)" fill="#de007e" font-size="16" font-family="MontserratAlternates-ExtraBold, Montserrat Alternates" font-weight="800"><tspan x="-52.52" y="0">Powered By</tspan></text>
    <g id="Group_45" data-name="Group 45" transform="translate(1336.325 934.161)">
      <g id="Group_41" data-name="Group 41" transform="translate(0 0)">
        <path id="Path_209" data-name="Path 209" d="M90.692,194a.763.763,0,1,0,.718.805A.762.762,0,0,0,90.692,194Z" transform="translate(-89.887 -178.538)"/>
        <path id="Path_210" data-name="Path 210" d="M151.691,185.785a2.364,2.364,0,0,0,2.222,2.49c.046,0,.091,0,.136,0a2.36,2.36,0,1,0-2.358-2.494Z" transform="translate(-142.089 -169.717)"/>
        <path id="Path_211" data-name="Path 211" d="M90.692,194a.763.763,0,1,0,.718.805A.762.762,0,0,0,90.692,194Z" transform="translate(-89.887 -178.538)"/>
        <path id="Path_212" data-name="Path 212" d="M144.732,101.886a.763.763,0,1,0-1.025-.338A.763.763,0,0,0,144.732,101.886Z" transform="translate(-135.278 -99.51)"/>
        <path id="Path_213" data-name="Path 213" d="M156.863,124.48a1.179,1.179,0,1,0-1.583-.522A1.178,1.178,0,0,0,156.863,124.48Z" transform="translate(-145.016 -117.93)"/>
        <path id="Path_214" data-name="Path 214" d="M111.915,145.4a.971.971,0,1,0-.28-1.344A.971.971,0,0,0,111.915,145.4Z" transform="translate(-108.123 -135.982)"/>
        <path id="Path_215" data-name="Path 215" d="M116.758,191.262a1.179,1.179,0,1,0,1.11,1.244A1.179,1.179,0,0,0,116.758,191.262Z" transform="translate(-111.531 -176.222)"/>
        <path id="Path_216" data-name="Path 216" d="M112.226,241.7a.971.971,0,1,0,1.3.43A.971.971,0,0,0,112.226,241.7Z" transform="translate(-108.305 -218.744)"/>
        <path id="Path_217" data-name="Path 217" d="M141.206,161.745a1.387,1.387,0,1,0-.4-1.921A1.386,1.386,0,0,0,141.206,161.745Z" transform="translate(-132.706 -149.14)"/>
        <path id="Path_218" data-name="Path 218" d="M235.272,124.237a1.179,1.179,0,1,0-.339-1.632A1.179,1.179,0,0,0,235.272,124.237Z" transform="translate(-212.241 -117.78)"/>
        <path id="Path_219" data-name="Path 219" d="M251.863,101.6a.763.763,0,1,0-.22-1.057A.763.763,0,0,0,251.863,101.6Z" transform="translate(-226.414 -99.309)"/>
        <path id="Path_220" data-name="Path 220" d="M225.8,183.407a2.36,2.36,0,0,0-.268,4.712c.045,0,.091,0,.136,0a2.36,2.36,0,0,0,.133-4.716Z" transform="translate(-202.583 -169.585)"/>
        <path id="Path_221" data-name="Path 221" d="M169.78,155.931a2.349,2.349,0,0,0,2.109,1.3,2.361,2.361,0,0,0,2.106-3.422,2.349,2.349,0,0,0-2.109-1.3,2.36,2.36,0,0,0-2.105,3.422Z" transform="translate(-157.158 -143.49)"/>
        <path id="Path_222" data-name="Path 222" d="M282.592,145.084a.971.971,0,1,0-1.3-.43A.972.972,0,0,0,282.592,145.084Z" transform="translate(-251.472 -135.665)"/>
        <path id="Path_223" data-name="Path 223" d="M247.567,159.111a1.387,1.387,0,1,0,1.863.614A1.387,1.387,0,0,0,247.567,159.111Z" transform="translate(-222.431 -148.941)"/>
        <path id="Path_224" data-name="Path 224" d="M197.138,96.382a.971.971,0,1,0-.915-1.024A.971.971,0,0,0,197.138,96.382Z" transform="translate(-179.706 -94.442)"/>
        <path id="Path_225" data-name="Path 225" d="M194.933,131.187a1.387,1.387,0,1,0-1.306-1.464A1.388,1.388,0,0,0,194.933,131.187Z" transform="translate(-177.512 -123.138)"/>
        <path id="Path_226" data-name="Path 226" d="M142.725,223.152a1.387,1.387,0,1,0-1.862-.615A1.387,1.387,0,0,0,142.725,223.152Z" transform="translate(-132.819 -200.943)"/>
        <path id="Path_227" data-name="Path 227" d="M205.723,153.5a2.358,2.358,0,1,0,1.975-1.066A2.362,2.362,0,0,0,205.723,153.5Z" transform="translate(-187.405 -143.422)"/>
        <path id="Path_228" data-name="Path 228" d="M209.931,215.748a2.36,2.36,0,1,0-1.045,3.169A2.349,2.349,0,0,0,209.931,215.748Z" transform="translate(-187.511 -195.809)"/>
        <path id="Path_229" data-name="Path 229" d="M249.087,220.52a1.387,1.387,0,1,0,.4,1.92A1.388,1.388,0,0,0,249.087,220.52Z" transform="translate(-222.546 -200.745)"/>
        <path id="Path_230" data-name="Path 230" d="M277.04,192.154a1.179,1.179,0,1,0-1.244,1.11A1.179,1.179,0,0,0,277.04,192.154Z" transform="translate(-245.981 -175.924)"/>
        <path id="Path_231" data-name="Path 231" d="M306.478,193.526a.763.763,0,1,0,.718.8A.764.764,0,0,0,306.478,193.526Z" transform="translate(-272.155 -178.135)"/>
        <path id="Path_232" data-name="Path 232" d="M282.9,241.386a.971.971,0,1,0,.28,1.344A.971.971,0,0,0,282.9,241.386Z" transform="translate(-251.655 -218.428)"/>
        <path id="Path_233" data-name="Path 233" d="M145.218,287.447a.763.763,0,1,0,.219,1.056A.763.763,0,0,0,145.218,287.447Z" transform="translate(-135.626 -257.364)"/>
        <path id="Path_234" data-name="Path 234" d="M252.351,287.167a.763.763,0,1,0,1.025.338A.762.762,0,0,0,252.351,287.167Z" transform="translate(-226.763 -257.164)"/>
        <path id="Path_235" data-name="Path 235" d="M173.991,218.183a2.36,2.36,0,1,0-1.975,1.066A2.344,2.344,0,0,0,173.991,218.183Z" transform="translate(-157.266 -195.877)"/>
        <path id="Path_236" data-name="Path 236" d="M157.284,260.287a1.179,1.179,0,1,0,.34,1.632A1.179,1.179,0,0,0,157.284,260.287Z" transform="translate(-145.274 -234.365)"/>
        <path id="Path_237" data-name="Path 237" d="M197.038,290.405a.971.971,0,1,0,.914,1.025A.971.971,0,0,0,197.038,290.405Z" transform="translate(-179.528 -259.967)"/>
        <path id="Path_238" data-name="Path 238" d="M194.718,251.075a1.387,1.387,0,1,0,1.306,1.464A1.387,1.387,0,0,0,194.718,251.075Z" transform="translate(-177.198 -226.745)"/>
        <path id="Path_239" data-name="Path 239" d="M235.691,260.044a1.179,1.179,0,1,0,1.584.523A1.179,1.179,0,0,0,235.691,260.044Z" transform="translate(-212.497 -234.216)"/>
      </g>
      <g id="Group_44" data-name="Group 44" transform="translate(43.479 5.619)">
        <path id="Path_240" data-name="Path 240" d="M5120.694,3450.066c.172-.1.318-.24.48-.355,3.259-2.318,3.278-7.659,1.728-10.436-1.452-2.605-3.829-3.547-6.644-3.571-4.885-.042-9.771,0-14.656-.038-.757-.005-.936.208-.932.945q.042,9.822,0,19.644c0,.649.088.993.853.9a8.336,8.336,0,0,1,1.892.01c.837.1,1.055-.214,1.048-1.038-.038-5.251-.021-10.5-.026-15.753,0-.5-.106-.95.723-.939,3.588.049,7.179.014,10.769.029a4.662,4.662,0,0,1,1.952.274c1.879.845,2.633,2.553,2.188,4.989a3.381,3.381,0,0,1-3.626,3.1c-2.293.065-4.589.031-6.88.034-2.489,0-2.465,0-2.417,2.521.012.656.212.844.861.833,2.126-.037,4.255.007,6.381-.022a1.519,1.519,0,0,1,1.289.563c1.452,1.632,2.941,3.231,4.407,4.847.2.222.366.532.685.536,1.647.021,3.295.009,4.943.009.043-.091.087-.182.131-.272q-2.66-2.59-5.319-5.182C5119.545,3450.739,5119.545,3450.745,5120.694,3450.066Z" transform="translate(-5046.483 -3435.374)"/>
        <path id="Path_241" data-name="Path 241" d="M5259,3442.063c-1.588-4.163-5.1-6.345-9.923-6.363-3.79-.013-7.579.024-11.368-.018-.7-.008-.828.211-.824.835.025,3.291.012,6.58.011,9.871,0,3.257.022,6.514-.017,9.771-.01.761.157,1.041.976,1.03,3.557-.042,7.113-.014,10.669-.021a13.289,13.289,0,0,0,3.935-.462C5258.807,3454.755,5261.135,3447.669,5259,3442.063Zm-3.068,5.385a6.6,6.6,0,0,1-6.605,5.943c-2.626.026-5.251-.007-7.876.024-.647.008-.857-.177-.841-.848.044-2.06.016-4.12.016-6.18,0-2.028.019-4.056-.012-6.082-.01-.614.09-.868.807-.853,2.524.053,5.05.006,7.576.022C5253.568,3439.5,5256.509,3442.895,5255.928,3447.448Z" transform="translate(-5155.517 -3435.387)"/>
        <path id="Path_242" data-name="Path 242" d="M5650.276,3443.374a9.5,9.5,0,0,0-8.944-7.57c-2.222-.168-4.447-.064-6.67-.073a9.474,9.474,0,0,0-2.166.248c-4.645,1.088-7.333,4.163-7.924,9.01a10.731,10.731,0,0,0,7.371,11.782,20.221,20.221,0,0,0,5.633.413c.83,0,1.66.008,2.49,0a10.046,10.046,0,0,0,6.546-2.193C5650.317,3451.913,5651.3,3447.9,5650.276,3443.374Zm-3.4,3.185a6.643,6.643,0,0,1-6.535,6.851c-.962.041-1.925.007-2.888.007-1.911-.036-3.837.194-5.649-.762-2.639-1.391-3.984-4.479-3.344-7.911a6.3,6.3,0,0,1,5.745-5.174,50.638,50.638,0,0,1,6.662,0C5644.519,3439.829,5646.956,3442.762,5646.874,3446.559Z" transform="translate(-5465.804 -3435.407)"/>
        <path id="Path_243" data-name="Path 243" d="M5519.885,3434.7c-.542-.523-1.649-.071-2.5-.173-.8-.1-.927.26-.924.96.025,4.484.017,8.968,0,13.453,0,.3.256.737-.141.9-.356.142-.551-.313-.757-.517q-7.077-6.975-14.1-14a2.2,2.2,0,0,0-2.4-.735c-1.023.347-1.185,1.244-1.221,2.177-.013.332-.007.665-.007,1q0,7.871,0,15.746c0,.852-.3,2,.131,2.479.525.576,1.7.1,2.586.2.7.079.889-.168.883-.874-.035-4.252-.016-8.5-.016-12.755v-1.938c3.655,3.628,7.146,7.087,10.628,10.556,1.494,1.491,2.951,3.019,4.452,4.5a2.111,2.111,0,0,0,2.44.595,1.938,1.938,0,0,0,1.1-2.04c0-.266.006-.531.006-.8,0-5.414.013-10.829,0-16.243C5520.053,3436.338,5520.429,3435.23,5519.885,3434.7Z" transform="translate(-5364.346 -3434.395)"/>
        <path id="Path_244" data-name="Path 244" d="M4963.6,3435.809c-1.259-2.105-2.8-2.156-4.047-.083q-4.167,6.914-8.312,13.842l-3.847,6.405c1.459,0,2.745-.017,4.029.011.371.008.426-.251.551-.463q1.952-3.293,3.893-6.591,2.574-4.363,5.16-8.72c.127-.213.257-.84.627-.234,1.492,2.446,2.938,4.92,4.487,7.529-2,0-3.853,0-5.7,0-.387,0-.8-.087-1.054.362-.479.858-.979,1.7-1.47,2.553.346.288.692.166,1.008.166,2.758.01,5.517.019,8.275-.009a1.153,1.153,0,0,1,1.18.667c.811,1.445,1.706,2.843,2.531,4.281.149.259.278.443.575.445,1.387,0,2.775,0,4.317,0a4.767,4.767,0,0,1-.347-.419Q4969.525,3445.684,4963.6,3435.809Z" transform="translate(-4923.784 -3434.201)"/>
        <path id="Path_245" data-name="Path 245" d="M5357.311,3435.758q-1.924,3.239-3.866,6.466c-2.735,4.556-5.474,9.109-8.305,13.823a16.75,16.75,0,0,1,2.281.017c1.567.235,2.383-.437,3.151-1.812,2.63-4.7,5.431-9.3,8.182-13.929.125-.208.26-.922.676-.243,1.4,2.286,2.766,4.6,4.146,6.9.244.406.187.6-.333.586a22.211,22.211,0,0,1-3.187-.028c-2.092-.342-3.324.456-4.089,2.394-.3.757-.15.736.48.731,2.825-.02,5.649-.015,8.474,0,.4,0,.81-.106,1.1.425.694,1.277,1.569,2.458,2.206,3.76a1.9,1.9,0,0,0,2.169,1.224c.985-.1,1.988-.022,3.123-.022-4.186-6.939-8.227-13.636-12.262-20.339C5360.1,3433.792,5358.47,3433.806,5357.311,3435.758Z" transform="translate(-5242.184 -3434.267)"/>
        <path id="Path_246" data-name="Path 246" d="M4839.931,3439.49c2.76.031,5.519.021,8.279,0,.917-.008,2.14.411,2.674-.175.567-.624.093-1.841.177-2.792.051-.6-.149-.813-.776-.808-3.821.032-7.645-.013-11.468.05a9.954,9.954,0,0,0-9.771,9.981c-.268,5.642,3.282,10.562,8.916,11.33a49.937,49.937,0,0,0,6.034.122c1.636,0,2.933.006,4.229,0,.894-.007,2.063.3,2.6-.147.633-.52.114-1.741.23-2.649.1-.77-.157-1-.97-.994-3.655.043-7.313.033-10.969-.01a5.819,5.819,0,0,1-4.351-1.886,7.208,7.208,0,0,1-1.39-7.969C4834.532,3440.639,4836.876,3439.455,4839.931,3439.49Z" transform="translate(-4829.031 -3435.411)"/>
      </g>
    </g>
  </g>
</svg>
