<svg xmlns="http://www.w3.org/2000/svg" width="150" height="40" viewBox="0 0 150 40">
  <g id="Group_233" data-name="Group 233" transform="translate(-32 -737)">
    <g id="Rectangle_44" data-name="Rectangle 44" transform="translate(36 777) rotate(-90)" fill="none" stroke="#ecbd00" stroke-width="2">
      <rect width="35" height="146" rx="4" stroke="none"/>
      <rect x="1" y="1" width="33" height="144" rx="3" fill="none"/>
    </g>
    <rect id="Rectangle_45" data-name="Rectangle 45" width="32" height="136" rx="4" transform="translate(32 770) rotate(-90)" fill="#f8f7f4"/>
    <text id="Powered_By" data-name="Powered By" transform="translate(113 745)" fill="#2d1000" font-size="8" font-family="MontserratAlternates-Bold, Montserrat Alternates" font-weight="700"><tspan x="0" y="0">Powered By</tspan></text>
    <g id="Group_49" data-name="Group 49" transform="translate(46.171 751.903)">
      <g id="Group_41" data-name="Group 41" transform="translate(0 0)">
        <path id="Path_209" data-name="Path 209" d="M90.306,194a.4.4,0,1,0,.374.419A.4.4,0,0,0,90.306,194Z" transform="translate(-89.887 -185.947)"/>
        <path id="Path_210" data-name="Path 210" d="M151.689,184.718a1.231,1.231,0,0,0,1.157,1.3l.071,0a1.229,1.229,0,1,0-1.228-1.3Z" transform="translate(-146.687 -176.349)"/>
        <path id="Path_211" data-name="Path 211" d="M90.306,194a.4.4,0,1,0,.374.419A.4.4,0,0,0,90.306,194Z" transform="translate(-89.887 -185.947)"/>
        <path id="Path_212" data-name="Path 212" d="M144.2,101.194a.4.4,0,1,0-.534-.176A.4.4,0,0,0,144.2,101.194Z" transform="translate(-139.277 -99.957)"/>
        <path id="Path_213" data-name="Path 213" d="M156.044,123.411a.614.614,0,1,0-.825-.272A.614.614,0,0,0,156.044,123.411Z" transform="translate(-149.873 -119.999)"/>
        <path id="Path_214" data-name="Path 214" d="M111.7,144.549a.506.506,0,1,0-.146-.7A.506.506,0,0,0,111.7,144.549Z" transform="translate(-109.729 -139.641)"/>
        <path id="Path_215" data-name="Path 215" d="M116.161,191.261a.614.614,0,1,0,.578.648A.614.614,0,0,0,116.161,191.261Z" transform="translate(-113.438 -183.427)"/>
        <path id="Path_216" data-name="Path 216" d="M111.97,241.655a.506.506,0,1,0,.679.224A.506.506,0,0,0,111.97,241.655Z" transform="translate(-109.928 -229.695)"/>
        <path id="Path_217" data-name="Path 217" d="M140.906,160.524a.722.722,0,1,0-.208-1A.722.722,0,0,0,140.906,160.524Z" transform="translate(-136.478 -153.959)"/>
        <path id="Path_218" data-name="Path 218" d="M235.017,123.2a.614.614,0,1,0-.177-.85A.614.614,0,0,0,235.017,123.2Z" transform="translate(-223.02 -119.837)"/>
        <path id="Path_219" data-name="Path 219" d="M251.7,100.934a.4.4,0,1,0-.115-.55A.4.4,0,0,0,251.7,100.934Z" transform="translate(-238.442 -99.738)"/>
        <path id="Path_220" data-name="Path 220" d="M224.605,183.405a1.229,1.229,0,0,0-.14,2.454l.071,0a1.229,1.229,0,0,0,.069-2.456Z" transform="translate(-212.512 -176.206)"/>
        <path id="Path_221" data-name="Path 221" d="M169.66,154.292a1.229,1.229,0,1,0,1.1-1.783,1.229,1.229,0,0,0-1.1,1.783Z" transform="translate(-163.085 -147.811)"/>
        <path id="Path_222" data-name="Path 222" d="M281.918,144.2a.506.506,0,1,0-.679-.224A.506.506,0,0,0,281.918,144.2Z" transform="translate(-265.707 -139.297)"/>
        <path id="Path_223" data-name="Path 223" d="M247.2,159.039a.722.722,0,1,0,.97.32A.722.722,0,0,0,247.2,159.039Z" transform="translate(-234.108 -153.742)"/>
        <path id="Path_224" data-name="Path 224" d="M196.7,95.452a.506.506,0,1,0-.476-.534A.506.506,0,0,0,196.7,95.452Z" transform="translate(-187.619 -94.442)"/>
        <path id="Path_225" data-name="Path 225" d="M194.306,129.858a.723.723,0,1,0-.68-.762A.723.723,0,0,0,194.306,129.858Z" transform="translate(-185.231 -125.666)"/>
        <path id="Path_226" data-name="Path 226" d="M141.761,221.894a.722.722,0,1,0-.97-.32A.723.723,0,0,0,141.761,221.894Z" transform="translate(-136.602 -210.325)"/>
        <path id="Path_227" data-name="Path 227" d="M205.538,152.984a1.228,1.228,0,1,0,1.029-.555A1.23,1.23,0,0,0,205.538,152.984Z" transform="translate(-195.997 -147.738)"/>
        <path id="Path_228" data-name="Path 228" d="M207.79,215.125a1.229,1.229,0,1,0-.544,1.651A1.224,1.224,0,0,0,207.79,215.125Z" transform="translate(-196.112 -204.74)"/>
        <path id="Path_229" data-name="Path 229" d="M248.058,220.411a.722.722,0,1,0,.208,1A.723.723,0,0,0,248.058,220.411Z" transform="translate(-234.233 -210.111)"/>
        <path id="Path_230" data-name="Path 230" d="M275.911,191.557a.614.614,0,1,0-.648.578A.614.614,0,0,0,275.911,191.557Z" transform="translate(-259.732 -183.103)"/>
        <path id="Path_231" data-name="Path 231" d="M306.091,193.526a.4.4,0,1,0,.374.419A.4.4,0,0,0,306.091,193.526Z" transform="translate(-288.213 -185.509)"/>
        <path id="Path_232" data-name="Path 232" d="M282.184,241.309a.506.506,0,1,0,.146.7A.506.506,0,0,0,282.184,241.309Z" transform="translate(-265.906 -229.351)"/>
        <path id="Path_233" data-name="Path 233" d="M144.652,287.387a.4.4,0,1,0,.114.55A.4.4,0,0,0,144.652,287.387Z" transform="translate(-139.656 -271.717)"/>
        <path id="Path_234" data-name="Path 234" d="M252.151,287.128a.4.4,0,1,0,.534.176A.4.4,0,0,0,252.151,287.128Z" transform="translate(-238.822 -271.499)"/>
        <path id="Path_235" data-name="Path 235" d="M171.914,216.432a1.229,1.229,0,1,0-1.029.555A1.221,1.221,0,0,0,171.914,216.432Z" transform="translate(-163.203 -204.813)"/>
        <path id="Path_236" data-name="Path 236" d="M156.409,260.195a.614.614,0,1,0,.177.85A.614.614,0,0,0,156.409,260.195Z" transform="translate(-150.153 -246.692)"/>
        <path id="Path_237" data-name="Path 237" d="M196.546,290.4a.506.506,0,1,0,.476.534A.506.506,0,0,0,196.546,290.4Z" transform="translate(-187.426 -274.549)"/>
        <path id="Path_238" data-name="Path 238" d="M194.016,251.074a.723.723,0,1,0,.68.762A.723.723,0,0,0,194.016,251.074Z" transform="translate(-184.89 -238.4)"/>
        <path id="Path_239" data-name="Path 239" d="M235.381,259.984a.614.614,0,1,0,.825.272A.614.614,0,0,0,235.381,259.984Z" transform="translate(-223.299 -246.53)"/>
      </g>
      <g id="Group_44" data-name="Group 44" transform="translate(22.648 2.927)">
        <path id="Path_240" data-name="Path 240" d="M5111.1,3443.167c.09-.052.166-.125.25-.185,1.7-1.208,1.708-3.99.9-5.436a3.67,3.67,0,0,0-3.46-1.86c-2.545-.022-5.09,0-7.635-.02-.394,0-.487.108-.485.492q.023,5.116,0,10.232c0,.338.046.517.444.471a4.332,4.332,0,0,1,.985.005c.437.05.55-.112.546-.541-.02-2.735-.011-5.47-.013-8.206,0-.262-.056-.5.375-.489,1.869.026,3.74.007,5.61.015a2.422,2.422,0,0,1,1.017.143,2.125,2.125,0,0,1,1.14,2.6,1.761,1.761,0,0,1-1.889,1.614c-1.195.034-2.391.016-3.583.018-1.3,0-1.285,0-1.26,1.313.006.342.11.44.448.434,1.108-.019,2.216,0,3.324-.011a.793.793,0,0,1,.671.293c.757.85,1.532,1.683,2.3,2.525.105.115.191.277.357.28.857.011,1.716,0,2.575,0l.068-.142q-1.386-1.349-2.771-2.7C5110.5,3443.518,5110.5,3443.52,5111.1,3443.167Z" transform="translate(-5072.445 -3435.514)"/>
        <path id="Path_241" data-name="Path 241" d="M5248.4,3439.005a5.115,5.115,0,0,0-5.168-3.314c-1.974-.007-3.948.012-5.922-.009-.365,0-.431.11-.429.435.013,1.714.006,3.427.006,5.142,0,1.7.012,3.393-.009,5.089-.005.4.082.542.508.537,1.853-.022,3.705-.007,5.557-.011a6.923,6.923,0,0,0,2.05-.241A5.734,5.734,0,0,0,5248.4,3439.005Zm-1.6,2.805a3.438,3.438,0,0,1-3.441,3.1c-1.367.014-2.735,0-4.1.013-.338,0-.447-.092-.438-.441.023-1.073.008-2.146.008-3.219,0-1.056.01-2.113-.006-3.168-.005-.32.046-.452.42-.444,1.315.027,2.63,0,3.946.011A3.5,3.5,0,0,1,5246.8,3441.811Z" transform="translate(-5194.496 -3435.528)"/>
        <path id="Path_242" data-name="Path 242" d="M5637.919,3439.7a4.949,4.949,0,0,0-4.659-3.943c-1.157-.088-2.316-.034-3.475-.038a4.936,4.936,0,0,0-1.128.129,5.064,5.064,0,0,0-4.128,4.693,5.59,5.59,0,0,0,3.839,6.137,10.533,10.533,0,0,0,2.934.215c.432,0,.865,0,1.3,0a5.233,5.233,0,0,0,3.41-1.142A5.693,5.693,0,0,0,5637.919,3439.7Zm-1.772,1.659a3.461,3.461,0,0,1-3.4,3.569c-.5.021-1,0-1.5,0a6.188,6.188,0,0,1-2.942-.4,3.723,3.723,0,0,1-1.742-4.121,3.283,3.283,0,0,1,2.993-2.7,26.378,26.378,0,0,1,3.47,0A3.371,3.371,0,0,1,5636.146,3441.359Z" transform="translate(-5541.829 -3435.551)"/>
        <path id="Path_243" data-name="Path 243" d="M5509.276,3434.577c-.282-.272-.859-.037-1.3-.09-.416-.05-.483.135-.481.5.014,2.336.009,4.672,0,7.008,0,.157.133.384-.073.466-.186.074-.287-.163-.394-.269q-3.686-3.633-7.343-7.292a1.144,1.144,0,0,0-1.25-.383c-.533.181-.618.648-.636,1.134-.007.173,0,.346,0,.519q0,4.1,0,8.2c0,.443-.156,1.044.068,1.291.273.3.886.052,1.347.1.365.041.463-.087.46-.455-.018-2.215-.008-4.429-.008-6.644v-1.01c1.9,1.89,3.722,3.692,5.536,5.5.778.776,1.538,1.572,2.319,2.345a1.1,1.1,0,0,0,1.271.31,1.01,1.01,0,0,0,.575-1.062c0-.138,0-.277,0-.415,0-2.82.007-5.641,0-8.46C5509.364,3435.43,5509.56,3434.853,5509.276,3434.577Z" transform="translate(-5428.257 -3434.418)"/>
        <path id="Path_244" data-name="Path 244" d="M4955.837,3435.038c-.656-1.1-1.458-1.123-2.108-.043q-2.17,3.6-4.329,7.21l-2,3.336c.76,0,1.429-.009,2.1.006.193,0,.222-.131.287-.241q1.016-1.715,2.028-3.433,1.34-2.273,2.688-4.542c.066-.111.134-.438.327-.122.777,1.274,1.53,2.563,2.337,3.922-1.043,0-2.007,0-2.972,0-.2,0-.418-.045-.549.188-.25.447-.51.887-.766,1.33.18.15.36.086.525.086,1.437.005,2.874.01,4.311,0a.6.6,0,0,1,.615.347c.422.753.888,1.481,1.318,2.23.078.135.145.231.3.232.722,0,1.445,0,2.249,0a2.621,2.621,0,0,1-.181-.219Q4958.923,3440.182,4955.837,3435.038Z" transform="translate(-4935.096 -3434.2)"/>
        <path id="Path_245" data-name="Path 245" d="M5351.479,3435.051q-1,1.688-2.014,3.369c-1.425,2.373-2.851,4.745-4.326,7.2a8.8,8.8,0,0,1,1.188.009,1.454,1.454,0,0,0,1.642-.943c1.37-2.447,2.829-4.844,4.261-7.255.065-.109.136-.48.353-.126.731,1.191,1.441,2.4,2.159,3.595.127.211.1.31-.173.305a11.647,11.647,0,0,1-1.66-.014,1.735,1.735,0,0,0-2.13,1.247c-.156.394-.078.384.25.381,1.471-.011,2.942-.008,4.414,0,.208,0,.422-.055.573.221.361.665.817,1.281,1.149,1.958a.987.987,0,0,0,1.129.637c.513-.052,1.036-.011,1.626-.011-2.18-3.615-4.285-7.1-6.387-10.595C5352.932,3434.027,5352.083,3434.034,5351.479,3435.051Z" transform="translate(-5291.511 -3434.274)"/>
        <path id="Path_246" data-name="Path 246" d="M4834.708,3437.68c1.438.016,2.875.011,4.313,0,.478,0,1.115.214,1.393-.091.3-.325.048-.959.092-1.455.027-.314-.078-.424-.4-.42-1.99.017-3.982-.007-5.973.026a5.185,5.185,0,0,0-5.09,5.2,5.463,5.463,0,0,0,4.644,5.9,26.034,26.034,0,0,0,3.144.063c.852,0,1.527,0,2.2,0,.465,0,1.074.156,1.356-.077.33-.271.059-.907.12-1.38.051-.4-.082-.523-.5-.518-1.9.022-3.81.017-5.714-.005a3.032,3.032,0,0,1-2.266-.982,3.755,3.755,0,0,1-.724-4.151A3.285,3.285,0,0,1,4834.708,3437.68Z" transform="translate(-4829.031 -3435.556)"/>
      </g>
    </g>
  </g>
</svg>
