<svg xmlns="http://www.w3.org/2000/svg" width="139" height="145" viewBox="0 0 139 145">
  <g id="Group_65" data-name="Group 65" transform="translate(0 0)" opacity="0.5">
    <rect id="Rectangle_51" data-name="Rectangle 51" width="139" height="0.564" transform="translate(0 0)"/>
    <rect id="Rectangle_52" data-name="Rectangle 52" width="139" height="0.564" transform="translate(0 3.009)"/>
    <rect id="Rectangle_53" data-name="Rectangle 53" width="139" height="0.564" transform="translate(0 6.018)"/>
    <rect id="Rectangle_54" data-name="Rectangle 54" width="139" height="0.564" transform="translate(0 9.027)"/>
    <rect id="Rectangle_55" data-name="Rectangle 55" width="139" height="0.564" transform="translate(0 12.036)"/>
    <rect id="Rectangle_56" data-name="Rectangle 56" width="139" height="0.564" transform="translate(0 15.046)"/>
    <rect id="Rectangle_57" data-name="Rectangle 57" width="139" height="0.564" transform="translate(0 18.054)"/>
    <rect id="Rectangle_58" data-name="Rectangle 58" width="139" height="0.564" transform="translate(0 21.064)"/>
    <rect id="Rectangle_59" data-name="Rectangle 59" width="139" height="0.564" transform="translate(0 24.073)"/>
    <rect id="Rectangle_60" data-name="Rectangle 60" width="139" height="0.564" transform="translate(0 27.082)"/>
    <rect id="Rectangle_61" data-name="Rectangle 61" width="139" height="0.564" transform="translate(0 30.091)"/>
    <rect id="Rectangle_62" data-name="Rectangle 62" width="139" height="0.564" transform="translate(0 33.1)"/>
    <rect id="Rectangle_63" data-name="Rectangle 63" width="139" height="0.564" transform="translate(0 36.109)"/>
    <rect id="Rectangle_64" data-name="Rectangle 64" width="139" height="0.564" transform="translate(0 39.118)"/>
    <rect id="Rectangle_65" data-name="Rectangle 65" width="139" height="0.564" transform="translate(0 42.127)"/>
    <rect id="Rectangle_66" data-name="Rectangle 66" width="139" height="0.564" transform="translate(0 45.136)"/>
    <rect id="Rectangle_67" data-name="Rectangle 67" width="139" height="0.564" transform="translate(0 48.145)"/>
    <rect id="Rectangle_68" data-name="Rectangle 68" width="139" height="0.564" transform="translate(0 51.155)"/>
    <rect id="Rectangle_69" data-name="Rectangle 69" width="139" height="0.564" transform="translate(0 54.163)"/>
    <rect id="Rectangle_70" data-name="Rectangle 70" width="139" height="0.564" transform="translate(0 57.173)"/>
    <rect id="Rectangle_71" data-name="Rectangle 71" width="139" height="0.564" transform="translate(0 60.182)"/>
    <rect id="Rectangle_72" data-name="Rectangle 72" width="139" height="0.564" transform="translate(0 63.191)"/>
    <rect id="Rectangle_73" data-name="Rectangle 73" width="139" height="0.564" transform="translate(0 66.2)"/>
    <rect id="Rectangle_74" data-name="Rectangle 74" width="139" height="0.564" transform="translate(0 69.209)"/>
    <rect id="Rectangle_75" data-name="Rectangle 75" width="139" height="0.564" transform="translate(0 72.218)"/>
    <rect id="Rectangle_76" data-name="Rectangle 76" width="139" height="0.564" transform="translate(0 75.227)"/>
    <rect id="Rectangle_77" data-name="Rectangle 77" width="139" height="0.564" transform="translate(0 78.236)"/>
    <rect id="Rectangle_78" data-name="Rectangle 78" width="139" height="0.564" transform="translate(0 81.245)"/>
    <rect id="Rectangle_79" data-name="Rectangle 79" width="139" height="0.564" transform="translate(0 84.254)"/>
    <rect id="Rectangle_80" data-name="Rectangle 80" width="139" height="0.564" transform="translate(0 87.263)"/>
    <rect id="Rectangle_81" data-name="Rectangle 81" width="139" height="0.564" transform="translate(0 90.272)"/>
    <rect id="Rectangle_82" data-name="Rectangle 82" width="139" height="0.564" transform="translate(0 93.282)"/>
    <rect id="Rectangle_83" data-name="Rectangle 83" width="139" height="0.564" transform="translate(0 96.291)"/>
    <rect id="Rectangle_84" data-name="Rectangle 84" width="139" height="0.564" transform="translate(0 99.3)"/>
    <rect id="Rectangle_85" data-name="Rectangle 85" width="139" height="0.564" transform="translate(0 102.309)"/>
    <rect id="Rectangle_86" data-name="Rectangle 86" width="139" height="0.564" transform="translate(0 105.318)"/>
    <rect id="Rectangle_87" data-name="Rectangle 87" width="139" height="0.564" transform="translate(0 108.327)"/>
    <rect id="Rectangle_88" data-name="Rectangle 88" width="139" height="0.564" transform="translate(0 111.336)"/>
    <rect id="Rectangle_89" data-name="Rectangle 89" width="139" height="0.564" transform="translate(0 114.345)"/>
    <rect id="Rectangle_90" data-name="Rectangle 90" width="139" height="0.564" transform="translate(0 117.354)"/>
    <rect id="Rectangle_91" data-name="Rectangle 91" width="139" height="0.564" transform="translate(0 120.363)"/>
    <rect id="Rectangle_92" data-name="Rectangle 92" width="139" height="0.564" transform="translate(0 123.372)"/>
    <rect id="Rectangle_93" data-name="Rectangle 93" width="139" height="0.564" transform="translate(0 126.381)"/>
    <rect id="Rectangle_94" data-name="Rectangle 94" width="139" height="0.564" transform="translate(0 129.391)"/>
    <rect id="Rectangle_95" data-name="Rectangle 95" width="139" height="0.564" transform="translate(0 132.4)"/>
    <rect id="Rectangle_96" data-name="Rectangle 96" width="139" height="0.564" transform="translate(0 135.409)"/>
    <rect id="Rectangle_97" data-name="Rectangle 97" width="139" height="0.564" transform="translate(0 138.418)"/>
    <rect id="Rectangle_98" data-name="Rectangle 98" width="139" height="0.564" transform="translate(0 141.427)"/>
    <rect id="Rectangle_99" data-name="Rectangle 99" width="139" height="0.564" transform="translate(0 144.436)"/>
  </g>
</svg>
