<svg xmlns="http://www.w3.org/2000/svg" width="302" height="30" viewBox="0 0 302 30">
  <g id="Group_233" data-name="Group 233" transform="translate(-36 -483)">
    <g id="Group_52" data-name="Group 52" transform="translate(4446 -781)">
      <g id="Rectangle_27" data-name="Rectangle 27" transform="translate(-4365 1264)" fill="#fff" stroke="#000" stroke-width="1">
        <rect width="30" height="30" stroke="none"/>
        <rect x="0.5" y="0.5" width="29" height="29" fill="none"/>
      </g>
      <path id="Icon_awesome-facebook-square" data-name="Icon awesome-facebook-square" d="M14.221,2.25H1.706A1.706,1.706,0,0,0,0,3.956V16.471a1.706,1.706,0,0,0,1.706,1.706H6.586V12.762H4.346V10.213h2.24V8.271a3.111,3.111,0,0,1,3.33-3.43,13.569,13.569,0,0,1,1.974.172V7.182H10.778A1.274,1.274,0,0,0,9.341,8.559v1.655h2.445L11.4,12.762H9.341v5.415h4.879a1.706,1.706,0,0,0,1.706-1.706V3.956A1.706,1.706,0,0,0,14.221,2.25Z" transform="translate(-4358.213 1268.75)"/>
    </g>
    <g id="Group_53" data-name="Group 53" transform="translate(4492 -827)">
      <g id="Rectangle_26" data-name="Rectangle 26" transform="translate(-4365 1310)" fill="#fff" stroke="#000" stroke-width="1">
        <rect width="30" height="30" stroke="none"/>
        <rect x="0.5" y="0.5" width="29" height="29" fill="none"/>
      </g>
      <path id="Icon_awesome-twitter-square" data-name="Icon awesome-twitter-square" d="M14.221,2.25H1.706A1.707,1.707,0,0,0,0,3.956V16.471a1.707,1.707,0,0,0,1.706,1.706H14.221a1.707,1.707,0,0,0,1.706-1.706V3.956A1.707,1.707,0,0,0,14.221,2.25ZM12.482,7.9c.007.1.007.2.007.3a6.589,6.589,0,0,1-6.634,6.634,6.6,6.6,0,0,1-3.58-1.045,4.912,4.912,0,0,0,.562.028,4.675,4.675,0,0,0,2.894-1A2.335,2.335,0,0,1,3.552,11.2,2.513,2.513,0,0,0,4.6,11.159,2.332,2.332,0,0,1,2.737,8.87V8.841a2.33,2.33,0,0,0,1.052.3A2.327,2.327,0,0,1,2.752,7.2a2.3,2.3,0,0,1,.316-1.177A6.62,6.62,0,0,0,7.875,8.457a2.337,2.337,0,0,1,3.978-2.13,4.569,4.569,0,0,0,1.479-.562,2.326,2.326,0,0,1-1.024,1.283,4.64,4.64,0,0,0,1.344-.363A4.908,4.908,0,0,1,12.482,7.9Z" transform="translate(-4358.213 1314.75)"/>
    </g>
    <g id="Group_54" data-name="Group 54" transform="translate(4537 -873)">
      <g id="Rectangle_25" data-name="Rectangle 25" transform="translate(-4365 1356)" fill="#fff" stroke="#000" stroke-width="1">
        <rect width="30" height="30" stroke="none"/>
        <rect x="0.5" y="0.5" width="29" height="29" fill="none"/>
      </g>
      <path id="Icon_awesome-github-square" data-name="Icon awesome-github-square" d="M14.221,2.25H1.706A1.707,1.707,0,0,0,0,3.956V16.471a1.707,1.707,0,0,0,1.706,1.706H14.221a1.707,1.707,0,0,0,1.706-1.706V3.956A1.707,1.707,0,0,0,14.221,2.25ZM9.858,15.891c-.3.053-.409-.132-.409-.284,0-.192.007-1.173.007-1.966a1.385,1.385,0,0,0-.4-1.091c1.315-.146,2.7-.327,2.7-2.6a1.825,1.825,0,0,0-.608-1.387,2.223,2.223,0,0,0-.06-1.6c-.494-.153-1.625.636-1.625.636a5.593,5.593,0,0,0-2.958,0s-1.131-.789-1.625-.636a2.206,2.206,0,0,0-.06,1.6A1.786,1.786,0,0,0,4.266,9.95c0,2.261,1.326,2.453,2.641,2.6a1.289,1.289,0,0,0-.377.793,1.247,1.247,0,0,1-1.717-.494,1.239,1.239,0,0,0-.907-.608c-.576-.007-.039.363-.039.363.384.178.654.86.654.86.345,1.056,1.994.7,1.994.7,0,.494.007,1.3.007,1.443s-.107.338-.409.284a5.9,5.9,0,0,1-3.989-5.628A5.642,5.642,0,0,1,7.885,4.522a5.768,5.768,0,0,1,5.909,5.742A5.844,5.844,0,0,1,9.858,15.891ZM6.371,13.719c-.068.014-.132-.014-.139-.06s.039-.1.107-.114.132.021.139.068S6.442,13.7,6.371,13.719Zm-.338-.032c0,.046-.053.085-.124.085s-.132-.032-.132-.085S5.83,13.6,5.9,13.6,6.033,13.634,6.033,13.687Zm-.487-.039c-.014.046-.085.068-.146.046s-.114-.068-.1-.114.085-.068.146-.053S5.564,13.6,5.546,13.648Zm-.437-.192c-.032.039-.1.032-.153-.021s-.068-.114-.032-.146.1-.032.153.021S5.141,13.427,5.109,13.456Zm-.324-.324c-.032.021-.092,0-.132-.053s-.039-.114,0-.139.1-.007.132.046A.1.1,0,0,1,4.785,13.132Zm-.231-.345c-.032.032-.085.014-.124-.021s-.046-.1-.014-.124.085-.014.124.021S4.586,12.763,4.554,12.787Zm-.238-.263a.067.067,0,0,1-.1.014c-.046-.021-.068-.06-.053-.092a.084.084,0,0,1,.1-.014C4.309,12.457,4.33,12.5,4.316,12.524Z" transform="translate(-4358.213 1360.75)"/>
      <rect id="Rectangle_34" data-name="Rectangle 34" width="13" height="12" transform="translate(-4357 1365)"/>
      <path id="Icon_awesome-telegram-plane" data-name="Icon awesome-telegram-plane" d="M10.491,5.331,8.9,12.818c-.12.528-.432.66-.876.411L5.609,11.447,4.442,12.569a.607.607,0,0,1-.486.237l.174-2.464L8.613,6.292c.195-.174-.042-.27-.3-.1L2.767,9.685.381,8.938c-.519-.162-.528-.519.108-.768l9.333-3.6C10.254,4.413,10.632,4.671,10.491,5.331Z" transform="translate(-4355.761 1362.024)" fill="#fff"/>
    </g>
    <g id="Group_55" data-name="Group 55" transform="translate(4582 -919)">
      <g id="Rectangle_24" data-name="Rectangle 24" transform="translate(-4365 1402)" fill="#fff" stroke="#000" stroke-width="1">
        <rect width="30" height="30" stroke="none"/>
        <rect x="0.5" y="0.5" width="29" height="29" fill="none"/>
      </g>
      <path id="Icon_awesome-linkedin" data-name="Icon awesome-linkedin" d="M14.789,2.25H1.134A1.143,1.143,0,0,0,0,3.4v13.63a1.143,1.143,0,0,0,1.134,1.148H14.789a1.146,1.146,0,0,0,1.138-1.148V3.4A1.146,1.146,0,0,0,14.789,2.25ZM4.814,15.9H2.453V8.3H4.817v7.6ZM3.633,7.263A1.369,1.369,0,1,1,5,5.894,1.369,1.369,0,0,1,3.633,7.263ZM13.662,15.9H11.3V12.2c0-.882-.018-2.016-1.227-2.016-1.23,0-1.418.96-1.418,1.952V15.9H6.3V8.3H8.561V9.339h.032a2.486,2.486,0,0,1,2.236-1.227c2.389,0,2.833,1.575,2.833,3.623Z" transform="translate(-4357.963 1406.786)"/>
    </g>
    <g id="Group_230" data-name="Group 230" transform="translate(3346 -31)">
      <g id="Rectangle_295" data-name="Rectangle 295" transform="translate(-3310 514)" fill="#fff" stroke="#000" stroke-width="1">
        <rect width="30" height="30" stroke="none"/>
        <rect x="0.5" y="0.5" width="29" height="29" fill="none"/>
      </g>
      <path id="Icon_awesome-youtube" data-name="Icon awesome-youtube" d="M16.7,6.258a2.008,2.008,0,0,0-1.413-1.422A47.455,47.455,0,0,0,9.041,4.5,47.455,47.455,0,0,0,2.8,4.836,2.008,2.008,0,0,0,1.384,6.258,21.065,21.065,0,0,0,1.05,10.13,21.065,21.065,0,0,0,1.384,14,1.978,1.978,0,0,0,2.8,15.4a47.455,47.455,0,0,0,6.244.336,47.455,47.455,0,0,0,6.244-.336A1.978,1.978,0,0,0,16.7,14a21.065,21.065,0,0,0,.334-3.872A21.065,21.065,0,0,0,16.7,6.258ZM7.406,12.506V7.754l4.177,2.376L7.406,12.506Z" transform="translate(-3304.041 519.047)"/>
    </g>
    <g id="Group_231" data-name="Group 231" transform="translate(3573 -94)">
      <g id="Rectangle_296" data-name="Rectangle 296" transform="translate(-3310 577)" fill="#fff" stroke="#000" stroke-width="1">
        <rect width="30" height="30" stroke="none"/>
        <rect x="0.5" y="0.5" width="29" height="29" fill="none"/>
      </g>
      <path id="Union_1" data-name="Union 1" d="M1.138,15.981A1.147,1.147,0,0,1,0,14.829V1.152A1.147,1.147,0,0,1,1.138,0h13.7a1.149,1.149,0,0,1,1.142,1.152V14.829a1.149,1.149,0,0,1-1.142,1.152Z" transform="translate(-3302.991 584.009)" fill="#202020"/>
      <path id="Icon_awesome-medium-m" data-name="Icon awesome-medium-m" d="M2.284,6.256A.423.423,0,0,0,2.147,5.9L1.135,4.682V4.5H4.28L6.711,9.831,8.848,4.5h3v.182l-.866.83a.253.253,0,0,0-.1.242v6.1a.253.253,0,0,0,.1.242l.846.83v.182H7.572v-.182l.877-.85c.085-.085.085-.112.085-.242V6.9L6.1,13.092h-.33L2.932,6.9v4.147a.565.565,0,0,0,.157.475l1.139,1.382v.182H1V12.91l1.139-1.384a.546.546,0,0,0,.146-.475Z" transform="translate(-3301.423 583.196)" fill="#fff"/>
    </g>
    <g id="Group_232" data-name="Group 232" transform="translate(3618 -157)">
      <g id="Rectangle_298" data-name="Rectangle 298" transform="translate(-3310 640)" fill="#fff" stroke="#000" stroke-width="1">
        <rect width="30" height="30" stroke="none"/>
        <rect x="0.5" y="0.5" width="29" height="29" fill="none"/>
      </g>
      <path id="Icon_awesome-github-square-2" data-name="Icon awesome-github-square" d="M14.269,2.25H1.712A1.713,1.713,0,0,0,0,3.962V16.519a1.713,1.713,0,0,0,1.712,1.712H14.269a1.713,1.713,0,0,0,1.712-1.712V3.962A1.713,1.713,0,0,0,14.269,2.25ZM9.892,15.937c-.3.054-.41-.132-.41-.285,0-.193.007-1.177.007-1.973a1.39,1.39,0,0,0-.4-1.1c1.32-.146,2.711-.328,2.711-2.608a1.831,1.831,0,0,0-.61-1.391,2.231,2.231,0,0,0-.061-1.605c-.5-.153-1.63.639-1.63.639a5.612,5.612,0,0,0-2.968,0S5.394,6.827,4.9,6.98a2.214,2.214,0,0,0-.061,1.605,1.792,1.792,0,0,0-.556,1.391c0,2.269,1.331,2.461,2.65,2.608a1.293,1.293,0,0,0-.378.8,1.252,1.252,0,0,1-1.723-.5,1.243,1.243,0,0,0-.91-.61c-.578-.007-.039.364-.039.364.385.178.656.863.656.863.346,1.059,2,.7,2,.7,0,.5.007,1.3.007,1.448s-.107.339-.41.285a5.918,5.918,0,0,1-4-5.647A5.661,5.661,0,0,1,7.912,4.529a5.787,5.787,0,0,1,5.929,5.761A5.864,5.864,0,0,1,9.892,15.937Zm-3.5-2.18c-.068.014-.132-.014-.139-.061s.039-.1.107-.114.132.021.139.068S6.464,13.744,6.392,13.758Zm-.339-.032c0,.046-.054.086-.125.086s-.132-.032-.132-.086.054-.086.125-.086S6.054,13.672,6.054,13.726Zm-.489-.039c-.014.046-.086.068-.146.046s-.114-.068-.1-.114.086-.068.146-.054S5.583,13.64,5.565,13.686Zm-.439-.193c-.032.039-.1.032-.153-.021s-.068-.114-.032-.146.1-.032.153.021S5.158,13.465,5.126,13.494ZM4.8,13.169c-.032.021-.093,0-.132-.054s-.039-.114,0-.139.1-.007.132.046A.1.1,0,0,1,4.8,13.169Zm-.232-.346c-.032.032-.086.014-.125-.021s-.046-.1-.014-.125.086-.014.125.021S4.6,12.8,4.57,12.823Zm-.239-.264a.067.067,0,0,1-.1.014c-.046-.021-.068-.061-.054-.093a.084.084,0,0,1,.1-.014C4.323,12.491,4.345,12.531,4.331,12.559Z" transform="translate(-3302.964 644.759)" fill="#202020"/>
    </g>
  </g>
</svg>
