<svg xmlns="http://www.w3.org/2000/svg" width="30" height="168" viewBox="0 0 30 168">
  <g id="Group_48" data-name="Group 48" transform="translate(-1212 -297)">
    <g id="Rectangle_24" data-name="Rectangle 24" transform="translate(1212 435)" fill="#fff" stroke="#000" stroke-width="1">
      <rect width="30" height="30" stroke="none"/>
      <rect x="0.5" y="0.5" width="29" height="29" fill="none"/>
    </g>
    <g id="Rectangle_25" data-name="Rectangle 25" transform="translate(1212 389)" fill="#fff" stroke="#000" stroke-width="1">
      <rect width="30" height="30" stroke="none"/>
      <rect x="0.5" y="0.5" width="29" height="29" fill="none"/>
    </g>
    <path id="Icon_awesome-github-square" data-name="Icon awesome-github-square" d="M14.221,2.25H1.706A1.707,1.707,0,0,0,0,3.956V16.471a1.707,1.707,0,0,0,1.706,1.706H14.221a1.707,1.707,0,0,0,1.706-1.706V3.956A1.707,1.707,0,0,0,14.221,2.25ZM9.858,15.891c-.3.053-.409-.132-.409-.284,0-.192.007-1.173.007-1.966a1.385,1.385,0,0,0-.4-1.091c1.315-.146,2.7-.327,2.7-2.6a1.825,1.825,0,0,0-.608-1.387,2.223,2.223,0,0,0-.06-1.6c-.494-.153-1.625.636-1.625.636a5.593,5.593,0,0,0-2.958,0s-1.131-.789-1.625-.636a2.206,2.206,0,0,0-.06,1.6A1.786,1.786,0,0,0,4.266,9.95c0,2.261,1.326,2.453,2.641,2.6a1.289,1.289,0,0,0-.377.793,1.247,1.247,0,0,1-1.717-.494,1.239,1.239,0,0,0-.907-.608c-.576-.007-.039.363-.039.363.384.178.654.86.654.86.345,1.056,1.994.7,1.994.7,0,.494.007,1.3.007,1.443s-.107.338-.409.284a5.9,5.9,0,0,1-3.989-5.628A5.642,5.642,0,0,1,7.885,4.522a5.768,5.768,0,0,1,5.909,5.742A5.844,5.844,0,0,1,9.858,15.891ZM6.371,13.719c-.068.014-.132-.014-.139-.06s.039-.1.107-.114.132.021.139.068S6.442,13.7,6.371,13.719Zm-.338-.032c0,.046-.053.085-.124.085s-.132-.032-.132-.085S5.83,13.6,5.9,13.6,6.033,13.634,6.033,13.687Zm-.487-.039c-.014.046-.085.068-.146.046s-.114-.068-.1-.114.085-.068.146-.053S5.564,13.6,5.546,13.648Zm-.437-.192c-.032.039-.1.032-.153-.021s-.068-.114-.032-.146.1-.032.153.021S5.141,13.427,5.109,13.456Zm-.324-.324c-.032.021-.092,0-.132-.053s-.039-.114,0-.139.1-.007.132.046A.1.1,0,0,1,4.785,13.132Zm-.231-.345c-.032.032-.085.014-.124-.021s-.046-.1-.014-.124.085-.014.124.021S4.586,12.763,4.554,12.787Zm-.238-.263a.067.067,0,0,1-.1.014c-.046-.021-.068-.06-.053-.092a.084.084,0,0,1,.1-.014C4.309,12.457,4.33,12.5,4.316,12.524Z" transform="translate(1218.786 393.75)"/>
    <g id="Rectangle_26" data-name="Rectangle 26" transform="translate(1212 343)" fill="#fff" stroke="#000" stroke-width="1">
      <rect width="30" height="30" stroke="none"/>
      <rect x="0.5" y="0.5" width="29" height="29" fill="none"/>
    </g>
    <path id="Icon_awesome-twitter-square" data-name="Icon awesome-twitter-square" d="M14.221,2.25H1.706A1.707,1.707,0,0,0,0,3.956V16.471a1.707,1.707,0,0,0,1.706,1.706H14.221a1.707,1.707,0,0,0,1.706-1.706V3.956A1.707,1.707,0,0,0,14.221,2.25ZM12.482,7.9c.007.1.007.2.007.3a6.589,6.589,0,0,1-6.634,6.634,6.6,6.6,0,0,1-3.58-1.045,4.912,4.912,0,0,0,.562.028,4.675,4.675,0,0,0,2.894-1A2.335,2.335,0,0,1,3.552,11.2,2.513,2.513,0,0,0,4.6,11.159,2.332,2.332,0,0,1,2.737,8.87V8.841a2.33,2.33,0,0,0,1.052.3A2.327,2.327,0,0,1,2.752,7.2a2.3,2.3,0,0,1,.316-1.177A6.62,6.62,0,0,0,7.875,8.457a2.337,2.337,0,0,1,3.978-2.13,4.569,4.569,0,0,0,1.479-.562,2.326,2.326,0,0,1-1.024,1.283,4.64,4.64,0,0,0,1.344-.363A4.908,4.908,0,0,1,12.482,7.9Z" transform="translate(1218.786 347.75)"/>
    <g id="Rectangle_27" data-name="Rectangle 27" transform="translate(1212 297)" fill="#fff" stroke="#000" stroke-width="1">
      <rect width="30" height="30" stroke="none"/>
      <rect x="0.5" y="0.5" width="29" height="29" fill="none"/>
    </g>
    <path id="Icon_awesome-facebook-square" data-name="Icon awesome-facebook-square" d="M14.221,2.25H1.706A1.706,1.706,0,0,0,0,3.956V16.471a1.706,1.706,0,0,0,1.706,1.706H6.586V12.762H4.346V10.213h2.24V8.271a3.111,3.111,0,0,1,3.33-3.43,13.569,13.569,0,0,1,1.974.172V7.182H10.778A1.274,1.274,0,0,0,9.341,8.559v1.655h2.445L11.4,12.762H9.341v5.415h4.879a1.706,1.706,0,0,0,1.706-1.706V3.956A1.706,1.706,0,0,0,14.221,2.25Z" transform="translate(1218.786 301.75)"/>

<rect id="Rectangle_34" data-name="Rectangle 34" width="13" height="12" transform="translate(1220 398)"/>
    <path id="Icon_awesome-telegram-plane" data-name="Icon awesome-telegram-plane" d="M10.491,5.331,8.9,12.818c-.12.528-.432.66-.876.411L5.609,11.447,4.442,12.569a.607.607,0,0,1-.486.237l.174-2.464L8.613,6.292c.195-.174-.042-.27-.3-.1L2.767,9.685.381,8.938c-.519-.162-.528-.519.108-.768l9.333-3.6C10.254,4.413,10.632,4.671,10.491,5.331Z" transform="translate(1221.239 395.024)" fill="#fff"/>
    <path id="Icon_awesome-linkedin" data-name="Icon awesome-linkedin" d="M14.789,2.25H1.134A1.143,1.143,0,0,0,0,3.4v13.63a1.143,1.143,0,0,0,1.134,1.148H14.789a1.146,1.146,0,0,0,1.138-1.148V3.4A1.146,1.146,0,0,0,14.789,2.25ZM4.814,15.9H2.453V8.3H4.817v7.6ZM3.633,7.263A1.369,1.369,0,1,1,5,5.894,1.369,1.369,0,0,1,3.633,7.263ZM13.662,15.9H11.3V12.2c0-.882-.018-2.016-1.227-2.016-1.23,0-1.418.96-1.418,1.952V15.9H6.3V8.3H8.561V9.339h.032a2.486,2.486,0,0,1,2.236-1.227c2.389,0,2.833,1.575,2.833,3.623Z" transform="translate(1219.036 439.786)"/>
  </g>
</svg>