<svg xmlns="http://www.w3.org/2000/svg" width="42" height="420" viewBox="0 0 42 420">
  <g id="Group_229" data-name="Group 229" transform="translate(-1759 -330)">
    <g id="Group_228" data-name="Group 228" transform="translate(0 6)">
      <g id="Group_225" data-name="Group 225" transform="translate(0 -96)">
        <g id="Rectangle_25" data-name="Rectangle 25" transform="translate(1759 546)" fill="#fff" stroke="#000" stroke-width="1">
          <rect width="42" height="43" stroke="none"/>
          <rect x="0.5" y="0.5" width="41" height="42" fill="none"/>
        </g>
        <path id="Union_2" data-name="Union 2" d="M5284.4,29.373a2.4,2.4,0,0,1-2.4-2.4V9.4a2.4,2.4,0,0,1,2.4-2.4h17.579a2.4,2.4,0,0,1,2.4,2.4V26.976a2.4,2.4,0,0,1-2.4,2.4Z" transform="translate(-3513.501 549.282)" fill="#202020"/>
        <path id="Icon_awesome-telegram-plane" data-name="Icon awesome-telegram-plane" d="M14.737,5.656l-2.23,10.517c-.168.742-.607.927-1.231.577l-3.4-2.5-1.64,1.577a.853.853,0,0,1-.683.333L5.8,12.7l6.3-5.691c.274-.244-.059-.379-.426-.135l-7.786,4.9L.535,10.724c-.729-.228-.742-.729.152-1.079L13.8,4.594C14.4,4.366,14.935,4.729,14.737,5.656Z" transform="translate(1771.944 556.744)" fill="#fff"/>
      </g>
      <g id="Group_224" data-name="Group 224" transform="translate(0 -97)">
        <g id="Rectangle_24" data-name="Rectangle 24" transform="translate(1759 611)" fill="#fff" stroke="#000" stroke-width="1">
          <rect width="42" height="42" stroke="none"/>
          <rect x="0.5" y="0.5" width="41" height="41" fill="none"/>
        </g>
        <path id="Icon_awesome-linkedin" data-name="Icon awesome-linkedin" d="M20.775,2.25H1.593A1.605,1.605,0,0,0,0,3.863V23.01a1.605,1.605,0,0,0,1.593,1.613H20.775a1.609,1.609,0,0,0,1.6-1.613V3.863A1.609,1.609,0,0,0,20.775,2.25ZM6.762,21.427H3.446V10.75H6.767V21.427ZM5.1,9.292A1.923,1.923,0,1,1,7.027,7.369,1.924,1.924,0,0,1,5.1,9.292ZM19.192,21.427H15.876V16.233c0-1.239-.025-2.832-1.723-2.832-1.728,0-1.993,1.348-1.993,2.742v5.284H8.845V10.75h3.181v1.458h.045a3.493,3.493,0,0,1,3.141-1.723c3.356,0,3.98,2.212,3.98,5.089Z" transform="translate(1768.85 618.702)" fill="#202020"/>
      </g>
      <g id="Group_226" data-name="Group 226" transform="translate(0 -95)">
        <g id="Rectangle_26" data-name="Rectangle 26" transform="translate(1759 482)" fill="#fff" stroke="#000" stroke-width="1">
          <rect width="42" height="42" stroke="none"/>
          <rect x="0.5" y="0.5" width="41" height="41" fill="none"/>
        </g>
        <path id="Icon_awesome-twitter-square" data-name="Icon awesome-twitter-square" d="M19.976,2.25H2.4A2.4,2.4,0,0,0,0,4.647V22.226a2.4,2.4,0,0,0,2.4,2.4H19.976a2.4,2.4,0,0,0,2.4-2.4V4.647A2.4,2.4,0,0,0,19.976,2.25Zm-2.442,7.931c.01.14.01.285.01.424a9.255,9.255,0,0,1-9.319,9.319A9.276,9.276,0,0,1,3.2,18.456a6.9,6.9,0,0,0,.789.04A6.567,6.567,0,0,0,8.05,17.1a3.28,3.28,0,0,1-3.061-2.272,3.53,3.53,0,0,0,1.478-.06,3.276,3.276,0,0,1-2.622-3.216v-.04a3.273,3.273,0,0,0,1.478.415A3.268,3.268,0,0,1,3.865,9.2,3.234,3.234,0,0,1,4.31,7.544a9.3,9.3,0,0,0,6.752,3.426A3.282,3.282,0,0,1,16.65,7.978a6.418,6.418,0,0,0,2.078-.789,3.267,3.267,0,0,1-1.438,1.8,6.518,6.518,0,0,0,1.888-.509A6.894,6.894,0,0,1,17.534,10.181Z" transform="translate(1768.499 489.414)" fill="#202020"/>
      </g>
      <g id="Group_227" data-name="Group 227" transform="translate(0 -93)">
        <g id="Rectangle_27" data-name="Rectangle 27" transform="translate(1759 417)" fill="#fff" stroke="#000" stroke-width="1">
          <rect width="42" height="42" stroke="none"/>
          <rect x="0.5" y="0.5" width="41" height="41" fill="none"/>
        </g>
        <path id="Icon_awesome-facebook-square" data-name="Icon awesome-facebook-square" d="M19.976,2.25H2.4A2.4,2.4,0,0,0,0,4.647V22.226a2.4,2.4,0,0,0,2.4,2.4H9.252V17.017H6.105v-3.58H9.252V10.708c0-3.1,1.848-4.818,4.678-4.818a19.061,19.061,0,0,1,2.773.242V9.178H15.141a1.79,1.79,0,0,0-2.019,1.934v2.325h3.435l-.549,3.58H13.122v7.606h6.854a2.4,2.4,0,0,0,2.4-2.4V4.647A2.4,2.4,0,0,0,19.976,2.25Z" transform="translate(1768.499 424.795)" fill="#202020"/>
      </g>
      <g id="Group_221" data-name="Group 221" transform="translate(0 -99)">
        <g id="Rectangle_295" data-name="Rectangle 295" transform="translate(1759 675)" fill="#fff" stroke="#000" stroke-width="1">
          <rect width="42" height="42" stroke="none"/>
          <rect x="0.5" y="0.5" width="41" height="41" fill="none"/>
        </g>
        <path id="Icon_awesome-youtube" data-name="Icon awesome-youtube" d="M22.956,6.961a2.811,2.811,0,0,0-1.978-1.991C19.233,4.5,12.237,4.5,12.237,4.5s-7,0-8.741.471A2.811,2.811,0,0,0,1.517,6.961a29.491,29.491,0,0,0-.468,5.42,29.491,29.491,0,0,0,.468,5.42A2.769,2.769,0,0,0,3.5,19.761c1.745.471,8.741.471,8.741.471s7,0,8.741-.471A2.769,2.769,0,0,0,22.956,17.8a29.491,29.491,0,0,0,.468-5.42,29.491,29.491,0,0,0-.468-5.42ZM9.949,15.708V9.055L15.8,12.382,9.949,15.708Z" transform="translate(1767.763 683.866)"/>
      </g>
      <g id="Group_222" data-name="Group 222" transform="translate(0 -97)">
        <g id="Rectangle_296" data-name="Rectangle 296" transform="translate(1759 736)" fill="#fff" stroke="#000" stroke-width="1">
          <rect width="42" height="42" stroke="none"/>
          <rect x="0.5" y="0.5" width="41" height="41" fill="none"/>
        </g>
        <path id="Union_1" data-name="Union 1" d="M5283.593,29.373A1.606,1.606,0,0,1,5282,27.76V8.613A1.606,1.606,0,0,1,5283.593,7h19.182a1.609,1.609,0,0,1,1.6,1.613V27.76a1.609,1.609,0,0,1-1.6,1.613Z" transform="translate(-3513.188 738.813)" fill="#202020"/>
        <path id="Icon_awesome-medium-m" data-name="Icon awesome-medium-m" d="M2.8,6.959a.593.593,0,0,0-.192-.5L1.19,4.754V4.5h4.4L9,11.964,11.988,4.5h4.2v.254L14.974,5.916a.354.354,0,0,0-.135.339V14.8a.354.354,0,0,0,.135.339L16.158,16.3v.254H10.2V16.3l1.228-1.19c.119-.119.119-.157.119-.339v-6.9L8.135,16.529H7.674L3.705,7.866v5.806a.791.791,0,0,0,.22.666l1.6,1.934v.254H1v-.251l1.6-1.937a.765.765,0,0,0,.2-.666Z" transform="translate(1771.408 746.474)" fill="#fff"/>
      </g>
      <g id="Group_223" data-name="Group 223" transform="translate(0 -93)">
        <g id="Rectangle_298" data-name="Rectangle 298" transform="translate(1759 795)" fill="#fff" stroke="#000" stroke-width="1">
          <rect width="42" height="42" stroke="none"/>
          <rect x="0.5" y="0.5" width="41" height="41" fill="none"/>
        </g>
        <path id="Icon_awesome-github-square" data-name="Icon awesome-github-square" d="M19.976,2.25H2.4A2.4,2.4,0,0,0,0,4.647V22.226a2.4,2.4,0,0,0,2.4,2.4H19.976a2.4,2.4,0,0,0,2.4-2.4V4.647A2.4,2.4,0,0,0,19.976,2.25ZM13.849,21.412c-.42.075-.574-.185-.574-.4,0-.27.01-1.648.01-2.762a1.946,1.946,0,0,0-.564-1.533c1.848-.2,3.8-.459,3.8-3.651a2.564,2.564,0,0,0-.854-1.948,3.123,3.123,0,0,0-.085-2.247c-.694-.215-2.282.894-2.282.894a7.856,7.856,0,0,0-4.155,0S7.551,8.657,6.857,8.872a3.1,3.1,0,0,0-.085,2.247,2.508,2.508,0,0,0-.779,1.948c0,3.176,1.863,3.446,3.711,3.651a1.81,1.81,0,0,0-.529,1.114,1.752,1.752,0,0,1-2.412-.694,1.74,1.74,0,0,0-1.273-.854c-.809-.01-.055.509-.055.509.539.25.919,1.209.919,1.209.484,1.483,2.8.984,2.8.984,0,.694.01,1.823.01,2.028s-.15.474-.574.4a8.285,8.285,0,0,1-5.6-7.906,7.925,7.925,0,0,1,8.09-8.065,8.1,8.1,0,0,1,8.3,8.065A8.209,8.209,0,0,1,13.849,21.412Zm-4.9-3.051c-.095.02-.185-.02-.195-.085s.055-.14.15-.16.185.03.195.095S9.049,18.341,8.949,18.361Zm-.474-.045c0,.065-.075.12-.175.12s-.185-.045-.185-.12.075-.12.175-.12S8.475,18.241,8.475,18.316Zm-.684-.055c-.02.065-.12.095-.2.065s-.16-.095-.14-.16.12-.095.2-.075S7.816,18.2,7.791,18.261Zm-.614-.27c-.045.055-.14.045-.215-.03s-.095-.16-.045-.2.14-.045.215.03S7.221,17.951,7.176,17.991Zm-.454-.454c-.045.03-.13,0-.185-.075s-.055-.16,0-.195.14-.01.185.065A.146.146,0,0,1,6.722,17.537ZM6.4,17.052c-.045.045-.12.02-.175-.03s-.065-.14-.02-.175.12-.02.175.03S6.442,17.017,6.4,17.052Zm-.335-.37a.094.094,0,0,1-.14.02c-.065-.03-.095-.085-.075-.13a.118.118,0,0,1,.14-.02C6.053,16.588,6.083,16.643,6.063,16.683Z" transform="translate(1768.85 802.563)" fill="#202020"/>
      </g>
    </g>
  </g>
</svg>
